<svg width="45" height="38" viewBox="0 0 45 38" fill="none" xmlns="http://www.w3.org/2000/svg">
<g opacity="0.95" filter="url(#filter0_d_4990_10191)">
<path d="M32.7344 4.625C31.1274 4.625 29.5565 5.10152 28.2204 5.99431C26.8842 6.8871 25.8428 8.15605 25.2279 9.6407C24.6129 11.1253 24.452 12.759 24.7655 14.3351C25.079 15.9112 25.8528 17.3589 26.9891 18.4952C28.1254 19.6315 29.5732 20.4054 31.1493 20.7189C32.7254 21.0324 34.359 20.8715 35.8437 20.2565C37.3283 19.6416 38.5973 18.6002 39.4901 17.264C40.3829 15.9279 40.8594 14.357 40.8594 12.75C40.8567 10.5959 39.9998 8.53088 38.4767 7.00773C36.9535 5.48457 34.8884 4.62769 32.7344 4.625ZM35.8594 13.375H33.3594V15.875C33.3594 16.0408 33.2935 16.1997 33.1763 16.3169C33.0591 16.4342 32.9001 16.5 32.7344 16.5C32.5686 16.5 32.4096 16.4342 32.2924 16.3169C32.1752 16.1997 32.1094 16.0408 32.1094 15.875V13.375H29.6094C29.4436 13.375 29.2846 13.3092 29.1674 13.1919C29.0502 13.0747 28.9844 12.9158 28.9844 12.75C28.9844 12.5842 29.0502 12.4253 29.1674 12.3081C29.2846 12.1908 29.4436 12.125 29.6094 12.125H32.1094V9.625C32.1094 9.45924 32.1752 9.30027 32.2924 9.18306C32.4096 9.06585 32.5686 9 32.7344 9C32.9001 9 33.0591 9.06585 33.1763 9.18306C33.2935 9.30027 33.3594 9.45924 33.3594 9.625V12.125H35.8594C36.0251 12.125 36.1841 12.1908 36.3013 12.3081C36.4185 12.4253 36.4844 12.5842 36.4844 12.75C36.4844 12.9158 36.4185 13.0747 36.3013 13.1919C36.1841 13.3092 36.0251 13.375 35.8594 13.375Z" fill="white"/>
</g>
<g filter="url(#filter1_d_4990_10191)">
<path fill-rule="evenodd" clip-rule="evenodd" d="M22.2029 15.6289C22.2271 15.8233 22.2584 16.0171 22.2967 16.2101C22.6103 17.7862 23.3841 19.2339 24.5204 20.3702C25.4689 21.3187 26.6344 22.0147 27.9104 22.4012L26.6795 26.8311C26.5253 27.3824 26.1956 27.8685 25.7402 28.2155C25.2848 28.5625 24.7288 28.7515 24.1563 28.7539H13.3456C12.7714 28.7536 12.2131 28.5656 11.7557 28.2184C11.2984 27.8713 10.9671 27.3841 10.8125 26.8311L6.97563 13.0039H5.01563C4.78356 13.0039 4.561 12.9117 4.39691 12.7476C4.23281 12.5835 4.14062 12.361 4.14062 12.1289C4.14062 11.8968 4.23281 11.6743 4.39691 11.5102C4.561 11.3461 4.78356 11.2539 5.01563 11.2539H7.64063C7.83192 11.2539 8.01796 11.3165 8.17026 11.4323C8.32256 11.548 8.43273 11.7105 8.48391 11.8948L9.52078 15.6289H22.2029ZM11.9184 30.7988C12.2062 30.6065 12.5445 30.5039 12.8906 30.5039C13.3548 30.5039 13.7999 30.6883 14.1281 31.0165C14.4563 31.3447 14.6406 31.7898 14.6406 32.2539C14.6406 32.6 14.538 32.9384 14.3457 33.2262C14.1534 33.5139 13.8801 33.7382 13.5603 33.8707C13.2406 34.0031 12.8887 34.0378 12.5492 33.9703C12.2098 33.9028 11.8979 33.7361 11.6532 33.4913C11.4084 33.2466 11.2418 32.9348 11.1743 32.5953C11.1067 32.2558 11.1414 31.904 11.2738 31.5842C11.4063 31.2644 11.6306 30.9911 11.9184 30.7988ZM23.2934 30.7988C23.5812 30.6065 23.9195 30.5039 24.2656 30.5039C24.7298 30.5039 25.1749 30.6883 25.5031 31.0165C25.8313 31.3447 26.0156 31.7898 26.0156 32.2539C26.0156 32.6 25.913 32.9384 25.7207 33.2262C25.5284 33.5139 25.2551 33.7382 24.9353 33.8707C24.6156 34.0031 24.2637 34.0378 23.9242 33.9703C23.5848 33.9028 23.2729 33.7361 23.0282 33.4913C22.7834 33.2466 22.6168 32.9348 22.5493 32.5953C22.4817 32.2558 22.5164 31.904 22.6488 31.5842C22.7813 31.2644 23.0056 30.9911 23.2934 30.7988Z" fill="white"/>
</g>
<defs>
<filter id="filter0_d_4990_10191" x="20.6094" y="0.625" width="24.25" height="24.25" filterUnits="userSpaceOnUse" color-interpolation-filters="sRGB">
<feFlood flood-opacity="0" result="BackgroundImageFix"/>
<feColorMatrix in="SourceAlpha" type="matrix" values="0 0 0 0 0 0 0 0 0 0 0 0 0 0 0 0 0 0 127 0" result="hardAlpha"/>
<feOffset/>
<feGaussianBlur stdDeviation="2"/>
<feComposite in2="hardAlpha" operator="out"/>
<feColorMatrix type="matrix" values="0 0 0 0 0 0 0 0 0 0 0 0 0 0 0 0 0 0 0.15 0"/>
<feBlend mode="normal" in2="BackgroundImageFix" result="effect1_dropShadow_4990_10191"/>
<feBlend mode="normal" in="SourceGraphic" in2="effect1_dropShadow_4990_10191" result="shape"/>
</filter>
<filter id="filter1_d_4990_10191" x="0.140625" y="7.25391" width="31.7698" height="30.75" filterUnits="userSpaceOnUse" color-interpolation-filters="sRGB">
<feFlood flood-opacity="0" result="BackgroundImageFix"/>
<feColorMatrix in="SourceAlpha" type="matrix" values="0 0 0 0 0 0 0 0 0 0 0 0 0 0 0 0 0 0 127 0" result="hardAlpha"/>
<feOffset/>
<feGaussianBlur stdDeviation="2"/>
<feComposite in2="hardAlpha" operator="out"/>
<feColorMatrix type="matrix" values="0 0 0 0 0 0 0 0 0 0 0 0 0 0 0 0 0 0 0.15 0"/>
<feBlend mode="normal" in2="BackgroundImageFix" result="effect1_dropShadow_4990_10191"/>
<feBlend mode="normal" in="SourceGraphic" in2="effect1_dropShadow_4990_10191" result="shape"/>
</filter>
</defs>
</svg>
