<svg width="47" height="40" viewBox="0 0 47 40" fill="none" xmlns="http://www.w3.org/2000/svg">
<g opacity="0.95" filter="url(#filter0_d_4990_10287)">
<path d="M33.7344 5.625C32.1274 5.625 30.5565 6.10152 29.2204 6.99431C27.8842 7.8871 26.8428 9.15605 26.2279 10.6407C25.6129 12.1253 25.452 13.759 25.7655 15.3351C26.079 16.9112 26.8528 18.3589 27.9891 19.4952C29.1254 20.6315 30.5732 21.4054 32.1493 21.7189C33.7254 22.0324 35.359 21.8715 36.8437 21.2565C38.3283 20.6416 39.5973 19.6002 40.4901 18.264C41.3829 16.9279 41.8594 15.357 41.8594 13.75C41.8567 11.5959 40.9998 9.53088 39.4767 8.00773C37.9535 6.48457 35.8884 5.62769 33.7344 5.625ZM36.8594 14.375H34.3594V16.875C34.3594 17.0408 34.2935 17.1997 34.1763 17.3169C34.0591 17.4342 33.9001 17.5 33.7344 17.5C33.5686 17.5 33.4096 17.4342 33.2924 17.3169C33.1752 17.1997 33.1094 17.0408 33.1094 16.875V14.375H30.6094C30.4436 14.375 30.2846 14.3092 30.1674 14.1919C30.0502 14.0747 29.9844 13.9158 29.9844 13.75C29.9844 13.5842 30.0502 13.4253 30.1674 13.3081C30.2846 13.1908 30.4436 13.125 30.6094 13.125H33.1094V10.625C33.1094 10.4592 33.1752 10.3003 33.2924 10.1831C33.4096 10.0658 33.5686 10 33.7344 10C33.9001 10 34.0591 10.0658 34.1763 10.1831C34.2935 10.3003 34.3594 10.4592 34.3594 10.625V13.125H36.8594C37.0251 13.125 37.1841 13.1908 37.3013 13.3081C37.4185 13.4253 37.4844 13.5842 37.4844 13.75C37.4844 13.9158 37.4185 14.0747 37.3013 14.1919C37.1841 14.3092 37.0251 14.375 36.8594 14.375Z" fill="#1FE371"/>
<path d="M33.735 5.125H33.7344C32.0285 5.125 30.361 5.63085 28.9426 6.57857C27.5242 7.5263 26.4187 8.87334 25.7659 10.4494C25.1131 12.0254 24.9423 13.7596 25.2751 15.4327C25.6079 17.1057 26.4294 18.6426 27.6356 19.8488C28.8418 21.055 30.3786 21.8765 32.0517 22.2093C33.7248 22.5421 35.459 22.3713 37.035 21.7185C38.611 21.0657 39.9581 19.9602 40.9058 18.5418C41.8535 17.1234 42.3594 15.4559 42.3594 13.75V13.7494C42.3565 11.4629 41.447 9.27094 39.8302 7.65417C38.2134 6.03741 36.0215 5.12785 33.735 5.125ZM34.3594 13.875H33.8594V14.375V16.875C33.8594 16.9082 33.8462 16.9399 33.8228 16.9634C33.7993 16.9868 33.7675 17 33.7344 17C33.7012 17 33.6694 16.9868 33.646 16.9634C33.6225 16.9399 33.6094 16.9082 33.6094 16.875V14.375V13.875H33.1094H30.6094C30.5762 13.875 30.5444 13.8618 30.521 13.8384C30.4975 13.8149 30.4844 13.7832 30.4844 13.75C30.4844 13.7168 30.4975 13.6851 30.521 13.6616C30.5444 13.6382 30.5762 13.625 30.6094 13.625H33.1094H33.6094V13.125V10.625C33.6094 10.5918 33.6225 10.5601 33.646 10.5366C33.6694 10.5132 33.7012 10.5 33.7344 10.5C33.7675 10.5 33.7993 10.5132 33.8228 10.5366C33.8462 10.5601 33.8594 10.5918 33.8594 10.625V13.125V13.625H34.3594H36.8594C36.8925 13.625 36.9243 13.6382 36.9478 13.6616C36.9712 13.6851 36.9844 13.7168 36.9844 13.75C36.9844 13.7832 36.9712 13.8149 36.9478 13.8384C36.9243 13.8618 36.8925 13.875 36.8594 13.875H34.3594Z" stroke="black"/>
</g>
<g filter="url(#filter1_d_4990_10287)">
<path fill-rule="evenodd" clip-rule="evenodd" d="M23.2029 16.6289C23.2271 16.8233 23.2584 17.0171 23.2967 17.2101C23.6103 18.7862 24.3841 20.2339 25.5204 21.3702C26.4689 22.3187 27.6344 23.0147 28.9104 23.4012L27.6795 27.8311C27.5253 28.3824 27.1956 28.8685 26.7402 29.2155C26.2848 29.5625 25.7288 29.7515 25.1563 29.7539H14.3456C13.7714 29.7536 13.2131 29.5656 12.7557 29.2184C12.2984 28.8713 11.9671 28.3841 11.8125 27.8311L7.97563 14.0039H6.01563C5.78356 14.0039 5.561 13.9117 5.39691 13.7476C5.23281 13.5835 5.14062 13.361 5.14062 13.1289C5.14062 12.8968 5.23281 12.6743 5.39691 12.5102C5.561 12.3461 5.78356 12.2539 6.01563 12.2539H8.64063C8.83192 12.2539 9.01796 12.3165 9.17026 12.4323C9.32256 12.548 9.43273 12.7105 9.48391 12.8948L10.5208 16.6289H23.2029ZM12.9184 31.7988C13.2062 31.6065 13.5445 31.5039 13.8906 31.5039C14.3548 31.5039 14.7999 31.6883 15.1281 32.0165C15.4563 32.3447 15.6406 32.7898 15.6406 33.2539C15.6406 33.6 15.538 33.9384 15.3457 34.2262C15.1534 34.5139 14.8801 34.7382 14.5603 34.8707C14.2406 35.0031 13.8887 35.0378 13.5492 34.9703C13.2098 34.9028 12.8979 34.7361 12.6532 34.4913C12.4084 34.2466 12.2418 33.9348 12.1743 33.5953C12.1067 33.2558 12.1414 32.904 12.2738 32.5842C12.4063 32.2644 12.6306 31.9911 12.9184 31.7988ZM24.2934 31.7988C24.5812 31.6065 24.9195 31.5039 25.2656 31.5039C25.7298 31.5039 26.1749 31.6883 26.5031 32.0165C26.8313 32.3447 27.0156 32.7898 27.0156 33.2539C27.0156 33.6 26.913 33.9384 26.7207 34.2262C26.5284 34.5139 26.2551 34.7382 25.9353 34.8707C25.6156 35.0031 25.2637 35.0378 24.9242 34.9703C24.5848 34.9028 24.2729 34.7361 24.0282 34.4913C23.7834 34.2466 23.6168 33.9348 23.5493 33.5953C23.4817 33.2558 23.5164 32.904 23.6488 32.5842C23.7813 32.2644 24.0056 31.9911 24.2934 31.7988Z" fill="#1FE371"/>
<path d="M23.2029 16.6289L23.6991 16.5671L23.6445 16.1289H23.2029V16.6289ZM23.2967 17.2101L22.8064 17.3077V17.3077L23.2967 17.2101ZM25.5204 21.3702L25.1668 21.7238V21.7238L25.5204 21.3702ZM28.9104 23.4012L29.3921 23.535L29.5229 23.0642L29.0553 22.9226L28.9104 23.4012ZM27.6795 27.8311L28.1611 27.9658L28.1613 27.9649L27.6795 27.8311ZM26.7402 29.2155L27.0433 29.6132V29.6132L26.7402 29.2155ZM25.1563 29.7539V30.2539L25.1583 30.2539L25.1563 29.7539ZM14.3456 29.7539L14.3454 30.2539H14.3456V29.7539ZM12.7557 29.2184L12.4534 29.6167H12.4534L12.7557 29.2184ZM11.8125 27.8311L11.3307 27.9648L11.331 27.9658L11.8125 27.8311ZM7.97563 14.0039L8.45742 13.8702L8.35577 13.5039H7.97563V14.0039ZM5.39691 13.7476L5.75046 13.3941H5.75046L5.39691 13.7476ZM5.39691 12.5102L5.75046 12.8637H5.75046L5.39691 12.5102ZM8.64063 12.2539V12.7539H8.64072L8.64063 12.2539ZM9.17026 12.4323L8.86771 12.8304L8.86771 12.8304L9.17026 12.4323ZM9.48391 12.8948L9.00213 13.0286L9.00214 13.0286L9.48391 12.8948ZM10.5208 16.6289L10.039 16.7627L10.1407 17.1289H10.5208V16.6289ZM12.9184 31.7988L12.6406 31.3831H12.6406L12.9184 31.7988ZM14.5603 34.8707L14.369 34.4088L14.369 34.4088L14.5603 34.8707ZM13.5492 34.9703L13.6468 34.4799H13.6468L13.5492 34.9703ZM24.2934 31.7988L24.0156 31.3831L24.0156 31.3831L24.2934 31.7988ZM26.7207 34.2262L26.305 33.9484V33.9484L26.7207 34.2262ZM25.9353 34.8707L25.744 34.4088L25.744 34.4088L25.9353 34.8707ZM24.9242 34.9703L25.0218 34.4799H25.0218L24.9242 34.9703ZM24.0282 34.4913L24.3817 34.1378L24.3817 34.1378L24.0282 34.4913ZM23.6488 32.5842L23.1869 32.3929L23.1869 32.3929L23.6488 32.5842ZM22.7067 16.6907C22.7324 16.897 22.7656 17.1028 22.8064 17.3077L23.7871 17.1126C23.7511 16.9314 23.7218 16.7495 23.6991 16.5671L22.7067 16.6907ZM22.8064 17.3077C23.1392 18.9807 23.9606 20.5176 25.1668 21.7238L25.8739 21.0167C24.8076 19.9503 24.0814 18.5917 23.7871 17.1126L22.8064 17.3077ZM25.1668 21.7238C26.1737 22.7307 27.4109 23.4694 28.7655 23.8797L29.0553 22.9226C27.8578 22.5599 26.7641 21.9068 25.8739 21.0167L25.1668 21.7238ZM28.4286 23.2673L27.1978 27.6972L28.1613 27.9649L29.3921 23.535L28.4286 23.2673ZM27.198 27.6964C27.0731 28.143 26.806 28.5367 26.4372 28.8178L27.0433 29.6132C27.5851 29.2002 27.9776 28.6219 28.1611 27.9658L27.198 27.6964ZM26.4372 28.8178C26.0683 29.0988 25.6179 29.252 25.1542 29.2539L25.1583 30.2539C25.8396 30.251 26.5014 30.0261 27.0433 29.6132L26.4372 28.8178ZM25.1563 29.2539H14.3456V30.2539H25.1563V29.2539ZM14.3459 29.2539C13.8808 29.2537 13.4285 29.1014 13.0581 28.8202L12.4534 29.6167C12.9977 30.0298 13.6621 30.2536 14.3454 30.2539L14.3459 29.2539ZM13.0581 28.8202C12.6876 28.539 12.4193 28.1443 12.294 27.6964L11.331 27.9658C11.515 28.6238 11.9092 29.2036 12.4534 29.6167L13.0581 28.8202ZM12.2943 27.6974L8.45742 13.8702L7.49383 14.1376L11.3307 27.9648L12.2943 27.6974ZM7.97563 13.5039H6.01563V14.5039H7.97563V13.5039ZM6.01563 13.5039C5.91617 13.5039 5.82079 13.4644 5.75046 13.3941L5.04335 14.1012C5.30122 14.359 5.65095 14.5039 6.01563 14.5039V13.5039ZM5.75046 13.3941C5.68013 13.3237 5.64062 13.2284 5.64062 13.1289H4.64062C4.64062 13.4936 4.78549 13.8433 5.04335 14.1012L5.75046 13.3941ZM5.64062 13.1289C5.64062 13.0295 5.68013 12.9341 5.75046 12.8637L5.04335 12.1566C4.78549 12.4145 4.64062 12.7642 4.64062 13.1289H5.64062ZM5.75046 12.8637C5.82079 12.7934 5.91617 12.7539 6.01563 12.7539V11.7539C5.65095 11.7539 5.30122 11.8988 5.04335 12.1566L5.75046 12.8637ZM6.01563 12.7539H8.64063V11.7539H6.01563V12.7539ZM8.64072 12.7539C8.72271 12.7539 8.80244 12.7807 8.86771 12.8304L9.47282 12.0342C9.23349 11.8523 8.94114 11.7538 8.64053 11.7539L8.64072 12.7539ZM8.86771 12.8304C8.93298 12.88 8.9802 12.9496 9.00213 13.0286L9.96569 12.7611C9.88527 12.4714 9.71215 12.2161 9.47282 12.0342L8.86771 12.8304ZM9.00214 13.0286L10.039 16.7627L11.0026 16.4951L9.96568 12.7611L9.00214 13.0286ZM10.5208 17.1289H23.2029V16.1289H10.5208V17.1289ZM13.8906 31.0039C13.4456 31.0039 13.0106 31.1359 12.6406 31.3831L13.1962 32.2146C13.4017 32.0772 13.6434 32.0039 13.8906 32.0039V31.0039ZM15.4816 31.6629C15.0597 31.241 14.4874 31.0039 13.8906 31.0039V32.0039C14.2221 32.0039 14.5401 32.1356 14.7745 32.37L15.4816 31.6629ZM16.1406 33.2539C16.1406 32.6572 15.9036 32.0849 15.4816 31.6629L14.7745 32.37C15.0089 32.6044 15.1406 32.9224 15.1406 33.2539H16.1406ZM15.7614 34.5039C16.0087 34.1339 16.1406 33.6989 16.1406 33.2539H15.1406C15.1406 33.5011 15.0673 33.7428 14.93 33.9484L15.7614 34.5039ZM14.7517 35.3326C15.1628 35.1623 15.5142 34.874 15.7614 34.5039L14.93 33.9484C14.7926 34.1539 14.5974 34.3141 14.369 34.4088L14.7517 35.3326ZM13.4517 35.4607C13.8881 35.5475 14.3405 35.5029 14.7517 35.3326L14.369 34.4088C14.1406 34.5034 13.8892 34.5281 13.6468 34.4799L13.4517 35.4607ZM12.2996 34.8449C12.6143 35.1596 13.0152 35.3739 13.4517 35.4607L13.6468 34.4799C13.4043 34.4317 13.1816 34.3126 13.0067 34.1378L12.2996 34.8449ZM11.6839 33.6929C11.7707 34.1293 11.985 34.5302 12.2996 34.8449L13.0067 34.1378C12.8319 33.963 12.7129 33.7402 12.6646 33.4978L11.6839 33.6929ZM11.8119 32.3929C11.6416 32.804 11.597 33.2564 11.6839 33.6929L12.6646 33.4978C12.6164 33.2553 12.6412 33.004 12.7358 32.7756L11.8119 32.3929ZM12.6406 31.3831C12.2706 31.6303 11.9822 31.9817 11.8119 32.3929L12.7358 32.7756C12.8304 32.5471 12.9906 32.3519 13.1962 32.2146L12.6406 31.3831ZM25.2656 31.0039C24.8206 31.0039 24.3856 31.1359 24.0156 31.3831L24.5712 32.2146C24.7767 32.0772 25.0184 32.0039 25.2656 32.0039V31.0039ZM26.8566 31.6629C26.4347 31.241 25.8624 31.0039 25.2656 31.0039V32.0039C25.5971 32.0039 25.9151 32.1356 26.1495 32.37L26.8566 31.6629ZM27.5156 33.2539C27.5156 32.6572 27.2786 32.0849 26.8566 31.6629L26.1495 32.37C26.3839 32.6044 26.5156 32.9224 26.5156 33.2539H27.5156ZM27.1364 34.5039C27.3837 34.1339 27.5156 33.6989 27.5156 33.2539H26.5156C26.5156 33.5011 26.4423 33.7428 26.305 33.9484L27.1364 34.5039ZM26.1267 35.3326C26.5378 35.1623 26.8892 34.8739 27.1364 34.5039L26.305 33.9484C26.1676 34.1539 25.9724 34.3141 25.744 34.4088L26.1267 35.3326ZM24.8267 35.4607C25.2631 35.5475 25.7155 35.5029 26.1267 35.3326L25.744 34.4088C25.5156 34.5034 25.2642 34.5281 25.0218 34.4799L24.8267 35.4607ZM23.6746 34.8449C23.9893 35.1596 24.3902 35.3739 24.8267 35.4607L25.0218 34.4799C24.7793 34.4317 24.5566 34.3126 24.3817 34.1378L23.6746 34.8449ZM23.0589 33.6929C23.1457 34.1293 23.36 34.5302 23.6746 34.8449L24.3817 34.1378C24.2069 33.963 24.0879 33.7402 24.0396 33.4978L23.0589 33.6929ZM23.1869 32.3929C23.0166 32.804 22.972 33.2564 23.0589 33.6929L24.0396 33.4978C23.9914 33.2553 24.0162 33.004 24.1108 32.7755L23.1869 32.3929ZM24.0156 31.3831C23.6456 31.6303 23.3572 31.9817 23.1869 32.3929L24.1108 32.7756C24.2054 32.5471 24.3656 32.3519 24.5712 32.2146L24.0156 31.3831Z" fill="black"/>
</g>
<defs>
<filter id="filter0_d_4990_10287" x="20.6094" y="0.625" width="26.25" height="26.25" filterUnits="userSpaceOnUse" color-interpolation-filters="sRGB">
<feFlood flood-opacity="0" result="BackgroundImageFix"/>
<feColorMatrix in="SourceAlpha" type="matrix" values="0 0 0 0 0 0 0 0 0 0 0 0 0 0 0 0 0 0 127 0" result="hardAlpha"/>
<feOffset/>
<feGaussianBlur stdDeviation="2"/>
<feComposite in2="hardAlpha" operator="out"/>
<feColorMatrix type="matrix" values="0 0 0 0 0 0 0 0 0 0 0 0 0 0 0 0 0 0 0.15 0"/>
<feBlend mode="normal" in2="BackgroundImageFix" result="effect1_dropShadow_4990_10287"/>
<feBlend mode="normal" in="SourceGraphic" in2="effect1_dropShadow_4990_10287" result="shape"/>
</filter>
<filter id="filter1_d_4990_10287" x="0.640625" y="7.75391" width="32.8823" height="31.75" filterUnits="userSpaceOnUse" color-interpolation-filters="sRGB">
<feFlood flood-opacity="0" result="BackgroundImageFix"/>
<feColorMatrix in="SourceAlpha" type="matrix" values="0 0 0 0 0 0 0 0 0 0 0 0 0 0 0 0 0 0 127 0" result="hardAlpha"/>
<feOffset/>
<feGaussianBlur stdDeviation="2"/>
<feComposite in2="hardAlpha" operator="out"/>
<feColorMatrix type="matrix" values="0 0 0 0 0 0 0 0 0 0 0 0 0 0 0 0 0 0 0.15 0"/>
<feBlend mode="normal" in2="BackgroundImageFix" result="effect1_dropShadow_4990_10287"/>
<feBlend mode="normal" in="SourceGraphic" in2="effect1_dropShadow_4990_10287" result="shape"/>
</filter>
</defs>
</svg>
