<svg width="24" height="24" viewBox="0 0 24 24" fill="none" xmlns="http://www.w3.org/2000/svg">
<path d="M3.66179 3.61631L3.56015 3.25H3.18H1.5C1.4337 3.25 1.37011 3.22366 1.32322 3.17678C1.27634 3.12989 1.25 3.0663 1.25 3C1.25 2.9337 1.27634 2.87011 1.32322 2.82322C1.37011 2.77634 1.4337 2.75 1.5 2.75H3.75H3.7501C3.80475 2.74999 3.85791 2.76789 3.90142 2.80096C3.94494 2.83404 3.97641 2.88046 3.99103 2.93313L3.99104 2.93315L4.87979 6.13378L4.98148 6.5H5.36156H21.75H21.7501C21.7886 6.49999 21.8267 6.5089 21.8612 6.52602C21.8957 6.54313 21.9258 6.56801 21.9492 6.59869C21.9725 6.62936 21.9884 6.66502 21.9957 6.70287C22.0029 6.74072 22.0013 6.77974 21.991 6.81687L19.5875 15.4672C19.5875 15.4675 19.5874 15.4677 19.5873 15.4679C19.4844 15.8355 19.2645 16.1594 18.9609 16.3908C18.6574 16.6221 18.2868 16.7482 17.9052 16.75H8.64023C8.64015 16.75 8.64008 16.75 8.64 16.75C8.25702 16.7498 7.88461 16.6243 7.57955 16.3928C7.27452 16.1612 7.05357 15.8363 6.95036 15.4675C6.95033 15.4674 6.9503 15.4673 6.95027 15.4672L3.66179 3.61631ZM7.69443 19.4185L7.41665 19.0028L7.69443 19.4185C7.85888 19.3086 8.05222 19.25 8.25 19.25C8.51522 19.25 8.76957 19.3554 8.95711 19.5429C9.14464 19.7304 9.25 19.9848 9.25 20.25C9.25 20.4478 9.19135 20.6411 9.08147 20.8056L9.4972 21.0834L9.08147 20.8056C8.97159 20.97 8.81541 21.0982 8.63268 21.1739L8.81066 21.6035L8.63268 21.1739C8.44996 21.2496 8.24889 21.2694 8.05491 21.2308C7.86093 21.1922 7.68275 21.097 7.54289 20.9571L7.18934 21.3107L7.54289 20.9571C7.40304 20.8173 7.3078 20.6391 7.26921 20.4451C7.23063 20.2511 7.25043 20.05 7.32612 19.8673C7.40181 19.6846 7.52998 19.5284 7.69443 19.4185ZM17.4444 19.4185C17.6089 19.3086 17.8022 19.25 18 19.25C18.2652 19.25 18.5196 19.3554 18.7071 19.5429C18.8946 19.7304 19 19.9848 19 20.25C19 20.4478 18.9414 20.6411 18.8315 20.8056C18.7216 20.97 18.5654 21.0982 18.3827 21.1739C18.2 21.2496 17.9989 21.2694 17.8049 21.2308C17.6109 21.1922 17.4327 21.097 17.2929 20.9571C17.153 20.8173 17.0578 20.6391 17.0192 20.4451C16.9806 20.2511 17.0004 20.05 17.0761 19.8673C17.1518 19.6846 17.28 19.5284 17.4444 19.4185Z" fill="#1FE371" stroke="black"/>
</svg>
