<svg width="14" height="19" viewBox="0 0 14 19" fill="none" xmlns="http://www.w3.org/2000/svg">
<path d="M7.26497 14.71L6.99998 14.5445L6.735 14.7101L1.1325 18.2116C1.09466 18.2353 1.05119 18.2484 1.0066 18.2495C0.961995 18.2507 0.91789 18.2399 0.878862 18.2183C0.839834 18.1967 0.807302 18.165 0.784643 18.1266C0.761984 18.0882 0.750022 18.0444 0.75 17.9998L0.75 1.5C0.75 1.23478 0.855357 0.980429 1.04289 0.792893C1.23043 0.605357 1.48478 0.5 1.75 0.5H12.25C12.5152 0.5 12.7696 0.605357 12.9571 0.792893L13.3107 0.43934L12.9571 0.792894C13.1446 0.98043 13.25 1.23478 13.25 1.5V17.9994C13.2499 18.0439 13.238 18.0877 13.2153 18.1261C13.1927 18.1644 13.1602 18.1961 13.1212 18.2177L13.3636 18.655L13.1212 18.2177C13.0822 18.2393 13.0382 18.2501 12.9936 18.249C12.9491 18.2478 12.9056 18.2348 12.8678 18.2112L7.26497 14.71Z" fill="#1FE371" stroke="black"/>
</svg>
