<svg width="16" height="16" viewBox="0 0 16 16" fill="none" xmlns="http://www.w3.org/2000/svg">
<rect width="16" height="16" rx="4" fill="#28A957"/>
<path d="M12.8828 4.68319L6.48307 11.0829C6.44592 11.1201 6.40181 11.1496 6.35325 11.1697C6.30469 11.1899 6.25264 11.2002 6.20008 11.2002C6.14752 11.2002 6.09547 11.1899 6.04691 11.1697C5.99835 11.1496 5.95424 11.1201 5.91709 11.0829L3.11722 8.28303C3.04216 8.20798 3 8.10618 3 8.00004C3 7.8939 3.04216 7.79211 3.11722 7.71706C3.19227 7.642 3.29406 7.59984 3.4002 7.59984C3.50635 7.59984 3.60814 7.642 3.68319 7.71706L6.20008 10.2344L12.3168 4.11722C12.3919 4.04216 12.4937 4 12.5998 4C12.7059 4 12.8077 4.04216 12.8828 4.11722C12.9578 4.19227 13 4.29406 13 4.4002C13 4.50635 12.9578 4.60814 12.8828 4.68319Z" fill="white"/>
</svg>
