<svg width="20" height="20" viewBox="0 0 20 20" fill="none" xmlns="http://www.w3.org/2000/svg">
<path d="M9.99999 0.25C8.31668 0.249633 6.66195 0.685083 5.19685 1.51396C3.73176 2.34285 2.50622 3.53692 1.63953 4.97997C0.772833 6.42301 0.294506 8.06587 0.251106 9.74862C0.207705 11.4314 0.60071 13.0967 1.39187 14.5825L0.327804 17.7747C0.239665 18.039 0.226874 18.3226 0.290865 18.5938C0.354856 18.8649 0.4931 19.1129 0.690103 19.3099C0.887105 19.5069 1.13508 19.6451 1.40624 19.7091C1.67739 19.7731 1.96101 19.7603 2.2253 19.6722L5.41749 18.6081C6.72509 19.3036 8.17394 19.6921 9.65408 19.744C11.1342 19.7959 12.6067 19.51 13.9599 18.9079C15.313 18.3057 16.5112 17.4033 17.4634 16.269C18.4157 15.1346 19.097 13.7983 19.4557 12.3613C19.8144 10.9244 19.841 9.42456 19.5336 7.97578C19.2261 6.52701 18.5926 5.16732 17.6811 3.99992C16.7697 2.83253 15.6043 1.88811 14.2734 1.23836C12.9425 0.588614 11.481 0.250608 9.99999 0.25ZM9.99999 18.25C8.54966 18.251 7.12477 17.8691 5.86937 17.1428C5.77745 17.0895 5.67526 17.0563 5.56955 17.0455C5.46385 17.0347 5.35706 17.0464 5.25624 17.08L1.74999 18.25L2.91905 14.7438C2.95275 14.643 2.96466 14.5362 2.954 14.4305C2.94333 14.3248 2.91033 14.2226 2.85718 14.1306C1.94778 12.5584 1.58266 10.7299 1.81846 8.92896C2.05426 7.12801 2.8778 5.4552 4.16132 4.17006C5.44485 2.88491 7.11661 2.05925 8.91727 1.82118C10.7179 1.5831 12.5468 1.94591 14.1202 2.85333C15.6937 3.76074 16.9236 5.16204 17.6194 6.83983C18.3151 8.51762 18.4377 10.3781 17.9682 12.1327C17.4987 13.8873 16.4632 15.4379 15.0225 16.5439C13.5818 17.65 11.8163 18.2497 9.99999 18.25Z" fill="#525252"/>
</svg>
