<?xml version="1.0" encoding="UTF-8"?>
<svg id="Layer_1" xmlns="http://www.w3.org/2000/svg" viewBox="0 0 512 477.51">
  <defs>
    <style>
      .cls-1 {
        fill: #fff;
      }
    </style>
  </defs>
  <path class="cls-1" d="M137.28,28.79C180.38,6.57,229.72-3.26,278.03.95c47.22,3.88,93.26,21.2,131.25,49.52,36.2,26.75,65.17,63.24,82.76,104.71,13.74,32.23,20.66,67.37,19.91,102.4-.08,49.04-16.95,98.34-49.16,135.61-33.82,39.68-82.06,65.18-132.5,76.61,9.04-10.23,16.04-22.1,21.05-34.79,9.83-2.13,19.32-5.73,27.96-10.9-14.39-15.12-28.58-30.44-42.67-45.82-17.53,21.38-39.31,38.87-61.78,54.81,10.17,2.18,20.53,3.3,30.81,4.8-16.5,21.26-41.91,33.46-67.66,39.4-3.98.6-7.97-.24-11.93-.51-43.22-3.7-86.13-15.93-123.35-38.52-36.04-21.64-66.1-53.66-83.48-92.07C1.73,308.33-2.93,265.48,1.65,224.27c2.45-20.72,7.38-41.17,14.92-60.64,1.44-3.52.88-7.39.94-11.1-.04-25.66.03-51.33-.04-76.99-4.85-2.45-9.31-5.96-11.85-10.88-4.99-8.84-3.48-20.78,3.63-28.06,6.54-7.22,17.69-9.6,26.66-5.82,9.69,3.76,16.12,14.33,14.92,24.68-.59,7.21-4.8,13.72-10.62,17.86.07,14.48-.39,29,.21,43.46,11.18-17.34,24.61-33.19,39.59-47.38,24.31,14.14,48.59,28.32,72.98,42.33-12.65,14.6-21.66,32.06-27.41,50.44,17.27,11.09,29.63,28.76,36.18,48.04,8.98,26.49,7.97,56.34-3.27,82.01-8.07,18.42-21.91,34.85-40.27,43.63-15.5,7.61-34.07,8.6-50.32,2.78-16.95-6.09-31.12-18.79-40.28-34.16-.89-1.29-1.86-2.5-2.91-3.64,6.73,20.53,19.29,39.85,37.91,51.42,16.74,10.74,38.47,13.35,57.18,6.5,20.69-7.38,36.58-24.64,45.76-44.21,26.3,25.17,59.89,41.97,95.13,50.5,34.8,8.64,71.21,8.47,106.59,3.9,28.9-4.1,58.56-13.15,80.3-33.52,17.03-15.74,27.07-37.84,30.92-60.49,3.59-20.57,3.05-41.65.66-62.33-3.28-27.33-10.8-54.45-24.59-78.42-10.66-18.66-25.23-35.09-42.58-47.78-29.03-21.29-65.03-31.58-100.72-33.04-34.48-1.14-69.68,3.51-101.45,17.42-24.28-13.82-48.28-28.14-72.56-41.98ZM71.18,164.21c-16.68,4.39-29.75,17.53-37.45,32.55-11.86,23.26-12.99,51.58-3.64,75.9,5.32,13.72,14.31,26.41,26.86,34.37,10.62,6.81,23.95,9.63,36.32,6.65,15.07-3.36,27.57-14.1,35.64-26.95,13.38-21.36,16.42-48.36,10.08-72.56-4.49-16.83-13.98-32.98-28.64-42.84-11.28-7.73-25.88-10.8-39.16-7.11Z"/>
  <path class="cls-1" d="M97.48,54.32c6.01-4.43,12.05-8.8,18.28-12.9,23.5,14.1,47.61,27.25,70.96,41.58-6.38,3.6-12.15,8.16-17.79,12.82-23.79-13.88-47.62-27.7-71.45-41.5Z"/>
  <path class="cls-1" d="M246.75,76.17c6.57-.74,14.72-1.22,19.43,4.36,4.75,5.72.7,15.19-6.48,16.36-21.62,4.96-44.68,7.51-63.6,20.12-17.25,11.83-32.43,27.14-42.49,45.61-.74,3.16-5.41,1.04-3.88-1.56,5.9-17.99,15.43-34.89,28.24-48.88,17.78-19.55,42.49-32.77,68.78-36.01Z"/>
  <path class="cls-1" d="M254.6,191.8c8.62-1.91,17.91,1.68,23.38,8.5,6.69,8.23,8.82,19.07,9.48,29.4.56,10.82-.81,22.34-7.09,31.5-4.93,7.42-12.95,13.98-22.33,13.52-10.61-.25-19.03-8.76-23-18-5.93-13.94-6.02-30.2-.84-44.36,3.5-9.23,10.32-18.28,20.4-20.56Z"/>
  <path class="cls-1" d="M416.75,194.38c5.85-1.94,12.3.76,15.98,5.48,5.72,7.23,7.54,16.66,8.32,25.62.78,11.91.56,24.63-5.52,35.28-3.18,5.65-8.27,11.48-15.25,11.68-8.39-.44-13.87-8.2-16.62-15.39-5.23-14.32-5.19-30.45-.78-45,2.45-7.1,6.38-14.88,13.87-17.67Z"/>
</svg>