<svg width="120" height="25" viewBox="0 0 120 25" fill="none" xmlns="http://www.w3.org/2000/svg">
<g clip-path="url(#clip0_142_1269)">
<path d="M39.9229 15.7158V18.9123C39.267 19.2197 38.5776 19.45 37.8686 19.5985C37.0407 19.762 36.1979 19.8377 35.3541 19.8244C34.1721 19.8577 32.9995 19.6054 31.9358 19.089C31.0119 18.6246 30.2531 17.8874 29.7623 16.9772C29.237 15.9513 28.9784 14.8096 29.0105 13.6574C28.9889 12.7069 29.1609 11.762 29.5158 10.88C29.8122 10.1464 30.2661 9.48694 30.8455 8.94809C31.4248 8.40923 32.1154 8.00419 32.8684 7.76158C33.6489 7.50313 34.4663 7.37405 35.2884 7.37947C36.2485 7.34069 37.202 7.55462 38.0535 7.99988C38.7705 8.39942 39.345 9.0127 39.6969 9.75425C40.0928 10.6274 40.304 11.573 40.3173 12.5317L31.0689 15.3461L30.5964 14.019L38.6986 10.9786L37.2359 12.5769C37.2492 12.2663 37.1947 11.9566 37.0762 11.6692C36.9577 11.3819 36.7781 11.1238 36.5498 10.9129C36.0908 10.5557 35.5203 10.3724 34.9392 10.3952C34.4104 10.3723 33.8846 10.484 33.4108 10.7198C33.0218 10.9353 32.7133 11.2712 32.5315 11.6771C32.3202 12.1898 32.2207 12.7417 32.2398 13.2959C32.2247 13.9139 32.3438 14.5279 32.5891 15.0954C32.8097 15.5946 33.1897 16.0064 33.6696 16.2664C34.2422 16.559 34.88 16.7005 35.5226 16.6772C37.0426 16.6879 38.5459 16.3595 39.9229 15.7158Z" fill="#42E184"/>
<path d="M45.2148 11.3975C45.2143 11.5599 45.2744 11.7166 45.3832 11.8371C45.5337 11.985 45.7209 12.0899 45.9256 12.1411C46.223 12.2243 46.5267 12.2834 46.8336 12.3178C47.7161 12.3994 48.5878 12.5729 49.4343 12.8355C50.0836 13.0275 50.6678 13.3942 51.123 13.8955C51.5475 14.4481 51.759 15.135 51.7187 15.8307C51.7472 16.638 51.4929 17.43 50.9997 18.0698C50.5036 18.6719 49.849 19.1231 49.1097 19.3723C48.307 19.6524 47.4619 19.7914 46.6117 19.7831C45.8018 19.7898 44.9926 19.7321 44.1917 19.6106C43.4882 19.5024 42.7924 19.3487 42.1087 19.1504V15.8882C42.6223 16.0525 43.0989 16.1963 43.5508 16.299C44.0318 16.4245 44.5204 16.5192 45.0135 16.5825C45.6176 16.6526 46.2254 16.6856 46.8336 16.6811C47.2888 16.7207 47.7459 16.6309 48.1524 16.4223C48.2611 16.3592 48.3521 16.2696 48.4167 16.1618C48.4814 16.054 48.5177 15.9316 48.5222 15.806C48.5289 15.6448 48.473 15.4873 48.3661 15.3664C48.2277 15.2349 48.0622 15.1353 47.8813 15.0747C47.6147 14.9778 47.3395 14.9063 47.0595 14.861C46.3443 14.7874 45.6347 14.6667 44.9354 14.4995C44.3887 14.3738 43.8619 14.1733 43.37 13.9037C42.9531 13.6764 42.616 13.3264 42.4045 12.9012C42.1781 12.4157 42.0697 11.8836 42.0881 11.3482C42.0662 10.7307 42.208 10.1183 42.499 9.57325C42.7796 9.07848 43.1721 8.65633 43.6453 8.34067C44.1424 8.01216 44.6909 7.76913 45.2682 7.62166C45.8772 7.46291 46.5041 7.38284 47.1335 7.38337C47.8571 7.37669 48.5799 7.43028 49.2946 7.5436C49.888 7.63781 50.4693 7.79625 51.0285 8.0161V11.3441C50.4549 11.0725 49.8546 10.8618 49.2371 10.7154C48.4298 10.5235 47.6017 10.4325 46.7719 10.4443C46.3565 10.4124 45.9401 10.4948 45.5681 10.6826C45.4488 10.7573 45.3526 10.8637 45.2902 10.99C45.2278 11.1162 45.2017 11.2573 45.2148 11.3975Z" fill="#42E184"/>
<path d="M56.1689 7.63789H60.5117V10.9453H52.656V9.01017L54.2091 8.08984L56.5715 4.918H57.496L57.4261 8.98963V14.7417C57.4135 15.0807 57.4636 15.4192 57.574 15.7401C57.6158 15.8554 57.6829 15.9599 57.7703 16.0459C57.8578 16.132 57.9634 16.1973 58.0794 16.2372C58.3707 16.3264 58.6745 16.3681 58.9792 16.3605C59.2549 16.3596 59.5299 16.3334 59.8009 16.2824C60.0844 16.229 60.3268 16.1879 60.5199 16.1591V19.446C60.1943 19.5503 59.8602 19.6259 59.5215 19.672C59.0999 19.7347 58.6741 19.7649 58.2478 19.7624C57.4624 19.7815 56.6812 19.6417 55.9511 19.3515C55.307 19.0733 54.7868 18.5691 54.4885 17.9341C54.1288 17.1004 53.967 16.1947 54.016 15.2881L54.0612 9.90995L56.1689 7.63789Z" fill="#42E184"/>
<path d="M66.293 10.9003L66.4532 19.5654H62.7555V10.6086L62.6445 7.6381H65.6356L66.293 10.9003ZM69.962 7.50252V11.2824C69.3978 11.2809 68.8341 11.3111 68.2733 11.3728C67.812 11.424 67.3567 11.5189 66.9134 11.6563C66.5708 11.7552 66.2473 11.9108 65.9561 12.1165L65.5082 11.3523C65.7135 10.8199 65.9608 10.3047 66.2478 9.81155C66.5017 9.37412 66.7961 8.96146 67.127 8.57897C67.4214 8.23609 67.7766 7.95054 68.1747 7.7367C68.5539 7.53445 68.9775 7.42995 69.4073 7.43267C69.4689 7.43267 69.5552 7.43267 69.6785 7.43267L69.962 7.50252Z" fill="#42E184"/>
<path d="M82.0893 15.7157V18.9122C81.4334 19.2196 80.744 19.4499 80.035 19.5984C79.2097 19.7726 78.3682 19.8594 77.5247 19.8572C76.3426 19.8907 75.17 19.6385 74.1063 19.1218C73.1748 18.654 72.4112 17.9091 71.9205 16.9894C71.3952 15.9635 71.1367 14.8218 71.1687 13.6696C71.1471 12.7192 71.3191 11.7742 71.674 10.8922C71.9704 10.1587 72.4243 9.49916 73.0037 8.96031C73.583 8.42146 74.2736 8.01641 75.0266 7.77381C75.807 7.51506 76.6245 7.38597 77.4466 7.3917C78.4317 7.35182 79.4116 7.55205 80.3021 7.97512C81.0246 8.35216 81.6024 8.95736 81.9455 9.69663C82.3274 10.5729 82.5112 11.5227 82.4838 12.4781C82.4838 12.7164 82.4838 12.9671 82.4509 13.23C82.418 13.493 82.4016 13.76 82.3728 14.0312L72.3807 13.9408L72.4053 12.6795L81.4443 12.3878L79.4187 13.0616C79.4974 12.546 79.4276 12.0187 79.2174 11.5414C79.0404 11.1771 78.7528 10.878 78.3957 10.6868C77.9886 10.4911 77.5407 10.3953 77.0892 10.4074C76.5565 10.3851 76.0268 10.4967 75.5484 10.732C75.1527 10.9485 74.8426 11.2934 74.6692 11.7098C74.4661 12.2332 74.371 12.7922 74.3898 13.3533C74.3758 13.9646 74.495 14.5716 74.739 15.1323C74.9586 15.6308 75.3372 16.0426 75.8155 16.3033C76.3904 16.5934 77.0289 16.7346 77.6726 16.7141C78.4673 16.7176 79.2599 16.6308 80.035 16.4553C80.7495 16.3008 81.4403 16.0521 82.0893 15.7157Z" fill="#42E184"/>
<path d="M88.1431 10.4527L88.2992 19.5656H84.7V10.1363L84.5645 2.84766H88.1431V10.4527Z" fill="#42E184"/>
<path d="M94.305 10.4527L94.4652 19.5656H90.8619V10.1363L90.7305 2.84766H94.305V10.4527Z" fill="#42E184"/>
<path d="M105.062 15.4931L105.67 16.9763C105.382 17.2762 105.078 17.5967 104.746 17.9336C104.415 18.2724 104.058 18.5842 103.677 18.8663C103.297 19.15 102.883 19.3846 102.445 19.5647C101.808 19.7994 101.126 19.8844 100.451 19.8131C99.7766 19.7419 99.1274 19.5163 98.5538 19.1538C97.8485 18.6477 97.3106 17.9424 97.009 17.1283C96.6247 16.0762 96.4421 14.9611 96.4708 13.8414C96.4226 12.5872 96.6688 11.3391 97.1898 10.1971C97.6143 9.31393 98.2923 8.57728 99.1373 8.08117C99.9413 7.62088 100.853 7.38134 101.779 7.38681C102.335 7.385 102.889 7.46387 103.423 7.62099C103.923 7.76744 104.403 7.97585 104.852 8.24139C105.245 8.4664 105.592 8.76327 105.875 9.11653L105.74 11.1215C105.279 10.9943 104.809 10.9037 104.335 10.8504C103.79 10.7787 103.241 10.7417 102.691 10.7394C102.114 10.7137 101.539 10.8368 101.023 11.0969C100.614 11.3264 100.291 11.6826 100.103 12.1117C99.9011 12.5725 99.8016 13.0715 99.8111 13.5744C99.8 14.0809 99.8879 14.5847 100.07 15.0576C100.238 15.4714 100.524 15.8269 100.892 16.0806C101.355 16.373 101.897 16.5164 102.445 16.4915C102.722 16.4925 102.998 16.4579 103.266 16.3888C103.507 16.3193 103.742 16.2313 103.969 16.1258C104.175 16.0409 104.375 15.9435 104.569 15.8341C104.741 15.7315 104.905 15.6175 105.062 15.4931ZM108.053 11.1051L108.168 19.5647H105.243L104.61 16.2326V8.56187L107.852 7.45665L108.143 7.63743L108.053 11.1051Z" fill="#42E184"/>
<path d="M113.5 11.3975C113.498 11.5601 113.558 11.7175 113.668 11.8371C113.817 11.985 114.003 12.09 114.206 12.1411C114.505 12.2247 114.81 12.2838 115.119 12.3178C116.001 12.3999 116.873 12.5734 117.719 12.8355C118.367 13.0282 118.95 13.3949 119.404 13.8955C119.83 14.447 120.042 15.1347 120 15.8307C120.03 16.6383 119.776 17.431 119.281 18.0699C118.785 18.6727 118.13 19.1241 117.391 19.3723C116.588 19.6528 115.743 19.7918 114.893 19.7831C114.084 19.7899 113.276 19.7322 112.477 19.6106C111.773 19.5028 111.077 19.3491 110.394 19.1504V15.8882C110.903 16.0525 111.384 16.1963 111.832 16.299C112.313 16.4238 112.801 16.5184 113.294 16.5825C113.9 16.6527 114.509 16.6857 115.119 16.6811C115.572 16.7203 116.028 16.6306 116.433 16.4223C116.543 16.36 116.635 16.2707 116.7 16.1628C116.766 16.0549 116.803 15.9321 116.807 15.806C116.811 15.7258 116.799 15.6456 116.771 15.5702C116.744 15.4947 116.701 15.4254 116.647 15.3664C116.511 15.2334 116.347 15.1336 116.166 15.0747C115.899 14.9784 115.624 14.9068 115.345 14.861C114.628 14.7874 113.917 14.6666 113.216 14.4995C112.671 14.3738 112.145 14.1734 111.655 13.9037C111.237 13.6766 110.898 13.3267 110.685 12.9012C110.459 12.3721 110.352 11.7996 110.371 11.2244C110.391 10.6492 110.538 10.0854 110.8 9.57325C111.081 9.07848 111.474 8.65633 111.947 8.34067C112.442 8.01196 112.989 7.76891 113.566 7.62166C114.176 7.46284 114.804 7.38276 115.435 7.38337C116.157 7.37667 116.879 7.43027 117.592 7.5436C118.185 7.63724 118.767 7.79569 119.326 8.0161V11.3441C118.748 11.0822 118.145 10.8811 117.526 10.7442C116.719 10.5529 115.891 10.4618 115.061 10.473C114.646 10.4416 114.229 10.524 113.857 10.7113C113.742 10.7836 113.648 10.8852 113.585 11.0058C113.522 11.1264 113.493 11.2616 113.5 11.3975Z" fill="#42E184"/>
<path d="M22.779 7.99164L16.5667 1.77942C16.0036 1.21591 15.3349 0.768905 14.5989 0.46392C13.8629 0.158935 13.074 0.00195312 12.2773 0.00195312C11.4807 0.00195312 10.6918 0.158935 9.95582 0.46392C9.21983 0.768905 8.55115 1.21591 7.98798 1.77942L1.77576 7.99164C0.638709 9.12955 0 10.6724 0 12.281C0 13.8897 0.638709 15.4325 1.77576 16.5704L7.98798 22.7826C9.12589 23.9197 10.6687 24.5584 12.2773 24.5584C13.886 24.5584 15.4288 23.9197 16.5667 22.7826L22.779 16.5704C23.3425 16.0072 23.7895 15.3385 24.0944 14.6026C24.3994 13.8666 24.5564 13.0777 24.5564 12.281C24.5564 11.4843 24.3994 10.6955 24.0944 9.95947C23.7895 9.22348 23.3425 8.55481 22.779 7.99164ZM20.5973 10.7362L18.0047 13.6122C17.889 13.7411 17.8017 13.893 17.7486 14.058C17.6955 14.2229 17.6778 14.3972 17.6966 14.5695L18.1075 18.4111C18.132 18.6276 18.0987 18.8468 18.0109 19.0463C17.9232 19.2457 17.7841 19.4184 17.6078 19.5466C17.4316 19.6748 17.2245 19.754 17.0077 19.7761C16.7909 19.7982 16.5721 19.7624 16.3736 19.6724L12.8485 18.0947C12.6896 18.0233 12.5173 17.9863 12.3431 17.9863C12.1689 17.9863 11.9966 18.0233 11.8377 18.0947L11.1557 18.3987L10.675 18.6165C10.3627 18.7603 9.98886 18.937 9.85328 19.0273C6.86632 20.8105 3.83829 17.4496 7.6634 13.5259C5.15715 16.1349 6.9978 19.2122 8.87133 18.6206C8.51223 18.4294 8.2113 18.1449 8.00018 17.7972C7.78906 17.4494 7.67556 17.0512 7.67161 16.6444C7.67161 14.5901 9.08086 12.3796 11.7021 12.2153V14.3517C11.7028 14.4466 11.7313 14.5392 11.7841 14.6181C11.837 14.6969 11.9117 14.7585 11.9992 14.7952C12.0867 14.832 12.183 14.8423 12.2763 14.8248C12.3696 14.8073 12.4556 14.7628 12.5239 14.6969L15.7245 11.5867C15.7728 11.5386 15.8105 11.4809 15.8353 11.4174C15.86 11.3539 15.8712 11.2859 15.8681 11.2178C15.865 11.1497 15.8477 11.083 15.8173 11.022C15.7869 10.961 15.7441 10.907 15.6916 10.8635L12.491 8.25869C12.42 8.20154 12.3344 8.16555 12.2439 8.15485C12.1534 8.14415 12.0617 8.15918 11.9793 8.19821C11.897 8.23724 11.8273 8.2987 11.7783 8.37553C11.7292 8.45235 11.7029 8.54145 11.7021 8.63258V9.47484C12.4517 9.73512 13.0896 10.244 13.5099 10.917C12.9561 10.5577 12.3446 10.2964 11.7021 10.1445C11.1955 10.052 10.6802 10.0148 10.1655 10.0336C8.35631 10.1027 6.64462 10.8717 5.39134 12.1783C4.97495 12.6017 4.61079 13.0734 4.30666 13.5834C4.49502 12.9828 4.77947 12.4167 5.14893 11.9071L4.10123 10.7444C3.95023 10.5839 3.84501 10.3858 3.79656 10.1708C3.7481 9.95585 3.75818 9.7318 3.82572 9.52203C3.89327 9.31226 4.01583 9.12443 4.18062 8.97811C4.34542 8.83179 4.54643 8.73234 4.76272 8.69009L8.54263 7.89302C8.71368 7.85821 8.87539 7.78748 9.01705 7.68549C9.15871 7.58349 9.27709 7.45256 9.36435 7.30138L11.2913 3.95287C11.3991 3.76416 11.5549 3.60729 11.7428 3.49819C11.9308 3.38909 12.1443 3.33163 12.3616 3.33163C12.5789 3.33163 12.7924 3.38909 12.9803 3.49819C13.1683 3.60729 13.3241 3.76416 13.4319 3.95287L15.3588 7.30138C15.4461 7.45256 15.5644 7.58349 15.7061 7.68549C15.8478 7.78748 16.0095 7.85821 16.1805 7.89302L19.9604 8.69009C20.1731 8.73661 20.3697 8.83865 20.5302 8.98581C20.6907 9.13298 20.8093 9.32002 20.874 9.52791C20.9387 9.7358 20.9472 9.95712 20.8986 10.1694C20.85 10.3816 20.746 10.5772 20.5973 10.7362Z" fill="#42E184"/>
</g>
<defs>
<clipPath id="clip0_142_1269">
<rect width="120" height="24.5571" fill="white"/>
</clipPath>
</defs>
</svg>
