<?xml version="1.0" encoding="UTF-8"?>
<svg id="Layer_1" xmlns="http://www.w3.org/2000/svg" viewBox="0 0 611.41 104">
  <defs>
    <style>
      .cls-1 {
        fill: #00e278;
      }
    </style>
  </defs>
  <path class="cls-1" d="M50.92,0h2.17c6.45.44,12.76,2.97,17.28,7.68,8.98,9.03,18.07,17.95,26.97,27.06,9.02,9.45,8.8,25.88-.43,35.11-8.77,8.9-17.66,17.68-26.48,26.53-4.45,4.6-10.62,7.28-17,7.62h-3.12c-6-.46-11.83-2.87-16.11-7.14-7.4-7.29-14.7-14.69-22.06-22.02-3.19-3.19-6.62-6.27-8.84-10.25-2.02-3.47-2.82-7.47-3.3-11.4v-2.19c.47-6.7,3.31-13.17,8.22-17.8,8.7-8.65,17.33-17.39,26.07-26.01C38.69,2.76,44.77.49,50.92,0ZM46.72,11.81c-3.44.92-3.73,4.86-4.08,7.78-2.27.93-4.53,1.88-6.76,2.89-2.38-1.53-5.14-4.51-8.19-2.79-3.13,2.1-5.95,4.84-8.04,7.99-1.69,3.05,1.22,5.81,2.83,8.14-1.01,2.24-1.96,4.51-2.87,6.79-2.75.43-6.28.57-7.6,3.53-.8,3.53-.59,7.26-.22,10.85.75,3.62,4.89,3.96,7.87,4.35.7,1.85,1.4,3.69,2.11,5.54,3.53-2.67,7.14-5.22,10.75-7.77.12-5.17-4.65-7.81-7.24-11.62-1.5-1.83-.28-4.73,1.76-5.53,4.66-1.64,9.83-1.47,14.35-3.55,3.5-3.73,4.91-8.92,8.16-12.85,1.24-1.47,3.64-1.52,4.93-.08,3.3,3.91,4.71,9.13,8.2,12.88,4.46,2.15,9.64,1.95,14.29,3.54,1.82.71,3.16,3.02,2.27,4.9-2.77,4.53-7.47,7.61-10.06,12.25-.11,4.98,1.23,9.87,1.17,14.84-.28,2.33-2.98,3.94-5.14,2.95-4.49-1.67-8.72-3.93-13.15-5.73-3.91,1.78-7.92,3.33-11.76,5.26-2.14,1.05-3.17,3.35-4.57,5.15,2.29.97,4.6,1.9,6.92,2.82.3,2.94.67,6.82,4.05,7.81,3.46.6,7.08.57,10.56.05,3.48-.91,3.94-4.85,4.21-7.85,2.27-.91,4.53-1.85,6.77-2.84,2.34,1.51,5.04,4.37,8.05,2.76,3.18-2.02,6-4.78,8.11-7.91,1.79-3.04-1.23-5.82-2.75-8.21,1-2.24,1.93-4.51,2.82-6.8,2.89-.43,6.86-.67,7.8-4.08.53-3.47.51-7.07.02-10.55-.92-3.43-4.93-3.7-7.83-4.14-.88-2.28-1.81-4.53-2.81-6.75,1.56-2.35,4.5-5.08,2.81-8.12-2.07-3.2-4.94-5.97-8.13-8.07-3.04-1.6-5.73,1.33-8.1,2.84-2.23-1.02-4.5-1.97-6.77-2.91-.29-2.96-.66-6.92-4.15-7.78-3.49-.5-7.11-.51-10.59.02ZM37.19,46.11c-3.49,3.74-3.83,9.21-2.55,13.94-4.01,2.95-8.14,5.7-12.13,8.67-2,1.48-3.68,3.66-3.85,6.23-.54,4.34,3.02,8.54,7.28,9.12,2.97.48,6.09-.86,7.86-3.27,3.18-4.1,5.97-8.49,9.08-12.64,8,3.13,17.92-2.65,18.67-11.31.05-2.25.75-6.56-2.59-6.46-2.48,1.82-4.21,4.53-6.91,6.04-3.29,1.32-6.9-2.6-5.44-5.76,1.79-2.83,4.48-4.95,6.57-7.54-4.78-4.18-12.29-1.36-15.99,2.98Z"/>
  <path class="cls-1" d="M160.19,11.59c6.07,0,12.14-.01,18.21.01.03,23.47,0,46.93.01,70.4-5.75,0-11.5,0-17.26-.01.04-1.59.08-3.18.12-4.78-9.43,9.19-26.4,6.9-34.49-2.99-7.22-8.57-7.78-21.59-2.98-31.45,6.34-12.88,25.39-17.44,36.46-8.05-.16-7.71-.04-15.42-.07-23.13ZM145.29,45.18c-6.95,3.37-7.75,13.37-3.73,19.26,3.99,5.71,13.88,5.29,17.19-.9,2.67-5.11,2.51-12.33-1.75-16.55-2.98-3.07-7.91-3.23-11.71-1.81Z"/>
  <path class="cls-1" d="M286.6,11.6c6.07-.02,12.14-.01,18.22-.01-.02,7.83.02,15.66-.03,23.49,7.4-6.01,18.4-7,26.8-2.59,6.33,3.34,9.63,10.59,9.77,17.53.14,10.66,0,21.32.05,31.98-6.01,0-12.01,0-18.02-.01,0-8.36.03-16.71,0-25.07-.11-3.32-.17-7.11-2.65-9.64-4.31-3.82-12.18-2.26-14.58,3.03-1.33,2.68-1.38,5.74-1.38,8.66.04,7.68.02,15.35.03,23.03h-18.23c.01-23.47-.02-46.93.01-70.4Z"/>
  <path class="cls-1" d="M347.6,11.6c6.07-.02,12.14-.01,18.22-.01-.04,7.72.07,15.44-.07,23.16,10.12-8.46,27.04-5.78,34.57,4.89,5.21,7.05,5.97,16.52,4.02,24.85-2.07,8.45-8.96,15.48-17.41,17.59-7.51,1.79-16.3,1.02-21.98-4.73l.06,4.65h-17.42c.01-23.47-.02-46.93.01-70.4ZM371.37,45.39c-6.6,3.39-7.43,13-3.58,18.76,3.44,5.4,12.18,5.79,16.24.91,3.73-4.62,4.02-11.75.65-16.64-2.89-4.15-8.9-5.14-13.31-3.03Z"/>
  <path class="cls-1" d="M593.19,11.59c6.06,0,12.14-.01,18.21.01.03,23.47,0,46.93.01,70.4-5.75,0-11.51,0-17.26-.01.03-1.59.07-3.19.12-4.78-9.06,8.85-25.21,7.06-33.54-1.94-6.97-7.11-8.31-18.13-5.91-27.45,2.11-8.16,8.77-14.87,16.89-17.07,7.27-1.85,15.74-1.25,21.55,3.97-.16-7.71-.04-15.42-.07-23.13ZM578.3,45.18c-6.96,3.37-7.76,13.39-3.73,19.28,4.16,5.94,14.57,5.14,17.54-1.57,2.21-5.06,2.02-11.89-2.13-15.93-2.98-3.04-7.9-3.19-11.68-1.78Z"/>
  <path class="cls-1" d="M183.86,35.7c10.37-6.01,23.29-7.5,34.78-4.23,7.86,2.27,13.69,9.62,14.06,17.8.29,10.91.02,21.82.12,32.73h-16.83c.01-1.96.03-3.91.06-5.87-2.47,3.18-5.83,5.74-9.9,6.36-6.22.88-13.15.63-18.4-3.25-7.66-5.27-8.24-18.48-.23-23.71,8.18-5.15,18.3-3.67,27.48-4-.81-2.7-1.91-5.75-4.81-6.8-6.79-2.53-14.38-.4-20.32,3.3-1.85-4.18-3.95-8.25-6.01-12.33ZM202.06,62.01c-3.43,1.24-3.64,6.76-.43,8.36,4.27,2.39,10.66.72,12.7-3.88.37-1.8.26-3.66.35-5.48-4.21.03-8.58-.39-12.62,1Z"/>
  <path class="cls-1" d="M240.73,36.74c4.78-4.92,11.86-6.63,18.5-6.88,7.79-.25,15.87.63,22.89,4.24-1.8,4.15-3.67,8.26-5.41,12.42-5.9-3.21-12.83-4.51-19.47-3.41-1.79.35-4.16,1.79-3.56,3.95,1.31,1.84,3.73,2.17,5.78,2.63,6.62,1.15,13.92,1.22,19.55,5.37,7,5.32,6.19,17.15-.68,22.24-6.27,4.98-14.63,5.91-22.37,5.52-7.08-.12-14.09-1.95-20.42-5.1,1.82-4.17,3.62-8.35,5.46-12.52,6.77,3.48,14.63,5.65,22.25,4.36,2.18-.09,3.28-1.96,4.3-3.61-4.16-3.33-9.71-2.85-14.64-3.89-5.39-.91-11.37-2.55-14.45-7.49-3.11-5.59-2.36-13.28,2.27-17.83Z"/>
  <path class="cls-1" d="M426.42,30.64c10.46-2.23,22.59-.32,30.2,7.71,10.78,10.74,8.8,31.02-3.97,39.36-12.68,8.4-32.22,6.93-41.91-5.4-5.39-6.61-6.11-15.83-4.2-23.87,2.57-9.09,10.76-15.91,19.88-17.8ZM431.47,44.67c-8.42,2.34-10.03,14.45-4.62,20.43,3.74,4.52,11.51,4.48,15.37.13,3.92-4.67,4-12.04.63-17.04-2.48-3.63-7.35-4.46-11.38-3.52Z"/>
  <path class="cls-1" d="M464.92,35.55c9.52-5.3,20.91-6.94,31.58-4.92,5.54,1.1,10.88,4.06,14.03,8.85,2.31,3.72,3.32,8.15,3.29,12.51,0,10-.02,20,0,30.01h-16.83c.01-1.96.02-3.91.06-5.87-2.46,3.17-5.81,5.72-9.86,6.35-6,.84-12.63.69-17.83-2.82-5.76-3.58-7.99-11.41-5.75-17.67,1.22-4.13,4.9-7.06,8.85-8.44,7.55-2.71,15.68-1.77,23.54-2.02-.81-2.69-1.9-5.73-4.78-6.79-6.79-2.55-14.4-.41-20.34,3.29-1.88-4.22-4.07-8.28-5.96-12.48ZM483.09,62c-3.42,1.19-3.69,6.67-.53,8.33,4.27,2.46,10.71.78,12.77-3.84.37-1.8.26-3.66.35-5.48-4.2.03-8.55-.38-12.59.99Z"/>
  <path class="cls-1" d="M537.96,36.36c4.4-4.71,10.78-6.5,17.05-6.75-.01,5.43-.03,10.86.01,16.3-4.26-.24-9.03-.27-12.49,2.63-3.09,2.5-3.76,6.75-3.74,10.5.02,7.65.03,15.3.03,22.96h-18.23c.01-17.14-.02-34.27.01-51.4,5.8-.02,11.61-.01,17.41-.01-.02,1.92-.03,3.85-.05,5.77Z"/>
  <path class="cls-1" d="M23.86,75.82c.99-.93,1.86-2.06,3.14-2.62,1.3.6,2.23,1.56,2.8,2.88-.78,1.11-1.67,2.13-2.55,3.15-.55-.32-1.64-.96-2.19-1.28-.3-.53-.9-1.6-1.2-2.13Z"/>
</svg>