<svg width="24" height="24" viewBox="0 0 24 24" fill="none" xmlns="http://www.w3.org/2000/svg">
<path d="M11.6213 20.4686L11.6184 20.4702C11.582 20.4898 11.5413 20.5 11.5 20.5C11.4587 20.5 11.418 20.4898 11.3816 20.4702L11.3787 20.4686C11.1884 20.3678 8.68984 19.0056 6.24641 16.8653C3.77671 14.7019 1.50014 11.8621 1.5 8.81414C1.50166 7.40522 2.06196 6.0545 3.05796 5.05827C4.05395 4.06205 5.40429 3.50166 6.81277 3.5C8.60243 3.50008 10.1445 4.26738 11.1001 5.54038L11.5 6.07308L11.8999 5.54038C12.8555 4.26738 14.3976 3.50008 16.1872 3.5C17.5957 3.50166 18.9461 4.06205 19.942 5.05827C20.9381 6.05457 21.4984 7.40541 21.5 8.81443C21.4997 11.8623 19.2232 14.702 16.7536 16.8653C14.3102 19.0056 11.8116 20.3678 11.6213 20.4686Z" fill="#1FE371" stroke="black"/>
</svg>
