<svg width="28" height="28" viewBox="0 0 28 28" fill="none" xmlns="http://www.w3.org/2000/svg">
<g clip-path="url(#clip0_2321_19424)">
<g filter="url(#filter0_d_2321_19424)">
<path d="M26.25 11.1562C26.25 18.8125 14.898 25.0097 14.4145 25.2656C14.2871 25.3342 14.1447 25.37 14 25.37C13.8553 25.37 13.7129 25.3342 13.5855 25.2656C13.102 25.0097 1.75 18.8125 1.75 11.1562C1.75203 9.35837 2.46713 7.63471 3.73842 6.36342C5.00971 5.09213 6.73337 4.37703 8.53125 4.375C10.7898 4.375 12.7673 5.34625 14 6.98797C15.2327 5.34625 17.2102 4.375 19.4688 4.375C21.2666 4.37703 22.9903 5.09213 24.2616 6.36342C25.5329 7.63471 26.248 9.35837 26.25 11.1562Z" fill="#F9F9F9"/>
</g>
</g>
<defs>
<filter id="filter0_d_2321_19424" x="-2.25" y="0.375" width="32.5" height="28.9951" filterUnits="userSpaceOnUse" color-interpolation-filters="sRGB">
<feFlood flood-opacity="0" result="BackgroundImageFix"/>
<feColorMatrix in="SourceAlpha" type="matrix" values="0 0 0 0 0 0 0 0 0 0 0 0 0 0 0 0 0 0 127 0" result="hardAlpha"/>
<feOffset/>
<feGaussianBlur stdDeviation="2"/>
<feComposite in2="hardAlpha" operator="out"/>
<feColorMatrix type="matrix" values="0 0 0 0 0 0 0 0 0 0 0 0 0 0 0 0 0 0 0.15 0"/>
<feBlend mode="normal" in2="BackgroundImageFix" result="effect1_dropShadow_2321_19424"/>
<feBlend mode="normal" in="SourceGraphic" in2="effect1_dropShadow_2321_19424" result="shape"/>
</filter>
<clipPath id="clip0_2321_19424">
<rect width="28" height="28" fill="white"/>
</clipPath>
</defs>
</svg>
