<svg id="Capa_1" enable-background="new 0 0 512 512" height="512" viewBox="0 0 512 512" width="512" xmlns="http://www.w3.org/2000/svg"><g><g><g><g><path d="m434.662 496.062h-25.523c-4.259 0-7.711-3.452-7.711-7.711s3.452-7.711 7.711-7.711h25.523c4.259 0 7.711 3.452 7.711 7.711-.001 4.259-3.452 7.711-7.711 7.711zm-66.361 0h-25.523c-4.259 0-7.711-3.452-7.711-7.711s3.452-7.711 7.711-7.711h25.523c4.259 0 7.711 3.452 7.711 7.711s-3.452 7.711-7.711 7.711zm-66.36 0h-25.524c-4.259 0-7.711-3.452-7.711-7.711s3.452-7.711 7.711-7.711h25.524c4.259 0 7.711 3.452 7.711 7.711s-3.452 7.711-7.711 7.711zm-66.36 0h-25.523c-4.259 0-7.711-3.452-7.711-7.711s3.452-7.711 7.711-7.711h25.523c4.259 0 7.711 3.452 7.711 7.711-.001 4.259-3.452 7.711-7.711 7.711zm-66.361 0h-25.523c-4.259 0-7.711-3.452-7.711-7.711s3.452-7.711 7.711-7.711h25.523c4.259 0 7.711 3.452 7.711 7.711s-3.452 7.711-7.711 7.711zm-66.36 0h-25.524c-4.259 0-7.711-3.452-7.711-7.711s3.452-7.711 7.711-7.711h25.524c4.259 0 7.711 3.452 7.711 7.711s-3.452 7.711-7.711 7.711z" fill="#7ca1b1"/></g><g><path d="m23.649 442.374c-4.259 0-7.711-3.452-7.711-7.711v-25.523c0-4.259 3.452-7.711 7.711-7.711s7.711 3.452 7.711 7.711v25.523c0 4.259-3.452 7.711-7.711 7.711zm0-66.361c-4.259 0-7.711-3.452-7.711-7.711v-25.523c0-4.259 3.452-7.711 7.711-7.711s7.711 3.452 7.711 7.711v25.523c0 4.259-3.452 7.711-7.711 7.711zm0-66.36c-4.259 0-7.711-3.452-7.711-7.711v-25.524c0-4.259 3.452-7.711 7.711-7.711s7.711 3.452 7.711 7.711v25.524c0 4.259-3.452 7.711-7.711 7.711zm0-66.361c-4.259 0-7.711-3.452-7.711-7.711v-25.523c0-4.259 3.452-7.711 7.711-7.711s7.711 3.452 7.711 7.711v25.523c0 4.26-3.452 7.711-7.711 7.711zm0-66.359c-4.259 0-7.711-3.452-7.711-7.711v-25.524c0-4.259 3.452-7.711 7.711-7.711s7.711 3.452 7.711 7.711v25.524c0 4.259-3.452 7.711-7.711 7.711zm0-66.361c-4.259 0-7.711-3.452-7.711-7.711v-25.524c0-4.259 3.452-7.711 7.711-7.711s7.711 3.452 7.711 7.711v25.524c0 4.259-3.452 7.711-7.711 7.711z" fill="#7ca1b1"/></g><g><path d="m434.663 31.36h-25.524c-4.259 0-7.711-3.452-7.711-7.711s3.452-7.711 7.711-7.711h25.524c4.259 0 7.711 3.452 7.711 7.711s-3.452 7.711-7.711 7.711zm-66.361 0h-25.523c-4.259 0-7.711-3.452-7.711-7.711s3.452-7.711 7.711-7.711h25.523c4.259 0 7.711 3.452 7.711 7.711s-3.452 7.711-7.711 7.711zm-66.361 0h-25.523c-4.259 0-7.711-3.452-7.711-7.711s3.452-7.711 7.711-7.711h25.523c4.259 0 7.711 3.452 7.711 7.711s-3.452 7.711-7.711 7.711zm-66.359 0h-25.524c-4.259 0-7.711-3.452-7.711-7.711s3.452-7.711 7.711-7.711h25.524c4.259 0 7.711 3.452 7.711 7.711s-3.452 7.711-7.711 7.711zm-66.361 0h-25.523c-4.259 0-7.711-3.452-7.711-7.711s3.452-7.711 7.711-7.711h25.523c4.259 0 7.711 3.452 7.711 7.711s-3.452 7.711-7.711 7.711zm-66.361 0h-25.523c-4.259 0-7.711-3.452-7.711-7.711s3.452-7.711 7.711-7.711h25.523c4.259 0 7.711 3.452 7.711 7.711s-3.452 7.711-7.711 7.711z" fill="#7ca1b1"/></g><g><path d="m488.351 442.374c-4.259 0-7.711-3.452-7.711-7.711v-25.524c0-4.259 3.452-7.711 7.711-7.711s7.711 3.452 7.711 7.711v25.524c0 4.259-3.452 7.711-7.711 7.711zm0-66.361c-4.259 0-7.711-3.452-7.711-7.711v-25.524c0-4.259 3.452-7.711 7.711-7.711s7.711 3.452 7.711 7.711v25.524c0 4.259-3.452 7.711-7.711 7.711zm0-66.361c-4.259 0-7.711-3.452-7.711-7.711v-25.523c0-4.259 3.452-7.711 7.711-7.711s7.711 3.452 7.711 7.711v25.523c0 4.259-3.452 7.711-7.711 7.711zm0-66.36c-4.259 0-7.711-3.452-7.711-7.711v-25.524c0-4.259 3.452-7.711 7.711-7.711s7.711 3.452 7.711 7.711v25.524c0 4.26-3.452 7.711-7.711 7.711zm0-66.36c-4.259 0-7.711-3.452-7.711-7.711v-25.523c0-4.259 3.452-7.711 7.711-7.711s7.711 3.452 7.711 7.711v25.523c0 4.259-3.452 7.711-7.711 7.711zm0-66.361c-4.259 0-7.711-3.452-7.711-7.711v-25.523c0-4.259 3.452-7.711 7.711-7.711s7.711 3.452 7.711 7.711v25.523c0 4.259-3.452 7.711-7.711 7.711z" fill="#7ca1b1"/></g></g><g fill="#7ca1b1"><g><circle cx="487.37" cy="24.42" r="24.42"/><circle cx="24.629" cy="24.42" r="24.42"/></g><g><circle cx="487.37" cy="487.58" r="24.42"/><circle cx="24.629" cy="487.58" r="24.42"/></g></g><g fill="#678d98"><g><path d="m511.791 24.42c0 13.489-10.939 24.417-24.417 24.417-10.816 0-19.986-7.022-23.194-16.768 3.537 2.005 7.628 3.146 11.977 3.146 13.489 0 24.417-10.939 24.417-24.417 0-2.673-.432-5.243-1.234-7.649 7.434 4.174 12.451 12.131 12.451 21.271z"/><path d="m49.053 24.42c0 13.489-10.939 24.417-24.428 24.417-10.805 0-19.986-7.022-23.184-16.768 3.537 2.005 7.618 3.146 11.967 3.146 13.489 0 24.428-10.939 24.428-24.417 0-2.673-.432-5.243-1.234-7.649 7.434 4.174 12.451 12.131 12.451 21.271z"/></g><g><path d="m511.791 487.58c0 13.489-10.939 24.417-24.417 24.417-10.816 0-19.986-7.022-23.194-16.768 3.537 2.005 7.628 3.146 11.977 3.146 13.489 0 24.417-10.929 24.417-24.417 0-2.673-.432-5.243-1.234-7.649 7.434 4.174 12.451 12.131 12.451 21.271z"/><path d="m49.053 487.58c0 13.489-10.939 24.417-24.428 24.417-10.805 0-19.986-7.022-23.184-16.768 3.537 2.005 7.618 3.146 11.967 3.146 13.489 0 24.428-10.929 24.428-24.417 0-2.673-.432-5.243-1.234-7.649 7.434 4.174 12.451 12.131 12.451 21.271z"/></g></g></g><g><path d="m432.131 443.267h-352.265c-10.863 0-19.669-8.806-19.669-19.669v-335.196c0-10.863 8.806-19.669 19.669-19.669h352.265c10.863 0 19.669 8.806 19.669 19.669v335.196c0 10.863-8.806 19.669-19.669 19.669z" fill="#deecf1"/><path d="m451.801 88.4v335.2c0 10.86-8.812 19.662-19.672 19.662h-28.777c10.86 0 19.662-8.801 19.662-19.662v-335.2c0-10.86-8.801-19.662-19.662-19.662h28.777c10.86 0 19.672 8.801 19.672 19.662z" fill="#cbe5e8"/><path d="m225.72 287.615 93.47-53.396c12.046-6.881 26.903-6.563 38.643.828l93.967 59.158v129.393c0 10.863-8.806 19.669-19.669 19.669h-206.411z" fill="#a6e7f0"/><path d="m451.801 294.207v129.393c0 10.86-8.812 19.662-19.672 19.662h-28.777c10.86 0 19.662-8.801 19.662-19.662v-147.516z" fill="#6bd9e7"/><path d="m60.198 256 83.128-45.887c13.104-7.233 29.252-5.996 41.101 3.149l162.428 125.361c11.457 8.842 18.167 22.497 18.167 36.969v67.675h-285.156c-10.863 0-19.669-8.806-19.669-19.669v-167.598z" fill="#03bed7"/><path d="m365.026 352.639v90.623h-37.426v-54.759c0-15.099-7-29.344-18.953-38.569l-161.643-124.749c-5.224-4.032-11.272-6.525-17.537-7.425l13.863-7.652c13.104-7.229 29.243-5.994 41.101 3.154z" fill="#07b2cd"/><circle cx="361.409" cy="145.724" fill="#fea613" r="38.566"/><path d="m399.97 145.726c0 21.298-17.266 38.564-38.564 38.564-17.407 0-32.126-11.543-36.917-27.39 6.612 5.333 15.033 8.519 24.181 8.519 21.298 0 38.564-17.266 38.564-38.564 0-3.88-.574-7.63-1.637-11.164 8.77 7.068 14.373 17.896 14.373 30.035z" fill="#fb8801"/></g></g></svg>