<svg width="32" height="32" viewBox="0 0 32 32" fill="none" xmlns="http://www.w3.org/2000/svg">
<g filter="url(#filter0_d_2321_19417)">
<path d="M16 4.625C13.7502 4.625 11.551 5.29213 9.68039 6.54203C7.80978 7.79193 6.35182 9.56847 5.49088 11.647C4.62993 13.7255 4.40467 16.0126 4.84357 18.2192C5.28248 20.4257 6.36584 22.4525 7.95667 24.0433C9.54749 25.6342 11.5743 26.7175 13.7809 27.1564C15.9874 27.5953 18.2745 27.3701 20.353 26.5091C22.4315 25.6482 24.2081 24.1902 25.458 22.3196C26.7079 20.449 27.375 18.2498 27.375 16C27.3718 12.9841 26.1724 10.0927 24.0398 7.96018C21.9073 5.82764 19.0159 4.62818 16 4.625ZM15.5625 9.875C15.8221 9.875 16.0759 9.95198 16.2917 10.0962C16.5075 10.2404 16.6758 10.4454 16.7751 10.6852C16.8744 10.9251 16.9004 11.189 16.8498 11.4436C16.7991 11.6982 16.6741 11.932 16.4906 12.1156C16.307 12.2991 16.0732 12.4241 15.8186 12.4748C15.564 12.5254 15.3001 12.4994 15.0602 12.4001C14.8204 12.3008 14.6154 12.1325 14.4712 11.9167C14.327 11.7008 14.25 11.4471 14.25 11.1875C14.25 10.8394 14.3883 10.5056 14.6344 10.2594C14.8806 10.0133 15.2144 9.875 15.5625 9.875ZM16.875 22.125C16.4109 22.125 15.9658 21.9406 15.6376 21.6124C15.3094 21.2842 15.125 20.8391 15.125 20.375V16C14.8929 16 14.6704 15.9078 14.5063 15.7437C14.3422 15.5796 14.25 15.3571 14.25 15.125C14.25 14.8929 14.3422 14.6704 14.5063 14.5063C14.6704 14.3422 14.8929 14.25 15.125 14.25C15.5891 14.25 16.0343 14.4344 16.3624 14.7626C16.6906 15.0908 16.875 15.5359 16.875 16V20.375C17.1071 20.375 17.3296 20.4672 17.4937 20.6313C17.6578 20.7954 17.75 21.0179 17.75 21.25C17.75 21.4821 17.6578 21.7046 17.4937 21.8687C17.3296 22.0328 17.1071 22.125 16.875 22.125Z" fill="white" fill-opacity="0.95" shape-rendering="crispEdges"/>
</g>
<defs>
<filter id="filter0_d_2321_19417" x="0.625" y="0.625" width="30.75" height="30.75" filterUnits="userSpaceOnUse" color-interpolation-filters="sRGB">
<feFlood flood-opacity="0" result="BackgroundImageFix"/>
<feColorMatrix in="SourceAlpha" type="matrix" values="0 0 0 0 0 0 0 0 0 0 0 0 0 0 0 0 0 0 127 0" result="hardAlpha"/>
<feOffset/>
<feGaussianBlur stdDeviation="2"/>
<feComposite in2="hardAlpha" operator="out"/>
<feColorMatrix type="matrix" values="0 0 0 0 0 0 0 0 0 0 0 0 0 0 0 0 0 0 0.15 0"/>
<feBlend mode="normal" in2="BackgroundImageFix" result="effect1_dropShadow_2321_19417"/>
<feBlend mode="normal" in="SourceGraphic" in2="effect1_dropShadow_2321_19417" result="shape"/>
</filter>
</defs>
</svg>
