<svg width="82" height="56" viewBox="0 0 82 56" fill="none" xmlns="http://www.w3.org/2000/svg">
<path d="M77.9368 16.0124L65.4868 3.56575C64.3577 2.43535 63.0168 1.5386 61.5409 0.92676C60.0649 0.314922 58.4828 0 56.8851 0C55.2874 0 53.7053 0.314922 52.2293 0.92676C50.7534 1.5386 49.4125 2.43535 48.2834 3.56575L35.8333 16.0175C34.7035 17.1466 33.8071 18.4872 33.1956 19.9628C32.584 21.4385 32.2693 23.0202 32.2693 24.6175C32.2693 26.2148 32.584 27.7965 33.1956 29.2721C33.8071 30.7478 34.7035 32.0884 35.8333 33.2175L48.2834 45.6642C50.5648 47.9446 53.6585 49.2256 56.8843 49.2256C60.11 49.2256 63.2037 47.9446 65.4851 45.6642L77.9352 33.2125C79.0652 32.0835 79.9616 30.7429 80.5733 29.2673C81.185 27.7918 81.4999 26.2101 81.5001 24.6128C81.5002 23.0154 81.1856 21.4337 80.5742 19.958C79.9628 18.4823 79.0666 17.1416 77.9368 16.0124ZM73.5617 21.5189L68.3693 27.2602C68.1353 27.5188 67.9587 27.8241 67.851 28.1558C67.7433 28.4876 67.707 28.8384 67.7445 29.1852L68.5685 36.8835C68.615 37.3168 68.5463 37.7548 68.3694 38.1532C68.1925 38.5515 67.9136 38.8961 67.5609 39.1522C67.2082 39.4083 66.7942 39.5668 66.3606 39.6117C65.9271 39.6566 65.4894 39.5863 65.0917 39.4079L58.0249 36.2452C57.7061 36.103 57.3609 36.0295 57.0117 36.0295C56.6626 36.0295 56.3174 36.103 55.9986 36.2452L54.6325 36.8581C54.6325 36.8581 54.1952 37.054 53.6683 37.2972C53.0435 37.5842 52.2938 37.9388 52 38.1145C46.0088 41.6909 39.9366 34.9568 47.6096 27.0879C42.581 32.3226 46.2756 38.4876 50.0311 37.3006C49.3114 36.9184 48.7082 36.3492 48.285 35.6529C47.8618 34.9565 47.6343 34.159 47.6265 33.3442C47.6265 29.1885 50.4465 24.7897 55.7031 24.4588V28.7427C55.7033 28.9332 55.7596 29.1193 55.865 29.2779C55.9703 29.4365 56.1201 29.5606 56.2955 29.6346C56.4709 29.7086 56.6643 29.7294 56.8514 29.6942C57.0386 29.659 57.2112 29.5694 57.3478 29.4368L63.7644 23.2008C63.8623 23.1053 63.9389 22.9901 63.9892 22.863C64.0395 22.7358 64.0624 22.5995 64.0563 22.4628C64.0503 22.3262 64.0154 22.1924 63.9541 22.0702C63.8927 21.948 63.8062 21.8401 63.7003 21.7536L57.2836 16.519C57.1415 16.403 56.9694 16.3297 56.7873 16.3076C56.6052 16.2855 56.4205 16.3156 56.2548 16.3943C56.0891 16.473 55.9492 16.5971 55.8512 16.7522C55.7532 16.9073 55.7013 17.087 55.7014 17.2704V18.959C57.2031 19.4806 58.4808 20.5008 59.3217 21.8499C57.8628 20.9684 56.7517 20.5243 55.7014 20.3014C54.7034 20.0904 53.7595 20.0769 52.6248 20.0769C48.9984 20.2212 45.5683 21.7623 43.0521 24.3777C42.7144 24.7154 41.5577 25.9515 40.8772 27.1994C41.253 25.9952 41.8234 24.8607 42.5658 23.8407L40.4652 21.5189C40.1727 21.1958 39.9707 20.8012 39.8795 20.375C39.7883 19.9488 39.8112 19.506 39.9459 19.0915C40.0805 18.677 40.3221 18.3053 40.6463 18.014C40.9706 17.7227 41.3659 17.5222 41.7924 17.4325L49.3691 15.8368C49.7096 15.7657 50.0312 15.6237 50.3131 15.42C50.595 15.2163 50.8309 14.9556 51.0054 14.6548L54.8689 7.93415C55.086 7.55635 55.3989 7.24249 55.776 7.02423C56.1531 6.80598 56.5811 6.69105 57.0168 6.69105C57.4525 6.69105 57.8805 6.80598 58.2576 7.02423C58.6348 7.24249 58.9476 7.55635 59.1647 7.93415L63.0232 14.648C63.1977 14.9491 63.4338 15.21 63.7161 15.4137C63.9983 15.6174 64.3203 15.7592 64.6611 15.83L72.2378 17.4258C72.665 17.5156 73.0609 17.7168 73.3855 18.0088C73.71 18.3008 73.9516 18.6733 74.086 19.0887C74.2203 19.504 74.2426 19.9475 74.1505 20.3743C74.0585 20.801 73.8553 21.1959 73.5617 21.5189Z" fill="#42E083"/>
<path d="M11.7593 30.9198C12.4041 28.9354 15.2114 28.9354 15.8562 30.9198L17.469 35.8837C17.7574 36.7711 18.5844 37.372 19.5175 37.372H24.7368C26.8233 37.372 27.6908 40.0419 26.0028 41.2683L21.7803 44.3362C21.0254 44.8846 20.7095 45.8568 20.9978 46.7443L22.6107 51.7082C23.2555 53.6925 20.9843 55.3427 19.2963 54.1162L15.0737 51.0484C14.3188 50.4999 13.2966 50.4999 12.5417 51.0484L8.31917 54.1162C6.63117 55.3426 4.35998 53.6925 5.00474 51.7082L6.61761 46.7443C6.90596 45.8568 6.59008 44.8846 5.83518 44.3362L1.61262 41.2683C-0.0753746 40.0419 0.792141 37.372 2.87862 37.372H8.09799C9.0311 37.372 9.85808 36.7711 10.1464 35.8837L11.7593 30.9198Z" fill="#42E083"/>
<path d="M15.2124 5.14646C15.7387 3.52658 18.0305 3.52658 18.5568 5.14646L19.2531 7.28949C19.4885 8.01393 20.1636 8.50441 20.9253 8.50441H23.1786C24.8818 8.50441 25.59 10.6839 24.2121 11.6851L22.3891 13.0096C21.7729 13.4573 21.515 14.2509 21.7504 14.9753L22.4467 17.1184C22.973 18.7382 21.119 20.0853 19.741 19.0841L17.9181 17.7597C17.3018 17.3119 16.4674 17.3119 15.8511 17.7597L14.0282 19.0841C12.6502 20.0853 10.7962 18.7382 11.3225 17.1184L12.0188 14.9753C12.2542 14.2509 11.9963 13.4573 11.3801 13.0096L9.55713 11.6851C8.17917 10.684 8.88735 8.50441 10.5906 8.50441H12.8439C13.6056 8.50441 14.2807 8.01393 14.5161 7.28949L15.2124 5.14646Z" fill="#42E083"/>
</svg>
