<svg width="80" height="80" viewBox="0 0 80 80" fill="none" xmlns="http://www.w3.org/2000/svg">
<path d="M74.2098 26.0202L53.9785 5.79434C52.1436 3.95745 49.9647 2.50022 47.5663 1.50599C45.1679 0.511749 42.597 0 40.0007 0C37.4044 0 34.8335 0.511749 32.4351 1.50599C30.0367 2.50022 27.8578 3.95745 26.0229 5.79434L5.7916 26.0284C3.95552 27.8631 2.49899 30.0417 1.50524 32.4396C0.511489 34.8375 0 37.4078 0 40.0034C0 42.5991 0.511489 45.1693 1.50524 47.5672C2.49899 49.9651 3.95552 52.1437 5.7916 53.9785L26.0229 74.2043C29.7303 77.9099 34.7575 79.9916 39.9993 79.9916C45.2411 79.9916 50.2684 77.9099 53.9757 74.2043L74.207 53.9703C76.0433 52.1357 77.5 49.9572 78.494 47.5594C79.488 45.1616 79.9997 42.5914 80 39.9958C80.0003 37.4001 79.489 34.8298 78.4955 32.4318C77.502 30.0338 76.0457 27.8551 74.2098 26.0202ZM67.1002 34.9683L58.6624 44.2978C58.2823 44.7181 57.9953 45.2141 57.8203 45.7532C57.6453 46.2923 57.5863 46.8624 57.6472 47.4259L58.9862 59.9356C59.0618 60.6399 58.9502 61.3516 58.6627 61.9989C58.3752 62.6462 57.922 63.2062 57.3489 63.6223C56.7757 64.0385 56.103 64.296 55.3984 64.369C54.6939 64.442 53.9826 64.3277 53.3364 64.0379L41.8529 58.8984C41.3348 58.6673 40.7738 58.5479 40.2065 58.5479C39.6392 58.5479 39.0782 58.6673 38.5601 58.8984L36.3402 59.8945C36.3402 59.8945 35.6296 60.2128 34.7734 60.6079C33.7582 61.0744 32.5398 61.6506 32.0624 61.936C22.3268 67.7477 12.4595 56.8048 24.9281 44.0179C16.7565 52.5242 22.7603 62.5424 28.8629 60.6134C27.6935 59.9924 26.7133 59.0674 26.0256 57.9359C25.3379 56.8044 24.9682 55.5083 24.9555 54.1843C24.9555 47.4314 29.5379 40.2833 38.0799 39.7455V46.707C38.0803 47.0164 38.1718 47.3188 38.343 47.5766C38.5142 47.8343 38.7575 48.0359 39.0426 48.1562C39.3277 48.2765 39.6419 48.3102 39.946 48.253C40.2501 48.1958 40.5306 48.0504 40.7525 47.8347L51.1796 37.7012C51.3387 37.546 51.4632 37.359 51.5449 37.1523C51.6266 36.9457 51.6638 36.7241 51.654 36.5021C51.6441 36.2801 51.5875 36.0627 51.4878 35.8641C51.3881 35.6655 51.2475 35.4902 51.0754 35.3497L40.6483 26.8434C40.4174 26.6548 40.1377 26.5357 39.8418 26.4998C39.5458 26.464 39.2458 26.5128 38.9765 26.6407C38.7072 26.7686 38.4798 26.9702 38.3206 27.2223C38.1614 27.4743 38.077 27.7663 38.0772 28.0644V30.8084C40.5174 31.656 42.5937 33.3139 43.9602 35.5061C41.5895 34.0737 39.7839 33.352 38.0772 32.9898C36.4555 32.6468 34.9216 32.6249 33.0777 32.6249C27.1848 32.8594 21.6109 35.3637 17.5221 39.6138C16.9733 40.1626 15.0937 42.1712 13.9878 44.199C14.5986 42.2422 15.5255 40.3986 16.7318 38.7412L13.3183 34.9683C12.8431 34.4431 12.5148 33.8019 12.3666 33.1093C12.2185 32.4167 12.2557 31.6973 12.4744 31.0237C12.6932 30.3501 13.0859 29.7461 13.6127 29.2728C14.1396 28.7995 14.782 28.4735 15.4751 28.3278L27.7873 25.7348C28.3405 25.6192 28.8631 25.3884 29.3212 25.0575C29.7794 24.7266 30.1627 24.3029 30.4462 23.814L36.7244 12.893C37.0771 12.2791 37.5855 11.769 38.1984 11.4144C38.8112 11.0597 39.5067 10.873 40.2147 10.873C40.9228 10.873 41.6183 11.0597 42.2311 11.4144C42.8439 11.769 43.3523 12.2791 43.7051 12.893L49.975 23.803C50.2587 24.2923 50.6424 24.7163 51.101 25.0472C51.5597 25.3782 52.0829 25.6088 52.6367 25.7238L64.9489 28.3169C65.6431 28.4629 66.2864 28.7897 66.8138 29.2642C67.3411 29.7387 67.7338 30.3441 67.9522 31.0191C68.1705 31.6941 68.2067 32.4147 68.057 33.1082C67.9074 33.8017 67.5773 34.4433 67.1002 34.9683Z" fill="#42E083"/>
</svg>
