<svg xmlns="http://www.w3.org/2000/svg" viewBox="0 0 707.91 735.54"><defs><style>.cls-1{fill:#fefefe;}</style></defs><g id="Capa_2" data-name="Capa 2"><g id="Capa_3" data-name="Capa 3"><path class="cls-1" d="M676.21,304.43c-26-29.71-60.87-42.3-99.17-46.47-21.22-2.3-42.55-.88-63.84-.83-1.25.59-2.81-.07-3.94,1a12.7,12.7,0,0,0-2.45,5.38q-10.87,38.67-21.62,77.36c-7.06,25.65-14,51.34-21,77-1.76,6.42-2.24,6.76-9,6.8q-11.23.06-22.47,0c-6.12,0-6.35-.34-5-6.24,4-17.5,8.16-35,12.25-52.46q13.31-56.82,26.55-113.66c.91-3.94,2.77-5.49,6.86-5.41,10.48.19,21,0,31.45.07,3.21,0,6.31-.28,9.14-2,7.22-6.38,14.42-12.8,21-19.87,25.93-27.88,44.67-59.41,49.36-97.93,4.25-34.82-7.32-64.2-32-88.43-19.27-18.88-43.51-28.19-69.5-33.45C445.54-2.22,408-.76,370.6,3.62c-42.8,5-84.82,14.26-126.44,25.24C162.6,50.37,83,78.1,3,104.64c-3.34,1.11-3.49,2.27-2.48,5.24C9.36,135.81,18,161.8,26.71,187.77l96.84,289.17Q166,603.85,208.4,730.81c1.67,5,3.39,5.54,8.2,3.9,38.13-13,76.48-25.45,114.58-38.59,63.63-21.94,125.65-47.67,184.47-80.63,47.63-26.68,92.44-57.18,130.16-97.11,24.68-26.13,45.23-55,55.56-89.88C714.88,382.86,707.93,340.68,676.21,304.43Zm-465,83.94a27.92,27.92,0,0,0-3.77,8.57c-8.29,32.32-16.69,64.61-24.81,97-.93,3.72-2.48,4.53-6,4.62-12.62.33-25.26.83-37.86,1.69-4.13.29-4.78-.38-3.66-4.41,9.38-33.74,18.5-67.56,27.88-101.31a24.38,24.38,0,0,0,.28-12.17C153.82,339,145,295.56,138,251.76c-.46-2.8-.93-4.53,3-4.85,14.42-1.16,28.85-2.38,43.18-4.29,5.42-.73,5.8,1.43,6.15,5.64,2.5,30.47,5.2,60.93,7.84,91.4,0,.32.17.63.48,1.79,10.55-18,20.57-35.34,30.91-52.52,10.19-16.94,20.76-33.66,31-50.56,1.68-2.79,3.59-3.69,6.8-3.65,14.76.18,29.52.08,45.15.08-5.5,8.36-10.57,16.07-15.65,23.77Q254.08,323.49,211.2,388.37ZM404.11,241.84q-1.94,58.05-3.91,116.1-1.84,57-3.56,114.11c-.12,4-.74,8-.37,11.94.41,4.43-1.39,5.86-5.47,6.57-13.09,2.26-26.16,4.71-39.15,7.47-3.9.83-4.49-.21-4.31-3.73,1-19.75,1.72-39.51,2.8-59.24.2-3.56-.59-4.51-4.16-4.47q-23.72.27-47.43,0c-3.09,0-4.61.91-5.92,3.8-9.94,21.92-20.19,43.7-30.1,65.63-1.42,3.15-2.87,4.14-6.27,3.61-13.76-2.15-27.55-4-41.68-6.06,10.76-22.71,21.28-44.89,31.8-67.08,29.77-62.84,59.23-125.82,87.83-189.2,1.68-3.71,3.68-4.58,7.46-4.6,18.79-.1,37.58-.49,56.37-.85C404.26,235.73,404.31,235.63,404.11,241.84Zm56.22,229a36.52,36.52,0,0,1-29.17,27.3c-16.8,2.87-28.25-10-24-26.84,3.53-14,18.69-25.77,33.12-25.78S463.68,456.7,460.33,470.8Z"/><path class="cls-1" d="M357.77,307.22c-.67-6.18-1.55-12.34-2.5-19.89A1045.28,1045.28,0,0,0,304,380.45a11.47,11.47,0,0,0,2,.42c17.61-.36,35.21-.84,52.82-1,3.3,0,3.29-1.63,3.28-4A655.3,655.3,0,0,0,357.77,307.22Z"/></g></g></svg>