<?xml version="1.0" encoding="UTF-8"?>
<svg id="Layer_1" xmlns="http://www.w3.org/2000/svg" viewBox="0 0 800 800">
  <defs>
    <style>
      .cls-1 {
        fill: #00e17e;
      }
    </style>
  </defs>
  <path class="cls-1" d="M390.74,0h18.53c32.07,1.66,63.76,10.94,91.38,27.37,14.18,8.33,27.2,18.55,38.92,30.07,58.16,58.16,116.32,116.32,174.48,174.48,10.95,11.05,22.1,21.9,32.92,33.07,31.85,33.89,50.83,79.32,53.03,125.74v18.55c-1.84,34.95-12.74,69.46-32,98.73-8.35,12.97-18.48,24.7-29.42,35.55-58.84,58.82-117.66,117.66-176.49,176.48-13.48,13.18-26.16,27.3-41.18,38.8-32.36,25.1-72.66,39.54-113.56,41.16h-14.72c-36.79-1.52-73.15-13.21-103.59-33.98-12.84-8.56-24.36-18.92-35.11-29.95-29.89-29.76-59.5-59.81-89.6-89.35-26.81-26.86-53.46-53.88-80.37-80.63-10.9-11.09-22.21-21.79-32.81-33.17C20.4,499.29,2.17,454.74,0,409.26v-18.53c1.87-36.87,14-73.21,35.17-103.51,13.05-19.25,30.56-34.75,46.74-51.26,58.5-58.51,117.02-117.01,175.52-175.53,11.86-12.04,25.04-22.84,39.51-31.61C325.12,11.5,357.73,1.7,390.74,0ZM334.37,112.36c-3.61,7.72-3.62,16.4-4.83,24.68-.78,4.68-.9,9.47-2.05,14.09-2.2.56-4.38,1.21-6.54,1.88-8.07,2.71-16.03,5.75-23.82,9.19-7.66,3.03-14.59,7.6-22.23,10.61-6.79-5.51-13.86-10.67-20.75-16.05-3.07-2.41-6.48-4.32-9.94-6.12-5.56-1.76-11.33-3.38-17.22-3.1-10.23.67-20.45,4.59-27.73,11.95-12.55,12.39-25.13,24.73-37.66,37.14-6.66,6.56-11.8,15.04-13.09,24.41-.59,8.02-.73,16.37,2.58,23.88,4.36,9.15,11.66,16.36,17.77,24.32,1.54,2.3,5.14,4.59,3.3,7.72-4.47,8.46-8.69,17.06-12.33,25.91-3.23,8.06-5.95,16.31-8.53,24.59-8.76,1.28-17.57,2.06-26.34,3.2-6.97,1.01-13.78,3.57-19.41,7.85-10.82,7.82-17.28,21.15-17.04,34.46.02,17.69,0,35.38,0,53.08,0,8.29,2.47,16.56,7,23.5,5.74,8.94,15.05,15.26,25.36,17.69,10.11.84,20.08,3.09,30.23,3.56,2.02,5.7,3.67,11.52,5.76,17.19,3.21,8.46,6.78,16.78,10.78,24.9,27-19.64,54.39-38.73,81.58-58.12-1.41-6.2-2.74-12.45-3.33-18.79-.44-4.32.04-8.75-1.18-12.96-1.59-2.6-3.89-4.66-5.87-6.94-13.67-15.01-27.22-30.11-40.86-45.13-3.61-3.93-6.48-8.66-7.67-13.89-3.04-11.75,1.84-24.93,11.77-31.87,6.28-4.79,14.36-5.59,21.82-7.25,23.7-5.08,47.45-9.94,71.16-14.99,4.95-1.04,9.95-1.92,14.82-3.34,7.39-2.2,13.58-7.62,17.37-14.27,14.35-25.01,28.72-50,43.09-74.99,2.68-4.58,5.03-9.48,8.81-13.29,4.59-4.54,10.63-7.59,17-8.61,9.25-1.35,18.82,2.51,25.22,9.17,4.26,4.69,6.85,10.56,10.1,15.94,12.2,21.14,24.33,42.34,36.52,63.5,3.69,6.34,6.88,13.36,12.99,17.82,6.49,5.27,15.08,6.12,22.95,7.87,27.63,5.85,55.29,11.53,82.88,17.48,7.7,1.65,14.58,6.51,18.85,13.1,5.42,8.14,6.34,18.99,2.63,28.01-2.31,5.88-6.97,10.28-11.09,14.9-19.45,21.54-38.95,43.03-58.38,64.59-5.92,6.42-8.64,15.39-7.63,24.03,3.34,31.72,6.77,63.44,10.13,95.17,1.11,11.56-5.28,23.24-15.38,28.87-7.99,4.57-18.08,5.13-26.55,1.53-29.2-12.99-58.34-26.15-87.55-39.14-7.38-3.47-16.13-3.51-23.53-.07-28.37,12.6-56.66,25.41-85.03,37.99-3.77,1.43-5.52,5.28-7.83,8.28-6.43,9.7-13.61,18.86-20.09,28.52,5.63,2.48,10.82,5.85,16.52,8.17,6.89,3.27,13.98,6.07,21.11,8.74,5.05,1.68,10.14,3.24,15.18,4.93.54,10.46,2.1,20.85,3.58,31.21,2.08,6.4,4.93,12.71,9.65,17.62,7.86,8.92,19.7,14.18,31.59,13.98,19-.07,38,.08,56.99-.08,17.86-.79,33.71-14.36,38.24-31.51,1.35-7.31,1.75-14.75,3-22.07.84-3.38-1.22-9.38,3.61-10.18,4.04-1.37,8.18-2.46,12.17-4,.51-.16,1.52-.47,2.03-.63,1.95-.82,3.93-1.55,5.9-2.34,4.5-1.63,8.8-3.74,13.17-5.67,5.65-2.43,11.05-5.38,16.36-8.49,7.04,5.23,13.83,10.79,20.78,16.14,8.24,6.86,19.09,9.91,29.72,8.84,10.52-.34,20.14-5.98,27.43-13.28,8.74-8.61,17.45-17.25,26.18-25.88,7.45-7.59,16.23-14.41,20.39-24.53,3.16-7.63,3.18-16.05,2.33-24.13-1.29-7.03-4.72-13.52-9.19-19.05-5.2-6.57-10.15-13.36-15.56-19.77,2.88-5.32,5.72-10.67,8.22-16.19,4.41-9.32,8.19-18.95,11.4-28.75.8-2.8,1.78-5.54,2.72-8.29,10.16-.43,20.11-2.76,30.24-3.56,14.26-3.2,26.24-14.39,30.38-28.4,2.6-7.68,1.89-15.86,1.97-23.82-.03-14.67.05-29.34-.03-44-.31-16.72-11.63-32.67-27.5-38.13-7.68-2.93-16.01-2.67-23.98-4.13-3.78-.26-7.54-.66-11.27-1.3-2.56-8.29-5.32-16.52-8.52-24.59-3.37-7.84-6.79-15.67-10.97-23.12-.83-1.75-2.16-3.52-1.85-5.55,6.94-9.92,16.2-18.28,21.55-29.28,1.38-3.87,2.76-7.82,2.77-11.98.11-5.99.5-12.19-1.59-17.92-2.23-7.05-6.51-13.27-11.74-18.44-12.5-12.39-25.07-24.71-37.6-37.08-7.3-7.35-17.51-11.35-27.76-11.96-5.89-.27-11.65,1.34-17.2,3.1-3.46,1.8-6.88,3.71-9.95,6.13-6.91,5.37-13.96,10.57-20.78,16.06-7.61-3.09-14.55-7.58-22.2-10.63-7.79-3.44-15.77-6.48-23.84-9.19-2.16-.66-4.33-1.32-6.51-1.89-2.1-10.59-2.44-21.48-4.57-32.08-4.21-17.77-21.76-31.13-39.96-30.82-18.66-.03-37.32-.03-55.97,0-15.81-.21-31.19,9.74-37.64,24.14ZM336.17,320.8c-23.17,6.94-43.78,22.09-57.26,42.19-15.26,22.27-21.58,50.49-17.12,77.13.96,7.13,3.32,13.94,5.15,20.88-31.7,22.22-63.13,44.84-94.71,67.23-9.42,6.47-17.34,15.23-22.25,25.59-7.67,15.44-8.62,34.02-2.81,50.23,5.27,14.81,16.21,27.42,29.96,34.97,13.24,7.5,29.15,9.36,44,6.66,15.38-3.08,29.67-11.94,38.86-24.72,22.96-31.79,45.35-63.99,68.17-95.88.39-.42,1.16-1.26,1.55-1.68,5.32,1.62,10.6,3.44,16.1,4.41,10.53,2.4,21.42,2.1,32.14,1.64,17.11-1.75,33.89-7.49,48.19-17.11,13.64-9.15,25.35-21.29,33.58-35.53,13.67-23.42,17.82-52.16,11.42-78.5-1.76-6.84-9.04-11.39-15.94-10.63-3.91.53-7.41,2.63-10.14,5.41-11.01,10.97-21.93,22.03-33,32.94-10.88,10.38-28.93,11.59-41.24,3.07-12.93-8.28-18.64-25.98-12.73-40.2,2.89-8.01,9.57-13.54,15.37-19.41,8-7.99,15.97-16,23.99-23.96,2.44-2.36,4.58-5.22,5.27-8.61,2.08-7.93-3.57-16.92-11.72-18.28-18.05-3.94-37.16-3.28-54.83,2.16Z"/>
  <path class="cls-1" d="M201.41,565.85c4.71-.93,9.95-.94,14.24,1.5,6.51,3.28,10.6,10.45,10.7,17.66-.13,6.72-3.82,13.25-9.55,16.78-6.14,3.84-14.43,3.71-20.55-.12-6.57-4.02-10.67-12.02-9.31-19.71,1.12-7.59,7.14-14.06,14.47-16.11Z"/>
</svg>