<?xml version="1.0" encoding="UTF-8"?>
<svg id="Layer_1" xmlns="http://www.w3.org/2000/svg" viewBox="0 0 908.53 1026.02">
  <defs>
    <style>
      .cls-1 {
        fill: #fff;
      }
    </style>
  </defs>
  <g>
    <path d="M373.83,23.3C414.23,13.35,455.03,4.63,496.43.07c1.33.06,3.12-.48,4.1.74,2.5,2.7,6.13,3.8,9.24,5.61,10.67,5.88,21.25,11.94,31.28,18.87.12,1.28.22,2.56.36,3.84,1.03-.47,2.15-1.4,3.23-.44,4.69,2.79,8.45,6.83,12.42,10.52,21.3,20.36,42.53,40.79,63.9,61.08,3.57,3.5,8.46,4.97,12.84,7.13,73.96,34.16,146.02,72.39,216.03,114.04,19.39,11.59,38.76,23.22,58.2,34.72,1.15,6.18-.08,12.45.16,18.68-1.61,63.68-9.2,127.27-23.3,189.41-23.23,100.72-62.65,197.61-115.75,286.28-36.84,61.59-82.05,118.51-135.92,166.1-46.94,40.62-99.28,75.08-155.48,101.51-7.81,3.34-15.77,6.93-24.28,7.86-8.79-1.7-17.07-5.33-25.19-9-44.9-21.4-87.33-47.88-126.48-78.53-50.94-39.46-94.59-87.79-131.63-140.38-22.74-32.47-42.85-66.73-61.07-101.93-41.74-80.37-72.4-166.52-90.51-255.26C6.81,381.36.65,320.7,0,260.01c.09-1.3.32-2.57.51-3.84,29.79-17.59,59.28-35.68,89.27-52.93,44.44-25.55,89.67-49.72,135.66-72.35,3.95-2.96,2.43-9.12,4.88-13.08,1.89-2.52,4.7-4.05,7.22-5.85,12.75-9.13,26.16-17.27,39.42-25.61,25.63-15.73,51.42-31.29,78.48-44.48,6.69-2.4,8.07-10.01,11.83-15.21,1.33-2.32,4.23-2.65,6.56-3.36ZM450.52,12.07c-22.27,4.88-44.6,9.54-66.71,15.12-3.66.96-7.41,1.64-10.89,3.15.68,5.38-4.6,8.2-6.17,12.78-7.11,15.96-15.25,31.43-22.88,47.13-4.05,8.25-8,16.56-12.31,24.68-2.26,4.22-3.29,8.93-4.81,13.43-1.2,3.63-3.33,6.91-4.21,10.65,1.43-.41,2.56-1.39,3.41-2.6,5.11-6.88,10.64-13.47,15.46-20.57,16.14-23.8,32.03-47.77,49-71,1.76-2.26,3.18-4.89,5.41-6.74,3.92-1.49,8.05-2.39,12.13-3.34-10.15,27.21-20.71,54.36-28.12,82.48-.29,2.59-3.11,3.04-5,4.09-14.99,6.8-29.08,15.34-43.22,23.72-3.51,2.16-7.37,3.8-10.61,6.36-2.83,4.24-3.14,9.48-4.58,14.24,1.74-1.64,3.77-2.92,5.98-3.83,20.97-9.46,42.14-18.5,63.77-26.36,6.13-2.47,12.61-4.18,18.4-7.44,7.28-3.78,15.08-6.37,22.75-9.21,6.18-2.05,12.26-4.5,18.67-5.74-2.01-29.15-1.61-58.46-4.41-87.57,22.27-5.83,44.69-11.03,67.03-16.56-3.76-2.5-7.54-4.96-11.3-7.45-15.61,3.49-31.21,6.99-46.79,10.58ZM452.52,30.22c-.13,22.89.41,45.79.55,68.68,8.99-25.24,17.91-50.52,26.61-75.86-9.09,2.27-18.07,4.92-27.16,7.18ZM522.94,34.72c-2.1,13.03,2.19,26.07.61,39.1-.65,8.01-1.02,16.04-1.47,24.07-.62,10.97.21,21.96,1,32.91.35,2.18-.11,5,2.06,6.37,6.92,5.53,13.06,12.03,20.36,17.1-7.14-33.64-13.78-67.42-18.81-101.45-.81-6.11-1.04-12.44-3.75-18.1ZM548.33,36c2.6,4.26,5.84,8.07,8.94,11.97,12.64,15.67,25.63,31.04,38.76,46.3,26.96,30.94,54.22,61.68,83.51,90.45,1.8,1.85,4.18,3.44,4.86,6.07,8.45,27.65,15.59,55.68,23.51,83.49.43,1.75,1.29,3.58.52,5.38-2.5,8.48-5.49,16.81-8.2,25.22-1.02-1.15-2.02-2.33-3.08-3.42.14.74.43,2.21.58,2.94,4.81,5.91,11.22,10.67,14.8,17.5,10.28,28.19,21.17,56.2,29.74,84.99-.71-10.46-4.02-20.47-6.22-30.66-3.18-12.95-5.13-26.2-8.78-39.02-13.05-54.79-26.28-109.55-38.67-164.5-.67-2.46-.73-5.41-3.02-7.01-46.86-42.04-92.81-85.11-137.25-129.7ZM299.71,78.1c-22.63,13.5-45.11,27.3-66.82,42.25-12.07,52.86-24.03,105.75-36.75,158.46-6.93,29.32-13.92,58.62-20.57,88,4.86-15.22,9.25-30.59,14.2-45.79,4.11-13.4,9.11-26.51,12.69-40.07,5.55-19.61,13.1-38.57,20.31-57.59,5.29-7.38,12.75-12.78,19.71-18.46.98-1.27,2.43-.04,3.64-.46,12.17-6.91,23.71-14.86,35.48-22.41,7.43-4.97,15.33-9.35,22.17-15.14-15.71,4.05-29.47,13.06-43.98,19.96,9.37-31.21,20.09-62.05,32.61-92.14.49-1.73,2.28-2.35,3.72-3.09,17.64-8.17,34.96-16.99,52.28-25.8,1.33-.6,2.5-1.54,2.99-2.97,2.41-5.47,5.16-10.78,7.58-16.24-20.52,8.98-40.09,19.96-59.26,31.49ZM673.74,133.09c-1.97,3.55-3.93,7.1-5.82,10.69,7.67,7.2,14.94,14.83,22.98,21.63,1.7,1.37,2.17,3.62,3.04,5.52,2.8-4.74,5.45-9.56,8.22-14.31,1.4-2.53,3.8-4.28,5.36-6.71-11.15-5.82-22.46-11.34-33.78-16.82ZM208.49,146.02c-28.37,14.39-56.53,29.19-84.34,44.62-31.85,17.53-63.08,36.12-94.41,54.54-8.82,5.04-17.51,10.37-26.66,14.81,2.35,73.19,12.44,146.12,30.07,217.2,20.66,83.64,52.21,164.6,93.82,240.04,35.22,64.77,78.58,125.54,131.6,176.97,4.44-9.94,8.89-19.9,12.85-30.04-13.2-12.85-26.13-26.05-37.93-40.21.72,1.32,1.49,2.61,2.27,3.92-3.11,7.4-6.61,14.64-9.87,21.99-4.98-5.57-9.09-11.84-13.84-17.6-12.29-15.58-23.13-32.22-34.75-48.29-5.97-8.33-13.59-15.5-18.31-24.69-5.14-9.33-11.18-18.11-16.85-27.12-3.73-5.79-6.56-12.1-9.86-18.13-10.19-19.44-19.99-39.09-28.87-59.16-7.62-16.84-14.2-34.24-23.89-50.04-3.39-3.97-4.55-9.13-6.14-13.96-4.14-13.34-7.61-26.87-11.59-40.25-.45-1.82-1.28-3.77-.35-5.58,3.23-8.49,6.88-16.81,10.09-25.3.69-1.48-.39-3.02-.63-4.48-5.25-17.31-9.32-34.94-13.8-52.45-4.41,11.41-8.76,22.85-13.1,34.29-1.79-3.65-2.24-7.76-3.39-11.62-.71-3.36-2.23-6.87-1.07-10.29,3.51-12.01,7.37-23.9,11.33-35.76.82-2.12.97-4.39.36-6.58-6.21-33.43-10.19-67.25-12.73-101.14-7.02,14.38-12.35,29.56-18.49,44.34-4.17-32.6-6.84-65.41-7.77-98.26-.4-2.29,1.35-3.89,2.88-5.25,15.94-13.85,32.66-26.75,49.39-39.63,1.56-1.23,3.19-2.39,4.93-3.37-5.69,13.06-12.73,25.52-18.09,38.72,3.63-1.76,7.02-3.96,10.49-5.99,29.91-17.97,59.99-35.65,90.59-52.42,1.81-1.13,4.2-1.81,5.13-3.91,6.02-11.67,11.71-23.51,17.78-35.15,1.64-3.56,5.65-4.8,8.92-6.36-5.42,12.53-11.56,24.74-16.98,37.28,13.25-7.15,26.71-13.95,39.9-21.16,1.92-3.72,2.81-7.87,4.25-11.78,2.91-9.39,6.33-18.65,8.46-28.26-3.9,1.62-7.62,3.65-11.4,5.51ZM422.31,182.52c-18.89,3.33-37.35,8.62-56.03,12.9-4.2,1.07-8.63,1.66-12.41,3.9-20.43,11.99-40.5,24.61-60.13,37.84-6.8,8.87-13.19,18.09-20.48,26.59-1.42,1.65-2.81,3.49-2.97,5.75-1.82,11.95-3.5,23.93-5.91,35.76,5.6-4.89,10.47-10.64,16.77-14.72,5.1-3.72,11.36-5.08,17.4-6.46,22.89-5.07,46.48-5.66,69.82-4.81,1.52.04,3.01.47,4.3,1.29,8.83,5.32,17.4,11.11,25.41,17.61,6.38,5.15,12.6,10.67,17.17,17.54,2.88-3.75,5.76-7.58,9.48-10.56,2.39-2.07,4.04-5.72,7.68-5.66,12-.28,24.01.34,36.01-.09,4.37.28,9.69-1.21,13.1,2.37,4.54,4.26,8.72,8.92,12.32,14,2.68-3.76,5.61-7.36,9.03-10.49,10.15-9.42,21.55-17.42,33.39-24.57,2.39-1.7,5.42-1.48,8.21-1.6,15.4-.28,30.86-.31,46.17,1.65-6.09-10.92-10.73-22.66-14.52-34.56-1.58-1.49-3.49-2.57-5.27-3.8-7.2-4.61-12.84-11.15-18.38-17.56-6.67-7.13-6.79-17.52-8.56-26.58-23.08-7.51-45.81-16.19-68.44-24.92-17.75,2.88-35.49,5.88-53.16,9.18ZM66.78,265.24c-9,5.12-17.85,10.55-27.19,15.05-.22,5.51.34,11.01.54,16.52,5.65,113.14,31.44,225.4,77.16,329.11,16.46,37.07,35.3,73.09,56.42,107.72,8.82-3.17,17.82-5.82,26.67-8.9,2.24-6.38,5.67-12.66,10.51-17.41,4.43-1.49,8.68,1.57,12.62,3.25-4.44-9.09-8.8-18.27-12.14-27.8-12.38-11.2-24.84-22.43-36.17-34.7-8.58-14.34-15.27-29.71-22.07-44.95-5.77-12.88-9.8-26.46-15.76-39.24-1.74-4.84-.43-10.05-.57-15.04-.28-13.75,2.03-27.35,3.98-40.9,3.85-25.48,8.76-50.78,13.95-76.02,14.22-67.93,30.17-135.49,46.66-202.91,3.6-14.95,7.81-29.76,11.25-44.75-49.71,24.97-97.98,52.68-145.86,80.97ZM696.83,184.7c15.27,58.74,29.15,117.84,42.66,177.02,9.62,42.78,19.05,85.64,26.46,128.87,2.33,14.03,4.56,28.09,6.09,42.24.95,8.31.43,16.7,1.03,25.04.5,5.69-3.43,10.28-5.04,15.46-8.78,24.29-19.08,48.07-31.36,70.81-2.91,6.1-8.64,10-13.08,14.88-8.21,8.5-17.35,16.06-25.8,24.27-2.88,9.39-7.56,18.06-11.52,27.01,3.97-1.41,8.2-4.61,12.55-2.88,4.84,4.84,7.92,11.23,10.57,17.45,8.33,2.8,16.73,5.4,25.04,8.26l.76-.2c15.82-25.84,30.26-52.53,43.43-79.81,56.07-115.95,86.04-243.97,90.52-372.54-22.34-11.82-43.8-25.18-65.71-37.74-35.03-20.29-70.52-39.79-106.6-58.14ZM294.38,222.82c-8.09,8.66-18.42,14.79-26.84,23.11,2.54-1.29,4.88-2.97,7.58-3.96-1.12,1.73-2.47,3.29-3.68,4.95,2.06-1.36,4.05-2.83,6.18-4.07-2.88,4.45-6.19,8.61-9.08,13.07-1.77,2.53-3.19,5.41-5.7,7.32-12.95,10.05-25.79,20.25-38.76,30.29-1.67,1.17-2.23,3.22-2.94,5.02-1.47,4.11-3.33,8.07-4.76,12.2,1.35-2.24,2.09-5.01,4.44-6.46,14.27-9.56,29.82-17.22,43.27-27.99,1.56-4.3.41-9.54,3.53-13.23,4.54-5.83,8.83-11.84,13.22-17.78,6.1-7.67,11.96-15.58,16.96-24.02-1.38.05-2.52.56-3.42,1.55ZM842.34,228.94c5.48,4.01,11.64,7,17.42,10.55,15.27,8.74,30.24,17.98,45.56,26.6-.03-2.53.82-5.89-2.25-6.96-19.42-10.94-38.55-22.37-57.8-33.61-.99,1.13-2,2.25-2.93,3.42ZM594.02,228.22c2.07,2.29,4.41,4.31,6.77,6.31,12.86,10.79,25.86,21.42,38.71,32.23,15.81,12.81,31.7,25.55,46.73,39.29,3.94,3.73,8.33,7.04,11.69,11.35,1.33,1.37,3.63,1.95,4.14,3.99,4.6,14.81,9.03,29.69,14.59,44.18,6.77,17.75,13.04,35.69,19.55,53.54.96,3.21,1.28,6.57,1.87,9.86,6.71,38.46,15.22,76.58,22.05,115.02,1.31,4.71-3.03,8.43-3.5,12.92-.14,2.19.65,4.54-.43,6.6-7.99,15.71-15.71,31.59-22.31,47.93-4.2,11.8-8.86,23.56-10.99,35.96-1.84,2.16-4.3,3.66-6.45,5.48-24.06,19.17-48.35,38.14-70.87,59.13-4.47,4.2-8.86,8.72-11.72,14.21-1.15,2.16,1.67,4.11.69,6.41-2.66.14-6.33-1.53-8.17,1.09-4.65,6.77-6.35,15.45-12.64,21.1.47,1.12.96,2.24,1.45,3.38,2.94-4.56,5.48-9.43,9.02-13.58,3.8-4.12,10.77-4.15,14.61-.04,1.24-5.37,1.32-10.92,2.22-16.34.28-2.5,2.32-4.16,4.09-5.69,7.87-6.79,15.75-13.58,23.54-20.46,20.22-18.06,41.12-35.5,59.58-55.41,6.84-11.24,12.18-23.31,17.78-35.2,6.09-13.78,12.79-27.27,19.21-40.9,1.86-3.65,2.82-7.71,3.31-11.76-.61-8.37-1.49-16.73-2.47-25.06-3.21-28.61-9.85-56.67-15.78-84.78-6.86-22.05-14.08-43.99-21.23-65.94-7.09-20.97-15.17-41.6-22.27-62.55-1.81-3.08-4.45-5.55-6.78-8.21-7.92-8.47-15.78-17.04-22.62-26.43-5.76-5.96-12.85-10.43-19.05-15.91-18.68-14.71-37.59-29.43-58.41-41-2.06.96-3.98.21-5.91-.72ZM588.84,265.09c1.75,5.09,4.47,9.77,6.66,14.69.96,2.96,4.75,1.95,7.12,2.6-2.43-4.44-4.84-8.9-7.58-13.14-1.34-2.26-3.92-3.19-6.2-4.15ZM689.63,267.05c-1.87.6-2.74,2.67-3.75,4.21-2.3,4.41-5.21,8.45-7.96,12.59,3.76,3.99,7.7,7.82,11.57,11.73,2.67-5.23,4.45-10.85,6.55-16.32,1.03-2.93,2.61-5.85,2.16-9.06-2.67-1.42-5.41-3.34-8.57-3.15ZM292.49,288.96c-6.98,1.72-12.8,6.22-18.03,10.95-7.92,7.43-14.98,15.69-22.25,23.73-1.81,1.56-1.38,4.05-1.34,6.17.54,7.01-.23,14.26,2.12,21.01-.2-8-.2-16.01-.96-23.98,10.09-11.03,20.88-21.44,32.33-31.05,2.25-1.8,4.3-4.18,7.26-4.73,22.17-5.28,44.86-8.15,67.56-9.76-22.35.74-44.97,1.84-66.69,7.66ZM369.87,281.09c-1.04,2.18-2.17,4.3-3.26,6.45,1.9,1.1,3.72,2.4,5.77,3.23,2.01-.78,2.66-3.45,4-5.06-2.11-1.64-4.3-3.14-6.51-4.62ZM496.6,315.98c-.81,1.4-.87,3.08-1.26,4.63-.62,3.77-2.55,7.25-2.55,11.13-.58,10-.96,20.07-.11,30.07.92-15.15,3.8-30.09,6.97-44.9.07-1.06.53-1.88,1.38-2.48,13.21-10.59,26.19-21.6,40.54-30.65,3.57-.48,7.2.17,10.81.19-.33,1.01-.65,2.03-.97,3.05,5.67-.06,11.33.14,17,.16,1.96.05,3.06-2.39,5.05-2.25,12.26.3,24.49,1.41,36.7,2.47-17.24-4.06-35.02-4.95-52.66-5.93-5.96-.17-11.94-.7-17.9-.4-15.49,10.04-30.89,20.81-43,34.91ZM871.96,281.41c-.6,27.04-1.79,54.11-4.71,81.02-.07,2.05-.69,4.08-.32,6.13,3.15-24.48,7.41-48.98,7.3-73.74-.39-4.49.1-9.39-2.27-13.41ZM256.23,303.55c-1.23,4.53-2.52,9.06-3.29,13.7,3.79-1.86,5.83-5.79,8.82-8.61-.76-4.89-.04-9.83.35-14.72-2.16,3.07-4.91,5.9-5.88,9.63ZM431.97,303.35c-4.67,3.26-8.15,7.89-12.3,11.74-1.32,1.42-3.36,2.63-3.18,4.85,6.34-3.51,10.07-10.21,16-14.25,13.66-.06,27.33.64,40.98.05,3.36-.6,5.31,2.62,7.69,4.36,3.87,3.02,7.1,7.04,11.69,9.02-1.74-3.05-4.7-5.12-6.99-7.72-3.12-2.84-5.67-6.69-9.61-8.37-11.92-.63-23.89-.41-35.83-.3-2.81.11-5.76-.35-8.45.62ZM236.13,310.56c-1.78,2.6-.65,5.84-1.46,8.69-1.5,5.53-3.21,10.99-4.68,16.52,2.22-.49,4.47-.86,6.74-1.1-.37-3.92-1.04-7.84-.81-11.78,1.71-1.87,4.44-2.1,6.7-2.96-.6-4.89.53-9.71,1.1-14.53-2.69,1.43-5.55,2.84-7.59,5.16ZM435.23,313.8c-3.59.31-6.49,2.54-9.44,4.37,3.8,7.12,7.77,14.2,10.53,21.82,1.14,3.42,3.35,6.39,4.33,9.86.23,6.74-1.51,13.35-2.43,19.99-2.77,19.3-7.97,38.12-12.92,56.94-.59,3.87-3.89,6.55-4.56,10.39-.68,2.89.23,5.81.69,8.68,1.64-.69,3.28-1.39,4.93-2.06,6.92,2.4,11.87,8.21,18.08,11.66,7.89-.17,15.84-.12,23.68-.92,6.23-4,11.84-8.92,18.11-12.88,3.36-1.73,3.51-6.04,5.61-8.86.92,4.21.75,8.53.64,12.81,6.86,3.7,13.87,7.3,19.84,12.38,3.07,2.45,5.75,5.67,9.66,6.8,1-3.88,2.48-7.73,2.55-11.78-2.37-5.43-6.15-10.08-9.1-15.18-2.7-4.84-6.58-8.99-8.33-14.33,5.02,3.86,8.79,9.05,12.83,13.88,5.57,6.72,9.23,14.69,14.07,21.9,4.31,7.12,8.91,14.11,12.38,21.69-1.78-1.96-3.08-4.29-4.82-6.27-5.23-2.48-9.56-6.41-14.3-9.66-1.47,3.69-2.37,7.7-4.6,11.05-2.69,2.88-6.81,3.67-10.44,4.76-4.82.61-7.82,4.84-11.78,7.19,5.79,8.29,8.18,18.52,14.03,26.78,13.6,5.83,27.65,10.63,41.69,15.33,1.53.37,1.81,2.23,2.49,3.43,3.69,9.32,7.46,18.68,9.69,28.48,2.36,7.79,3.07,15.93,4.69,23.89.35,11.51-3.32,22.69-4.44,34.07,4.15-2.78,6.9-7.1,10.48-10.52,4.22-4.06,7.82-9.04,13.2-11.67.93,5.02,1.14,10.12,1.57,15.19,6.39-12.62,12.32-25.47,18.51-38.19,1.8-4.24,3.43-8.6,6.04-12.43,1.34,7.81.05,15.69-.76,23.48,2.96-10.74,6.7-21.27,9.3-32.12,1.83,3.91,2.5,8.16,2.89,12.42,2.33-8.65,4.15-17.44,6.72-26.02.36-1,.88-1.91,1.56-2.74.82,3.09,1.05,6.29,1.27,9.47,1.64-3.85,2.64-7.93,4.28-11.78,3.82-9.25,6.37-18.95,9.6-28.38.7-15.26.45-30.57.89-45.85.63-27.36,1.33-54.72,1.06-82.08-2.73,10.08-8.1,19.24-14.26,27.59-9.07,12.36-22.23,21.55-36.75,26.32-8.66,2.88-17.83,2.85-26.81,3.68-11.82.32-23.64-1.41-35.07-4.37-13.77-3.61-26.65-11.24-35.76-22.27-5.41-6.96-9.75-14.74-13.11-22.89-3.79-9.15-4.84-19.17-4.86-29-.2-8.7,1.53-17.29,1.66-25.98.09-2.97-.4-5.92-.12-8.88-4.27-3.03-8.37-6.44-13.21-8.51-7.05-1.69-14.34-1.99-21.52-2.8-6.75.3-13.48,1.18-20.16,2.12ZM406.69,319.12c3.13,16.92,6.12,34.33,3.25,51.53-2.24,13.21-9.54,24.87-17.65,35.28,3.27-1.99,4.9-5.59,7.56-8.2-.16,3.69-.81,7.34-1.16,11.02,4.66-5.81,8.44-12.3,11.59-19.04,2.35-5.32,4.87-10.89,4.41-16.86-.32-6.71.74-13.58-1.24-20.1-.48-9.37-2.9-18.51-3.47-27.87-.35-2.17-.45-5.45-3.29-5.76ZM239.89,324.8c.16,1.55.36,3.1.55,4.66,2.55.67,5.05,1.52,7.56,2.34.28-3.79-.01-7.89,2.46-11.05-3.44,1.56-7,2.82-10.57,4.05ZM658.36,320.63c1.94,2.07,2.32,4.82,2.88,7.48,2.09,1.87,5.13.81,7.67,1.06.09-1.48.19-2.97.29-4.44-3.69-1.16-7.3-2.55-10.84-4.1ZM652.14,329.01c0,7.64-.32,15.29-.38,22.95,1.79-7.49,3.19-15.25,2.32-22.97-.49,0-1.46,0-1.94.02ZM231.52,350.77c-2.17,12.84-4.14,25.77-4.24,38.83-7.25.47-14.51.85-21.76,1.36-1.62.02-2.56,1.8-3.03,3.14-1.54,5.95-2.32,12.08-3.99,18.01-4.39,20.22-6.24,40.92-6.98,61.57,1.56,4.23,3.39,8.42,5.85,12.22,5.61,9.52,11.08,19.15,15.85,29.12,1.05,1.99,1.78,4.41,3.96,5.48-1.33-4.87-2.74-9.71-3.77-14.65-5.02-23.17-8.76-46.66-10.26-70.33-.43-12.87-1.23-25.85.49-38.65.29.14.88.41,1.17.55,1.64,8,1.37,16.27,2.61,24.34,7.15-.24,14.29-.89,21.45-.84.45,3.14.94,6.28,1.34,9.43-7.36.13-14.72.16-22.08.31.41,3.95.8,7.9,1.21,11.85,10.23-.51,20.45-1.1,30.68-1.66-2.63-23.93-4.79-47.91-5.57-71.95-.04-8.79-.05-17.58-.26-26.35-1.5,2.5-2.16,5.37-2.67,8.22ZM501.65,348.23c0,.32-.03.95-.04,1.27,35.8.6,71.5,4.29,106.93,9.32,13.14,1.74,26.12,4.43,39.07,7.22.48-2.72-2.51-2.42-4.28-2.98-46.47-10.32-94.09-15.29-141.68-14.83ZM675.64,349.23c-1.06,6.17-.35,12.44-.56,18.66-.85,24.21-2.93,48.36-5.45,72.44,10.24.49,20.44,1.86,30.69,2.03.14-3.49.6-6.95.89-10.42-7.18-.78-14.4-1.08-21.6-1.59.25-2.45.47-4.91.37-7.37,7.33.14,14.66.34,21.99.58.57-7.13,1.74-14.26,1.6-21.42-7.33-1.13-14.62-2.46-21.93-3.62-1.04-13.26-1.06-26.63-3.11-39.8-.69-3.22-.73-6.81-2.89-9.49ZM334.57,363.04c-22.31,4.18-44.41,9.36-66.58,14.2-1.17.3-2.3.71-3.39,1.23.43.72,1.29,2.16,1.73,2.88,23.59-6.31,47.65-10.69,71.72-14.73,23.06-3.58,46.14-7.39,69.44-9.04.09-1.44.18-2.88.27-4.31-24.55,1.95-49,5.19-73.19,9.77ZM493.27,370c.05,2.73.78,5.39,1.39,8.05,1.22-1.11,2.37-2.31,3.24-3.72,2.73-3.3.28-7.7.34-11.49-1.7,2.35-3.62,4.57-4.97,7.16ZM501.88,362.32c.12,1.43.25,2.87.4,4.31,22.76,1.93,45.49,4.31,68.21,6.65,24.04,2.43,47.91,6.25,71.71,10.36.85-1.98,1.62-3.99,2.22-6.05-26.8-3.49-53.49-7.9-80.42-10.36-20.66-2.2-41.4-3.48-62.12-4.91ZM502.99,371.27c.52,2.31,1.13,4.61,1.9,6.86,9.28,1.1,18.46,2.94,27.66,4.6,4.13.9,8.4,1.35,12.34,2.97-12.73.18-25.4-1.61-38.05-2.81,4.82,11.1,11.81,21.75,22.12,28.46,15.51,10.97,35.11,12.81,53.51,13.73,10.5-1.16,20.97-3.83,30.32-8.85,12.51-6.57,21.79-17.94,28.14-30.35-45.96-5.1-92-9.44-137.94-14.61ZM287.46,392.02c-4.56,1.06-9.24,1.69-13.64,3.34,1.02,1.41,2.04,2.82,3.05,4.24,20.03-3.84,39.98-8.18,60.13-11.37,22.36-3.53,44.72-7.11,67.21-9.77.68-2.09,1.25-4.21,1.77-6.33-39.61,5.9-79.35,11.35-118.52,19.89ZM281.12,404.33c2.13,2.61,4.74,4.77,7.38,6.85,11.35-3.18,23.06-5.17,34.84-5.77-10.02,3.58-20.47,5.75-30.76,8.41,9.96,6.77,21.99,9.76,33.8,11.25,14.7-.67,29.76-1.97,43.42-7.85,9.52-4.4,18.46-10.77,24.34-19.6,3.63-5.36,6.9-11.01,9.23-17.07-40.76,7.9-81.42,16.26-122.25,23.78ZM253.96,381.63c-.38,33.75,1.1,67.47,1.38,101.22.45,7.92,0,15.87.57,23.79,4.35,13.46,8.37,27.07,13.56,40.25.2-3.19.44-6.4,1.27-9.5.74,1.06,1.47,2.18,1.78,3.48,2.4,8.62,4.55,17.31,6.49,26.06.28-4.53.95-9.05,2.89-13.18,2.6,10.84,6.34,21.36,9.31,32.1-.84-7.78-2.1-15.66-.76-23.47,3.17,4.66,4.86,10.11,7.27,15.17,6.06,11.74,11.81,23.63,17.61,35.5.41-5.07.61-10.15,1.56-15.15,1.17.61,2.41,1.13,3.46,1.98,7.22,6.26,13.11,13.89,20.15,20.33-1.03-12.16-5.07-24.07-4.37-36.39.63-6.46,2.72-12.64,4.1-18.95,2.31-11.95,6.91-23.3,11.77-34.41,14.3-4.74,28.59-9.64,42.46-15.52,5.28-7.22,8.05-16.02,12.16-23.95.81-2.52,3.85-2.54,5.89-3.5-3.96-4.36-8.51-8.07-13.33-11.4-3.33-2.98-7.78-4.99-9.79-9.17-7.03,9.49-15.57,17.67-23.96,25.93-1.6,1.58-3.36,3-5.29,4.17,4.22-11.14,12.32-20.21,17.72-30.74,3.85-7.01,8.65-13.44,12.55-20.43,4.84-7.33,10.78-13.84,16.81-20.2,2.86-2.72,2.94-6.96,4.11-10.5-5.64,1.74-11.4,3.03-17.18,4.24-2.77.5-4.83,2.56-7.19,3.94-12.36,7.94-27.11,10.94-41.52,12.54-7.68.95-15.41.48-23.1-.15-8.75-.25-17.09-3.02-25.45-5.28-4.88-2.24-9.47-5.11-13.92-8.1-3.85-4.49-8.6-8.13-12.25-12.81-6.33-7.81-11.74-16.49-15.24-25.94-.28-.84-.79-1.49-1.52-1.96ZM140.98,558.9c.29,3.14,1.16,6.24,2.19,9.23,6.27,13.65,13.07,27.05,19.16,40.78,5.97,12.82,11.7,25.85,19.07,37.95,14.8,15.2,29.92,30.32,46.85,43.17,8.23,9.14,18.02,16.75,27.62,24.4,3.32,2.65,5.97,6.01,9.19,8.77,1.4,1.28,3.05,2.62,3.32,4.64,1.05,5.59.96,11.36,2.43,16.89,3.97-4.78,12.19-3.95,15.55,1.13,6.57,9.25,11.89,19.3,17.78,28.97-.73-3.25-1.88-6.38-3.19-9.44-3.93-9.36-8.03-18.65-12.04-27.97-1.51-4.64-7.05-5.98-11.35-6.47-.84-4.83-2.19-9.65-2-14.59,4.32-1.21,8.94-1.61,12.79-4.1-2.86-2.15-5.71-4.38-8.9-6.01-6.7.3-13.37,1.03-20.06,1.37-13.19-12.45-27.74-23.36-40.81-35.94-4.81-4.53-9.81-8.85-14.82-13.15-8.39-6.94-15-15.68-22.9-23.13-2.85-2.49-3.72-6.34-5.38-9.59-8.76-19.12-17.72-38.17-25.27-57.81-1.24-3.59-3.45-7.19-2.49-11.12,2.44-14.7,5.05-29.37,7.54-44.06,3.28-18.58,5.5-37.31,8.24-55.98,1.59-10.47,2.35-21.07,4.72-31.41,2.49-11.38,4.43-22.88,5.99-34.42-13.98,55.29-29.36,110.73-33.23,167.89ZM588.4,425.73c-8.97,1.18-18.06,1.17-27.01-.16-10.05-1.42-20.22-3.58-29.14-8.6-1.96-1.14-4.05-2.07-6.29-2.43,1.24,2.4,1.45,4.94-.33,7.13,9.67,5.97,20.75,9.12,31.88,10.95,1.22-1.5,2.45-2.99,3.7-4.46,13.8,1.94,27.92.84,41.49-2.18,4.71-1.01,9.16-3.02,13.09-5.8,5.61-3.97,11.23-7.98,16.11-12.85,2.74-2.5,3.76-6.2,5.36-9.43-11.29,15.68-29.27,27.04-48.86,27.83ZM706.73,401.92c.63,20.54-.46,41.12-2.92,61.51-3.41,19.88-6.04,40.05-12.34,59.28,3.78-4.51,5.79-10.1,8.59-15.2,4.52-8.99,9.84-17.55,14.76-26.32,1.39-4.05,3.82-7.59,5.7-11.41,2.08-7.2,3.95-14.55,4.24-22.08.13-4.56,1.52-9.39-.72-13.67-4.62-11.23-8.94-23.05-17.31-32.11ZM272.53,406.82c1.63,2,3.31,3.95,5.06,5.85,1.15-1.35,2.28-2.71,3.44-4.05-1.74-2.14-3.62-4.16-5.6-6.08-.99,1.41-1.96,2.84-2.9,4.28ZM365.43,421.84c-10.37,3.07-21.19,4.64-32,4.79-6.62.18-13.15-1.25-19.75-1.43-.62,1.96,2.72,2.51,4.17,2.96,11.17,1.24,22.54.56,33.63-1.22,8.42-1.46,16.99-3.31,24.49-7.58,4.84-2.58,9.01-6.25,12.76-10.2-7,5.46-14.73,10.15-23.3,12.68ZM837.88,514.37c-14.74,50.2-33.53,99.26-56.78,146.15-20.69,41.9-44.17,82.51-71.63,120.36,2.21.09,4.44,0,6.66-.2,4.81-6.6,9.72-13.13,14.18-19.98,26.86-40.48,50.64-83.2,68.44-128.47,2.03-5.1,5.08-9.71,7.37-14.69,7.32-14.6,12.25-30.2,17.4-45.65,3.18-7.61,5.17-15.92,10.43-22.49,10.73-13.59,21.82-26.89,32.6-40.44,2.87-6.63,3.96-13.92,6.05-20.83,4.18-16.39,8.13-32.86,11.44-49.45-10.56,11.5-20.17,23.86-30.68,35.4,1.47-15.44,4.63-30.76,4.75-46.32-4.97,29.24-12.02,58.11-20.23,86.61ZM394.61,449.01c-.04,6.62-.43,13.31.37,19.9,1.94-1.61,3.79-3.31,5.61-5.06.73-9.07.44-18.33,2.92-27.14-3.03,4.04-6.34,7.94-8.9,12.3ZM473.9,457.31c-3.15,4.26-6.76,8.47-8.43,13.57,2.81-.73,3.45-3.85,5.06-5.89,2.59-3.47,4.65-7.48,8.01-10.27,7.75.04,15.32,2.72,22.37,5.78-5.49-4.21-12.33-6.33-18.95-8.06-3.68-1.19-6.07,2.44-8.06,4.87ZM417.47,455.9c-2.93,1.54-6.07,2.67-8.93,4.33-.17.53-.51,1.58-.68,2.11,4.04-1.9,7.74-4.52,11.97-6.01,1.72-.72,3.48.27,5.01,1.01,4.01,2.2,7.58,5.1,11.04,8.07,2.35,2.02,4.1,5.23,7.52,5.48-.06-.44-.17-1.3-.22-1.73-6.07-4.58-11.56-9.9-17.87-14.17-2.49-1.73-5.45-.2-7.84.91ZM408.96,490.58c-.47,3.03.08,6.07.55,9.07,1.46,9.58,4.02,18.96,6.89,28.2.86,2.56,1.47,5.3,3.19,7.46.22-2.66-.32-5.27-.77-7.86-2.16-12.54-4.22-25.1-6.55-37.6-1.11.24-2.22.48-3.31.73ZM496.56,489.52c-2.39,13.78-4.81,27.56-7.12,41.35-.23,1.47-.3,2.96-.19,4.45,2.13-2.85,2.75-6.45,3.9-9.74,3.41-11.59,6.6-23.4,7.13-35.53-1.25-.19-2.49-.37-3.72-.53ZM429.56,494.39c-.92,7.05.6,14.1,2.24,20.93.62,2.4.99,4.99,2.6,6.99.44-5.39-.47-10.79-1.12-16.13-.94-4-1.42-8.29-3.72-11.79ZM475.42,507.03c-.53,5.06-1.44,10.17-.99,15.27,1.46-1.77,1.87-4.06,2.43-6.21,1.7-7.08,3.38-14.39,2.42-21.71-2.4,3.77-2.95,8.36-3.86,12.65ZM508.62,508.72c-1.83,9.33-4.06,18.73-3.7,28.3,3.62-5.9,4.66-12.94,6.31-19.56,1.12-3.2-1.37-5.98-2.61-8.74ZM397.79,518.27c1.58,6.36,2.65,13.1,6.13,18.76.29-9.08-1.54-18.09-3.55-26.89-1.28,2.5-3.61,5.13-2.58,8.13ZM524.56,520.92c-1.89,7.5-4.06,15.04-4.19,22.83,4.41-6.34,6.25-14.21,8.2-21.62-1.34-.41-2.68-.81-4.01-1.21ZM380.33,522.87c2.19,7.1,3.77,14.77,8.14,20.88-.15-7.58-2.15-14.94-4.07-22.23-1.37.44-2.72.89-4.07,1.35ZM361.38,528.95c3.17,8.11,5.66,17,11.53,23.61-1.43-8.57-4.84-16.65-7.72-24.8-1.28.39-2.55.79-3.81,1.19ZM543.7,527.49c-2.82,8.27-6.34,16.4-7.77,25.07,5.9-6.65,8.39-15.59,11.58-23.74-1.27-.46-2.54-.9-3.81-1.33ZM390.38,553.71c4.6-1.49,8.84-3.84,13.24-5.81,9.44-4.24,19.06-8.08,28.75-11.69,7.9.97,15.35,4.09,23.18,5.4,9.51-.7,18.4-4.82,27.84-6.01,1.82.16,3.26,1.52,4.87,2.3,7.61,4.19,15.09,8.71,23.23,11.82-11.7-6.42-23.32-13-35.05-19.37-7.62,2.4-14.99,6.26-23.04,6.78-7.16-1.62-13.96-4.48-20.89-6.84-13.93,8.01-28.1,15.59-42.13,23.42ZM351.9,536.87c-.13.7-.39,2.11-.52,2.81,4.6,6.38,9.65,12.71,15.96,17.47-2.47-4.75-5.94-8.87-8.92-13.29-2.03-2.43-3.56-5.57-6.52-6.99ZM541.5,557.15c4.92-3.41,8.57-8.3,12.51-12.74,1.59-2.26,4.86-4.96,2.56-7.86-5.86,6.18-10.68,13.34-15.07,20.6ZM637.28,561.76c-.14-3.1.15-6.21-.11-9.3-2.73,7.93-2.54,16.6-5.78,24.38-2.38,5.6-4.26,11.38-6.43,17.05.69-7.38,1.89-14.72,2-22.14-3.72,11.63-5.3,23.82-6.86,35.89-.13,1.5-1.42,2.5-2.23,3.67-2.74,3.23-5.06,6.79-7.66,10.13-1.72-5.59-2.29-11.49-4.51-16.93-.4,6.79,1.07,13.48,1.57,20.22-5.3,7.17-10.76,14.34-16.75,20.96-1.58-7.98-2.88-16.01-4.83-23.91-.35,9.34,1.33,18.6,1.62,27.92-4.51,6.8-9.98,13.09-15.21,19.4-1.26-8.81-1.92-17.76-4.25-26.37-.36,10.33.82,20.66.65,30.97-4.94,6.57-10.15,12.97-15.47,19.23-.69-5.48-.99-11.02-2.17-16.42-1.54,6.64-.79,13.54-1.24,20.29-3.51,5.51-8.22,10.22-12.62,15.05-.53-3.46-.81-6.98-1.96-10.29-1,4.51-.76,9.15-1.35,13.7-3.8,5.16-8.71,9.43-12.27,14.78,5.39-4.29,10.4-9.04,15.64-13.52,4.71-4.3,9.93-8.12,13.95-13.12,24.87-28.79,49.71-57.59,74.67-86.3,1.41-1.56,1.68-3.72,2.24-5.66,5.97-23.55,12.64-46.92,18.41-70.51-2.84,7.01-4.99,14.39-9.05,20.83ZM382.52,563.78c-2.48,1.79-5.43,3.49-6.68,6.44-6.55,13-13.41,25.85-20.11,38.77,1.05,8.16.88,16.42,1.41,24.63-.06,3.33,3.1,5.24,4.9,7.65,8.41,9.86,17.39,19.2,26.09,28.8-.04-2.8-.16-5.62.29-8.39,4.18,6.51.78,15.13,5.51,21.33.01-8.13-.26-16.29.65-24.38,2.84,8.59,1.96,17.88,2.87,26.79l.86-.76c1.83-8.53,1.38-17.78,5.06-25.81.18.53.53,1.59.71,2.12.07,8.4-1.93,16.67-2.65,25.02.48.02,1.44.06,1.92.09,3.01-5.82,5.37-12.02,9.19-17.38,6.11,1.83,11.23,5.8,16.84,8.7,5.91-9.32,12.43-18.24,18.08-27.71.27-5.02-.13-10.13-.89-15.09-8.01-10.27-17.42-19.59-24.04-30.9-1.23-6.13-1.07-12.45-1.29-18.68-4.01-2.98-8-6.17-10.72-10.44,7.27,2.01,13.99,5.68,21.29,7.59,12.75,2.29,25.73.99,38.59,1.02,11.14.74,20.13-7.47,30.86-8.94-3.83,4.1-8.93,6.76-13.24,10.33-.51,6.47.09,13.15-1.53,19.47-6.63,11.01-15.78,20.19-23.61,30.3-1.38,4.9-1.21,10.21-1.2,15.29,5.59,9.49,12.24,18.33,17.99,27.73,5.38-2.61,10.21-6.35,15.87-8.36.36.05,1.07.17,1.43.22,3.2,4.39,5.13,9.56,7.69,14.33.96-1.03,2.86-1.89,2.32-3.61-.64-6.91-2.43-13.8-1.73-20.77l1.08.53c2.47,6.08,2.4,12.89,3.75,19.28.31.45.92,1.36,1.22,1.81.2-.52.58-1.54.77-2.05.42-6.74.61-13.54,2.17-20.13,1.5,6.04.72,12.36,1.12,18.52.96-1.07,2.57-1.88,2.53-3.53.5-4.41,1.18-8.85,2.95-12.95.26,3.04.22,6.08.32,9.13,8.92-9.49,17.81-19.03,26.34-28.89,1.71-2.2,4.61-3.97,4.51-7.08.55-8.28.45-16.61,1.33-24.87-6.35-12.55-13.05-24.95-19.41-37.5-1.91-3.41-3.29-7.25-6.15-10.01-5.75-2.46-12-3.31-18.02-4.88-10.02-2.37-20.05-5.02-30.33-5.9-6.56.7-13.09,1.9-19.35,3.98-3.14,1.17-6.51.3-9.73.13-8.94-.71-17.71-3.02-26.66-3.48-14.08,2.85-27.59,7.92-41.17,12.49ZM271.84,553.79c0,4.75.79,9.45,1.31,14.16-2.15-3.88-3.63-8.07-5.56-12.05,3.87,16.86,7.6,33.74,12.23,50.41.9,3.03.91,6.52,3.18,8.97,5.79,6.87,11.46,13.84,17.26,20.7,17.55,20.14,34.7,40.6,52.58,60.44,9.58,9.13,18.61,18.88,28.72,27.42-1.94-2.73-4.51-4.94-6.38-7.71-.62-4.83-.3-9.77-1.39-14.55-1.21,3.39-1.3,7.04-2.15,10.53-4.21-5.03-8.85-9.82-12.42-15.31-.46-6.75.3-13.65-1.24-20.29-1.19,5.4-1.48,10.94-2.17,16.42-5.33-6.27-10.54-12.66-15.47-19.23-.17-10.32,1.01-20.64.65-30.97-2.33,8.62-3,17.57-4.25,26.38-4.64-5.25-8.77-10.92-13.22-16.33-.82-1.22-2.27-2.34-2-3.97.43-8.75,1.87-17.46,1.65-26.24-2.3,7.54-3.21,15.42-4.85,23.12-6-6.62-11.45-13.79-16.75-20.96.49-6.74,1.96-13.44,1.57-20.23-2.22,5.43-2.76,11.34-4.52,16.91-2.26-3-4.57-5.98-6.65-9.09-4-13.36-6.59-27.13-10.88-40.4.33,7.67,1.75,15.23,3.09,22.77-1.82-5.37-2.93-11-5.57-16.07-2.72-8.14-4.08-16.68-6.77-24.83ZM429.59,589.91c.61,4.75.45,9.7,2.14,14.25,1.02-4.55,1.46-9.21,1.6-13.86-1.25-.13-2.5-.26-3.74-.39ZM440.75,590.46c.2,7.18.84,14.37,2.14,21.45,1.38-7.03,1.95-14.22,2.08-21.37-1.05-.02-3.16-.06-4.22-.08ZM452.09,590.63c-.05,11.15.65,22.33,2.06,33.38,1.85-10.96,2.05-22.19,2.15-33.29-1.41-.04-2.81-.07-4.21-.09ZM463.62,590.9c.11,7.34.51,14.73,1.99,21.94,1.23-7.26,1.87-14.62,1.72-21.98-1.24,0-2.48.02-3.71.04ZM473.95,590.98c.14,4.7.43,9.49,1.91,14,1.14-4.59,1.49-9.31,1.81-14h-3.72ZM301.72,657.39c-.18,20.68-.55,41.37-.81,62.05,2.07,3.6,4.59,7.11,8.13,9.4-3.35-19.15-.68-38.68-1.63-57.96-1.28-4.71-3.61-9.09-5.69-13.49ZM602.74,686.82c.05,13.11.27,26.25.93,39.34,1.53-1.84,3.13-3.66,4.39-5.7.5-3.18.09-6.43.12-9.63-.37-9.73-.2-19.46-.47-29.18-1.83,1.53-3.79,3.06-4.97,5.17ZM427.88,692.41c-1.72,7.03-2.32,14.37-1.8,21.59.84-2.12,1.3-4.36,1.67-6.58,1.37-8.04,3.2-16,4.07-24.11-2.41,2.42-2.94,5.96-3.94,9.1ZM477.45,683.42c.68,7.69,2.45,15.22,3.76,22.82.47,2.68.89,5.39,1.85,7.95.54-6.81-.02-13.72-1.42-20.4-1.03-3.57-1.67-7.48-4.19-10.37ZM412.18,692.77c-2.06,10.66-2.16,21.84.08,32.48.29.31.86.95,1.14,1.27,3.18-1.33,1.02-5.11,1-7.59-2.11-8.58-.87-17.5-2.22-26.16ZM496.9,692.66c-.74,10.82-1.22,21.67-2.98,32.4.99.26,1.99.54,2.99.85,2.01-10.93,2.39-22.36-.01-33.25ZM393.6,709.65c.48-.09,1.44-.28,1.91-.37.07-4.88.55-9.75.55-14.64-1.49,4.84-2.72,9.91-2.46,15.01ZM513.12,694.72c.06,5.74.3,11.5,1.08,17.19.5-.38,1.49-1.15,1.99-1.53-.71-5.27-1.39-10.6-3.07-15.66ZM433.72,696.7c-1.07,9.33,1.19,18.8,5.28,27.18-1.24-8.35-2.65-16.68-3.97-25.01-.04-.99-.47-1.71-1.31-2.17ZM473.35,703.78c-.92,6.43-2.36,12.81-2.82,19.3,3.78-8.22,6.25-17.56,4.76-26.64-1.63,2.09-1.35,4.89-1.94,7.34ZM402.38,718.81c-.31,1.65,1.79,1.73,2.85,2.17-.23-6.76-.98-13.48-1.42-20.22-1.32,5.91-1.29,12.02-1.43,18.05ZM503.92,720.75c.68.29,2.03.87,2.7,1.16.38-7.05-.09-14.13-1.07-21.1-.89,6.61-1.23,13.28-1.63,19.94ZM461.4,726.72c4.4-5.14,8.52-11.18,8.97-18.14-4.2,5.31-6.38,11.95-8.97,18.14ZM438.97,708.95c.32,6.57,4.15,12.52,8.55,17.19-2.43-5.88-4.53-12.19-8.55-17.19ZM563.73,779.89c7.18-9.22,14.1-18.67,20.82-28.21-1.21-11.62-1.5-23.34-2.51-34.99-6.77,20.87-12.27,42.11-18.31,63.2ZM536.51,743.91c-10.83,8.01-21.68,16.18-33.8,22.16-4.92,2.64-10.63,2.16-15.99,2.87-5.1.45-10.23.54-15.31,1.12-19.12.86-38.13,3.97-57.28,3.69-3.85,2.79-6.97,6.46-10.7,9.42,7.81,6.82,16.17,13,24.37,19.34,13.09,9.91,27.47,17.96,40.48,27.98,20.42-12.39,40.23-25.77,60.71-38.06,2.53-1.71,6.17-2.64,6.98-5.98,8.15-21.17,17.04-42.05,26.05-62.86-8.35,6.97-16.77,13.85-25.51,20.32ZM220.59,729.02c-2.49,2.59-4.7,5.44-6.84,8.33-1.61,1.53-.33,3.72-.32,5.59-.99-1.1-1.95-2.21-2.92-3.32-8.8,3.42-17.49,7.11-26.24,10.66,2.52,4.86,5.8,9.29,8.98,13.74,8.43-2.91,16.91-5.64,25.45-8.19-.81-2.13-1.66-4.25-2.21-6.46,1.81,1.06,3.07,2.77,4.43,4.34,1.92-3.41,3.79-7.07,6.82-9.63,4.22-1.02,8.61-.23,12.89.02-2.29-5.07-5.08-9.9-7.63-14.84-4.14.1-8.27-.11-12.41-.24ZM676.62,729.22c-2.75,4.76-5.3,9.65-7.17,14.83,4.16-.24,8.49-1.05,12.57.16,2.82,2.7,4.7,6.19,6.69,9.52,1.26-1.58,2.54-3.16,4.16-4.39-.47,2.17-1.21,4.28-1.92,6.39,8.13,2.75,16.36,5.22,24.48,8.05,3.27-4.45,6.29-9.09,9.21-13.77-8.59-2.91-16.66-7.15-25.22-10.14-1.57.35-2.34,2.09-3.54,3.06.25-1.39.54-2.77.86-4.14-2.37-3.37-4.9-6.63-7.65-9.69-4.16-.04-8.31.31-12.47.12ZM222.26,755.92c6.11,9.15,11.21,18.92,16.63,28.49,5.93,10.53,11.64,21.2,16.7,32.18,1.49,3.69,2.98,7.43,5.53,10.55-.13-7.38.82-14.83.41-22.16-5.8-10.31-11.84-20.52-17.15-31.11-5.77-8.41-10.04-17.71-14.38-26.91-2.68,2.9-4.96,6.14-7.74,8.96ZM679.41,752.94c-2.43,6.68-6.88,12.32-10.59,18.31-6.55,10.31-13.64,20.42-18.66,31.57.48,4.5,1.1,9,1.77,13.49.53.01,1.58.05,2.11.07,3.51-9.02,8.64-17.28,13.15-25.81,6.62-11.6,12.66-23.55,20.11-34.66-1.86-1.86-3.51-3.9-5.23-5.86-1.76-.35-1.96,1.78-2.66,2.89ZM276.69,751.83c.05,35.34,1.08,70.68,1.23,106.02.12,2.24-.41,4.64.38,6.79,3.45,3.54,7.23,6.75,10.88,10.09.03-20.63.33-41.27-.75-61.88-.36-12.01-.18-24.03-.09-36.04-.04-2.07.21-4.25-.79-6.14-2.58-5.48-4.94-11.07-7.38-16.61-.53-1.46-2.29-1.6-3.48-2.23ZM625.46,762.77c-1.26,3.67-3.4,7.13-3.78,11.04.37,18.01.87,36.07-.48,54.06-.82,15.11-.51,30.26-.43,45.39,3.8-3.21,7.56-6.5,10.94-10.14.27-1.4.19-2.83.22-4.22-.01-35.61.68-71.21.89-106.81-4.89,1.38-5.55,6.72-7.36,10.68ZM696.48,766.08c.77,8.39-.67,16.73-.88,25.11,5.12-6.27,9.81-12.9,14.44-19.55-4.48-1.96-9.04-3.69-13.56-5.56ZM202.99,776.77c-.85.77.14,3.01,1.33,2.35.92-.87.02-3.22-1.33-2.35ZM298.76,792.56c-.87,6.07-.28,12.23-.52,18.34-.54,23.53-2.26,47.04-1.59,70.59.94.69,1.89,1.39,2.85,2.1.18-28.93.04-57.87.14-86.81.05-1.47-.15-2.94-.88-4.22ZM609.88,805.85c.07,25.6.01,51.2.14,76.8,1.01-.75,2.03-1.49,3.06-2.22.05-14.87.13-29.73.11-44.59-.42-12.73-1.31-25.43-1.34-38.16-1.11,2.59-2.18,5.29-1.97,8.17ZM389.23,799.76c4.54,7.5,9.02,15.14,14.29,22.16,17.19,5.4,35.18,7.59,52.91,10.56-10.04-5.02-19.95-10.3-29.75-15.78-12.39-5.85-24.67-12.01-37.45-16.94ZM371.23,814.22c7.99,10.62,16.4,20.94,23.94,31.9,2.29,2.52-.87,6.26,1.1,8.9,3.23,4.85,6.29,9.81,9.33,14.78,2.42-.24,5.23-1.36,7.24.65,2.71,2.6,3.24,6.66,5.12,9.84,4.03,2.76,8.47,4.93,12.82,7.14,3.49.71,7.11.49,10.66.68,10.96.05,21.9.87,32.87.92-6.34,4.85-14,7.41-21.34,10.31-8.08,3.06-16.07,6.49-24.5,8.54,4.72,12.5,9.64,24.93,14.48,37.38,5.52-.67,10.99.91,16.53.45,3.1-.44,5.7,1.28,7.84,3.31.89-4.44,3.1-8.4,4.67-12.59,6.13-16,12.49-31.91,18.42-47.98-3.02-.03-6.05-.09-9.03-.66,3.2-3.73,8.8-4.24,12.24-7.74,2.2-3.69,2.57-9.16,7.15-10.83,2.93-.12,5.66,1.39,8.58,1.58,5.43-1.52,6.36-7.98,9.6-11.86-2.32-3.78-3.74-8.01-5.28-12.13,1.21-3.34,4.08-5.75,6.12-8.58,6.05-7.56,11.81-15.34,17.69-23.03-12.13,6.45-24.66,12.12-37.32,17.44-4.59,1.23-9.38,1.46-13.98,2.72-11.35-.19-22.49,3.59-33.87,2.17-12.94-.95-25.86-2.13-38.69-4.07-2.89-.35-5.62-1.34-8.16-2.73-11.67-4.93-23.36-9.96-34.23-16.51ZM313.76,851.94c-1.39,2.56-.87,5.47-.61,8.23,11.15,7.34,22.11,15.15,34.15,21,.02-2.08,0-4.14.01-6.19-7.95-5.67-15.85-11.41-23.33-17.69-3.06-2.31-5.97-5.86-10.22-5.35ZM587.87,853.34c-8.84,7.78-17.51,15.77-25.78,24.16-1.51,1.21-1.57,3.2-1.84,4.97,2.64-.64,4.97-2.07,7.24-3.51,8.9-5.72,17.82-11.41,26.61-17.29-.14-3.08.09-6.18-.44-9.2-1.58-2.11-4.32-.52-5.79.87ZM495.72,964.09c-2.93,3.01-5.48,6.95-5.86,11.26-8.77,14.9-18.13,29.48-26.64,44.53,12.57-4.53,24.35-10.93,36.2-17.04,2.76-1.19,4.11-3.99,5.73-6.32,10.48-15.48,21.02-30.92,31.76-46.21,5.66-5.15,9.32-11.97,13.69-18.16-17.71,11.62-36.14,22.09-54.88,31.94ZM445.73,949.02c-3.05,4.68-6.16,9.35-8.78,14.3-1.2,1.6.71,2.94,1.37,4.32,1.7-1.26,3.27-2.72,4.32-4.57,2.2-3.66,4.86-7.15,6-11.33,2.77-.57,5.64-.42,8.06,1.2,2.34,1.46,4.95-.18,7.08-1.25-.81-1.26-1.51-3.16-3.37-2.76-4.89.18-9.79-.01-14.68.09ZM450.59,953.68c.3,7.9-.42,15.87.4,23.72.44.34,1.33,1.02,1.78,1.36.85-3.58.4-7.29.71-10.92.05-4.59.53-9.37-.99-13.77-.48-.1-1.43-.29-1.9-.39ZM455.06,980.95c2.28,1.12,4.48,3.12,7.22,2.53,6.79-1.04,13.17-3.72,19.45-6.4,3.08-.91,2.3-4.96,3.12-7.41-9.69,4.35-19.33,9.07-29.79,11.28ZM424.13,974.96c5.52,2.26,11.08,4.86,17.07,5.52-4.16-4.38-10.04-6.45-15.11-9.55-.66,1.33-1.32,2.67-1.96,4.03Z"/>
    <path d="M236.03,118.63c12.81-5.46,25.71-10.75,38.29-16.75-7,10.76-11.82,22.7-17.94,33.95-9.96,19.06-18.55,38.8-27.66,58.27,1.04-17.09,2.75-34.15,3.74-51.25.52-8.16,1.93-16.23,3.57-24.22Z"/>
  </g>
  <g>
    <path class="cls-1" d="M450.52,12.07c15.58-3.59,31.18-7.09,46.79-10.58,3.76,2.49,7.54,4.95,11.3,7.45-22.34,5.53-44.76,10.73-67.03,16.56,2.8,29.11,2.4,58.42,4.41,87.57-6.41,1.24-12.49,3.69-18.67,5.74-7.67,2.84-15.47,5.43-22.75,9.21-5.79,3.26-12.27,4.97-18.4,7.44-21.63,7.86-42.8,16.9-63.77,26.36-2.21.91-4.24,2.19-5.98,3.83,1.44-4.76,1.75-10,4.58-14.24,3.24-2.56,7.1-4.2,10.61-6.36,14.14-8.38,28.23-16.92,43.22-23.72,1.89-1.05,4.71-1.5,5-4.09,7.41-28.12,17.97-55.27,28.12-82.48-4.08.95-8.21,1.85-12.13,3.34-2.23,1.85-3.65,4.48-5.41,6.74-16.97,23.23-32.86,47.2-49,71-4.82,7.1-10.35,13.69-15.46,20.57-.85,1.21-1.98,2.19-3.41,2.6.88-3.74,3.01-7.02,4.21-10.65,1.52-4.5,2.55-9.21,4.81-13.43,4.31-8.12,8.26-16.43,12.31-24.68,7.63-15.7,15.77-31.17,22.88-47.13,1.57-4.58,6.85-7.4,6.17-12.78,3.48-1.51,7.23-2.19,10.89-3.15,22.11-5.58,44.44-10.24,66.71-15.12Z"/>
    <path class="cls-1" d="M452.52,30.22c9.09-2.26,18.07-4.91,27.16-7.18-8.7,25.34-17.62,50.62-26.61,75.86-.14-22.89-.68-45.79-.55-68.68Z"/>
    <path class="cls-1" d="M522.94,34.72c2.71,5.66,2.94,11.99,3.75,18.1,5.03,34.03,11.67,67.81,18.81,101.45-7.3-5.07-13.44-11.57-20.36-17.1-2.17-1.37-1.71-4.19-2.06-6.37-.79-10.95-1.62-21.94-1-32.91.45-8.03.82-16.06,1.47-24.07,1.58-13.03-2.71-26.07-.61-39.1Z"/>
    <path class="cls-1" d="M548.33,36c44.44,44.59,90.39,87.66,137.25,129.7,2.29,1.6,2.35,4.55,3.02,7.01,12.39,54.95,25.62,109.71,38.67,164.5,3.65,12.82,5.6,26.07,8.78,39.02,2.2,10.19,5.51,20.2,6.22,30.66-8.57-28.79-19.46-56.8-29.74-84.99-3.58-6.83-9.99-11.59-14.8-17.5-.15-.73-.44-2.2-.58-2.94,1.06,1.09,2.06,2.27,3.08,3.42,2.71-8.41,5.7-16.74,8.2-25.22.77-1.8-.09-3.63-.52-5.38-7.92-27.81-15.06-55.84-23.51-83.49-.68-2.63-3.06-4.22-4.86-6.07-29.29-28.77-56.55-59.51-83.51-90.45-13.13-15.26-26.12-30.63-38.76-46.3-3.1-3.9-6.34-7.71-8.94-11.97Z"/>
    <path class="cls-1" d="M299.71,78.1c19.17-11.53,38.74-22.51,59.26-31.49-2.42,5.46-5.17,10.77-7.58,16.24-.49,1.43-1.66,2.37-2.99,2.97-17.32,8.81-34.64,17.63-52.28,25.8-1.44.74-3.23,1.36-3.72,3.09-12.52,30.09-23.24,60.93-32.61,92.14,14.51-6.9,28.27-15.91,43.98-19.96-6.84,5.79-14.74,10.17-22.17,15.14-11.77,7.55-23.31,15.5-35.48,22.41-1.21.42-2.66-.81-3.64.46-6.96,5.68-14.42,11.08-19.71,18.46-7.21,19.02-14.76,37.98-20.31,57.59-3.58,13.56-8.58,26.67-12.69,40.07-4.95,15.2-9.34,30.57-14.2,45.79,6.65-29.38,13.64-58.68,20.57-88,12.72-52.71,24.68-105.6,36.75-158.46,21.71-14.95,44.19-28.75,66.82-42.25ZM236.03,118.63c-1.64,7.99-3.05,16.06-3.57,24.22-.99,17.1-2.7,34.16-3.74,51.25,9.11-19.47,17.7-39.21,27.66-58.27,6.12-11.25,10.94-23.19,17.94-33.95-12.58,6-25.48,11.29-38.29,16.75Z"/>
    <path class="cls-1" d="M673.74,133.09c11.32,5.48,22.63,11,33.78,16.82-1.56,2.43-3.96,4.18-5.36,6.71-2.77,4.75-5.42,9.57-8.22,14.31-.87-1.9-1.34-4.15-3.04-5.52-8.04-6.8-15.31-14.43-22.98-21.63,1.89-3.59,3.85-7.14,5.82-10.69Z"/>
    <path class="cls-1" d="M208.49,146.02c3.78-1.86,7.5-3.89,11.4-5.51-2.13,9.61-5.55,18.87-8.46,28.26-1.44,3.91-2.33,8.06-4.25,11.78-13.19,7.21-26.65,14.01-39.9,21.16,5.42-12.54,11.56-24.75,16.98-37.28-3.27,1.56-7.28,2.8-8.92,6.36-6.07,11.64-11.76,23.48-17.78,35.15-.93,2.1-3.32,2.78-5.13,3.91-30.6,16.77-60.68,34.45-90.59,52.42-3.47,2.03-6.86,4.23-10.49,5.99,5.36-13.2,12.4-25.66,18.09-38.72-1.74.98-3.37,2.14-4.93,3.37-16.73,12.88-33.45,25.78-49.39,39.63-1.53,1.36-3.28,2.96-2.88,5.25.93,32.85,3.6,65.66,7.77,98.26,6.14-14.78,11.47-29.96,18.49-44.34,2.54,33.89,6.52,67.71,12.73,101.14.61,2.19.46,4.46-.36,6.58-3.96,11.86-7.82,23.75-11.33,35.76-1.16,3.42.36,6.93,1.07,10.29,1.15,3.86,1.6,7.97,3.39,11.62,4.34-11.44,8.69-22.88,13.1-34.29,4.48,17.51,8.55,35.14,13.8,52.45.24,1.46,1.32,3,.63,4.48-3.21,8.49-6.86,16.81-10.09,25.3-.93,1.81-.1,3.76.35,5.58,3.98,13.38,7.45,26.91,11.59,40.25,1.59,4.83,2.75,9.99,6.14,13.96,9.69,15.8,16.27,33.2,23.89,50.04,8.88,20.07,18.68,39.72,28.87,59.16,3.3,6.03,6.13,12.34,9.86,18.13,5.67,9.01,11.71,17.79,16.85,27.12,4.72,9.19,12.34,16.36,18.31,24.69,11.62,16.07,22.46,32.71,34.75,48.29,4.75,5.76,8.86,12.03,13.84,17.6,3.26-7.35,6.76-14.59,9.87-21.99-.78-1.31-1.55-2.6-2.27-3.92,11.8,14.16,24.73,27.36,37.93,40.21-3.96,10.14-8.41,20.1-12.85,30.04-53.02-51.43-96.38-112.2-131.6-176.97-41.61-75.44-73.16-156.4-93.82-240.04C15.52,406.11,5.43,333.18,3.08,259.99c9.15-4.44,17.84-9.77,26.66-14.81,31.33-18.42,62.56-37.01,94.41-54.54,27.81-15.43,55.97-30.23,84.34-44.62Z"/>
    <path class="cls-1" d="M422.31,182.52c17.67-3.3,35.41-6.3,53.16-9.18,22.63,8.73,45.36,17.41,68.44,24.92,1.77,9.06,1.89,19.45,8.56,26.58,5.54,6.41,11.18,12.95,18.38,17.56,1.78,1.23,3.69,2.31,5.27,3.8,3.79,11.9,8.43,23.64,14.52,34.56-15.31-1.96-30.77-1.93-46.17-1.65-2.79.12-5.82-.1-8.21,1.6-11.84,7.15-23.24,15.15-33.39,24.57-3.42,3.13-6.35,6.73-9.03,10.49-3.6-5.08-7.78-9.74-12.32-14-3.41-3.58-8.73-2.09-13.1-2.37-12,.43-24.01-.19-36.01.09-3.64-.06-5.29,3.59-7.68,5.66-3.72,2.98-6.6,6.81-9.48,10.56-4.57-6.87-10.79-12.39-17.17-17.54-8.01-6.5-16.58-12.29-25.41-17.61-1.29-.82-2.78-1.25-4.3-1.29-23.34-.85-46.93-.26-69.82,4.81-6.04,1.38-12.3,2.74-17.4,6.46-6.3,4.08-11.17,9.83-16.77,14.72,2.41-11.83,4.09-23.81,5.91-35.76.16-2.26,1.55-4.1,2.97-5.75,7.29-8.5,13.68-17.72,20.48-26.59,19.63-13.23,39.7-25.85,60.13-37.84,3.78-2.24,8.21-2.83,12.41-3.9,18.68-4.28,37.14-9.57,56.03-12.9Z"/>
    <path class="cls-1" d="M66.78,265.24c47.88-28.29,96.15-56,145.86-80.97-3.44,14.99-7.65,29.8-11.25,44.75-16.49,67.42-32.44,134.98-46.66,202.91-5.19,25.24-10.1,50.54-13.95,76.02-1.95,13.55-4.26,27.15-3.98,40.9.14,4.99-1.17,10.2.57,15.04,5.96,12.78,9.99,26.36,15.76,39.24,6.8,15.24,13.49,30.61,22.07,44.95,11.33,12.27,23.79,23.5,36.17,34.7,3.34,9.53,7.7,18.71,12.14,27.8-3.94-1.68-8.19-4.74-12.62-3.25-4.84,4.75-8.27,11.03-10.51,17.41-8.85,3.08-17.85,5.73-26.67,8.9-21.12-34.63-39.96-70.65-56.42-107.72-45.72-103.71-71.51-215.97-77.16-329.11-.2-5.51-.76-11.01-.54-16.52,9.34-4.5,18.19-9.93,27.19-15.05Z"/>
    <path class="cls-1" d="M696.83,184.7c36.08,18.35,71.57,37.85,106.6,58.14,21.91,12.56,43.37,25.92,65.71,37.74-4.48,128.57-34.45,256.59-90.52,372.54-13.17,27.28-27.61,53.97-43.43,79.81l-.76.2c-8.31-2.86-16.71-5.46-25.04-8.26-2.65-6.22-5.73-12.61-10.57-17.45-4.35-1.73-8.58,1.47-12.55,2.88,3.96-8.95,8.64-17.62,11.52-27.01,8.45-8.21,17.59-15.77,25.8-24.27,4.44-4.88,10.17-8.78,13.08-14.88,12.28-22.74,22.58-46.52,31.36-70.81,1.61-5.18,5.54-9.77,5.04-15.46-.6-8.34-.08-16.73-1.03-25.04-1.53-14.15-3.76-28.21-6.09-42.24-7.41-43.23-16.84-86.09-26.46-128.87-13.51-59.18-27.39-118.28-42.66-177.02Z"/>
    <path class="cls-1" d="M294.38,222.82c.9-.99,2.04-1.5,3.42-1.55-5,8.44-10.86,16.35-16.96,24.02-4.39,5.94-8.68,11.95-13.22,17.78-3.12,3.69-1.97,8.93-3.53,13.23-13.45,10.77-29,18.43-43.27,27.99-2.35,1.45-3.09,4.22-4.44,6.46,1.43-4.13,3.29-8.09,4.76-12.2.71-1.8,1.27-3.85,2.94-5.02,12.97-10.04,25.81-20.24,38.76-30.29,2.51-1.91,3.93-4.79,5.7-7.32,2.89-4.46,6.2-8.62,9.08-13.07-2.13,1.24-4.12,2.71-6.18,4.07,1.21-1.66,2.56-3.22,3.68-4.95-2.7.99-5.04,2.67-7.58,3.96,8.42-8.32,18.75-14.45,26.84-23.11Z"/>
    <path class="cls-1" d="M842.34,228.94c.93-1.17,1.94-2.29,2.93-3.42,19.25,11.24,38.38,22.67,57.8,33.61,3.07,1.07,2.22,4.43,2.25,6.96-15.32-8.62-30.29-17.86-45.56-26.6-5.78-3.55-11.94-6.54-17.42-10.55Z"/>
    <path class="cls-1" d="M594.02,228.22c1.93.93,3.85,1.68,5.91.72,20.82,11.57,39.73,26.29,58.41,41,6.2,5.48,13.29,9.95,19.05,15.91,6.84,9.39,14.7,17.96,22.62,26.43,2.33,2.66,4.97,5.13,6.78,8.21,7.1,20.95,15.18,41.58,22.27,62.55,7.15,21.95,14.37,43.89,21.23,65.94,5.93,28.11,12.57,56.17,15.78,84.78.98,8.33,1.86,16.69,2.47,25.06-.49,4.05-1.45,8.11-3.31,11.76-6.42,13.63-13.12,27.12-19.21,40.9-5.6,11.89-10.94,23.96-17.78,35.2-18.46,19.91-39.36,37.35-59.58,55.41-7.79,6.88-15.67,13.67-23.54,20.46-1.77,1.53-3.81,3.19-4.09,5.69-.9,5.42-.98,10.97-2.22,16.34-3.84-4.11-10.81-4.08-14.61.04-3.54,4.15-6.08,9.02-9.02,13.58-.49-1.14-.98-2.26-1.45-3.38,6.29-5.65,7.99-14.33,12.64-21.1,1.84-2.62,5.51-.95,8.17-1.09.98-2.3-1.84-4.25-.69-6.41,2.86-5.49,7.25-10.01,11.72-14.21,22.52-20.99,46.81-39.96,70.87-59.13,2.15-1.82,4.61-3.32,6.45-5.48,2.13-12.4,6.79-24.16,10.99-35.96,6.6-16.34,14.32-32.22,22.31-47.93,1.08-2.06.29-4.41.43-6.6.47-4.49,4.81-8.21,3.5-12.92-6.83-38.44-15.34-76.56-22.05-115.02-.59-3.29-.91-6.65-1.87-9.86-6.51-17.85-12.78-35.79-19.55-53.54-5.56-14.49-9.99-29.37-14.59-44.18-.51-2.04-2.81-2.62-4.14-3.99-3.36-4.31-7.75-7.62-11.69-11.35-15.03-13.74-30.92-26.48-46.73-39.29-12.85-10.81-25.85-21.44-38.71-32.23-2.36-2-4.7-4.02-6.77-6.31Z"/>
    <path class="cls-1" d="M588.84,265.09c2.28.96,4.86,1.89,6.2,4.15,2.74,4.24,5.15,8.7,7.58,13.14-2.37-.65-6.16.36-7.12-2.6-2.19-4.92-4.91-9.6-6.66-14.69Z"/>
    <path class="cls-1" d="M689.63,267.05c3.16-.19,5.9,1.73,8.57,3.15.45,3.21-1.13,6.13-2.16,9.06-2.1,5.47-3.88,11.09-6.55,16.32-3.87-3.91-7.81-7.74-11.57-11.73,2.75-4.14,5.66-8.18,7.96-12.59,1.01-1.54,1.88-3.61,3.75-4.21Z"/>
    <path class="cls-1" d="M292.49,288.96c21.72-5.82,44.34-6.92,66.69-7.66-22.7,1.61-45.39,4.48-67.56,9.76-2.96.55-5.01,2.93-7.26,4.73-11.45,9.61-22.24,20.02-32.33,31.05.76,7.97.76,15.98.96,23.98-2.35-6.75-1.58-14-2.12-21.01-.04-2.12-.47-4.61,1.34-6.17,7.27-8.04,14.33-16.3,22.25-23.73,5.23-4.73,11.05-9.23,18.03-10.95Z"/>
    <path class="cls-1" d="M369.87,281.09c2.21,1.48,4.4,2.98,6.51,4.62-1.34,1.61-1.99,4.28-4,5.06-2.05-.83-3.87-2.13-5.77-3.23,1.09-2.15,2.22-4.27,3.26-6.45Z"/>
    <path class="cls-1" d="M496.6,315.98c12.11-14.1,27.51-24.87,43-34.91,5.96-.3,11.94.23,17.9.4,17.64.98,35.42,1.87,52.66,5.93-12.21-1.06-24.44-2.17-36.7-2.47-1.99-.14-3.09,2.3-5.05,2.25-5.67-.02-11.33-.22-17-.16.32-1.02.64-2.04.97-3.05-3.61-.02-7.24-.67-10.81-.19-14.35,9.05-27.33,20.06-40.54,30.65-.85.6-1.31,1.42-1.38,2.48-3.17,14.81-6.05,29.75-6.97,44.9-.85-10-.47-20.07.11-30.07,0-3.88,1.93-7.36,2.55-11.13.39-1.55.45-3.23,1.26-4.63Z"/>
    <path class="cls-1" d="M871.96,281.41c2.37,4.02,1.88,8.92,2.27,13.41.11,24.76-4.15,49.26-7.3,73.74-.37-2.05.25-4.08.32-6.13,2.92-26.91,4.11-53.98,4.71-81.02Z"/>
    <path class="cls-1" d="M256.23,303.55c.97-3.73,3.72-6.56,5.88-9.63-.39,4.89-1.11,9.83-.35,14.72-2.99,2.82-5.03,6.75-8.82,8.61.77-4.64,2.06-9.17,3.29-13.7Z"/>
    <path class="cls-1" d="M431.97,303.35c2.69-.97,5.64-.51,8.45-.62,11.94-.11,23.91-.33,35.83.3,3.94,1.68,6.49,5.53,9.61,8.37,2.29,2.6,5.25,4.67,6.99,7.72-4.59-1.98-7.82-6-11.69-9.02-2.38-1.74-4.33-4.96-7.69-4.36-13.65.59-27.32-.11-40.98-.05-5.93,4.04-9.66,10.74-16,14.25-.18-2.22,1.86-3.43,3.18-4.85,4.15-3.85,7.63-8.48,12.3-11.74Z"/>
    <path class="cls-1" d="M236.13,310.56c2.04-2.32,4.9-3.73,7.59-5.16-.57,4.82-1.7,9.64-1.1,14.53-2.26.86-4.99,1.09-6.7,2.96-.23,3.94.44,7.86.81,11.78-2.27.24-4.52.61-6.74,1.1,1.47-5.53,3.18-10.99,4.68-16.52.81-2.85-.32-6.09,1.46-8.69Z"/>
    <path class="cls-1" d="M435.23,313.8c6.68-.94,13.41-1.82,20.16-2.12,7.18.81,14.47,1.11,21.52,2.8,4.84,2.07,8.94,5.48,13.21,8.51-.28,2.96.21,5.91.12,8.88-.13,8.69-1.86,17.28-1.66,25.98.02,9.83,1.07,19.85,4.86,29,3.36,8.15,7.7,15.93,13.11,22.89,9.11,11.03,21.99,18.66,35.76,22.27,11.43,2.96,23.25,4.69,35.07,4.37,8.98-.83,18.15-.8,26.81-3.68,14.52-4.77,27.68-13.96,36.75-26.32,6.16-8.35,11.53-17.51,14.26-27.59.27,27.36-.43,54.72-1.06,82.08-.44,15.28-.19,30.59-.89,45.85-3.23,9.43-5.78,19.13-9.6,28.38-1.64,3.85-2.64,7.93-4.28,11.78-.22-3.18-.45-6.38-1.27-9.47-.68.83-1.2,1.74-1.56,2.74-2.57,8.58-4.39,17.37-6.72,26.02-.39-4.26-1.06-8.51-2.89-12.42-2.6,10.85-6.34,21.38-9.3,32.12.81-7.79,2.1-15.67.76-23.48-2.61,3.83-4.24,8.19-6.04,12.43-6.19,12.72-12.12,25.57-18.51,38.19-.43-5.07-.64-10.17-1.57-15.19-5.38,2.63-8.98,7.61-13.2,11.67-3.58,3.42-6.33,7.74-10.48,10.52,1.12-11.38,4.79-22.56,4.44-34.07-1.62-7.96-2.33-16.1-4.69-23.89-2.23-9.8-6-19.16-9.69-28.48-.68-1.2-.96-3.06-2.49-3.43-14.04-4.7-28.09-9.5-41.69-15.33-5.85-8.26-8.24-18.49-14.03-26.78,3.96-2.35,6.96-6.58,11.78-7.19,3.63-1.09,7.75-1.88,10.44-4.76,2.23-3.35,3.13-7.36,4.6-11.05,4.74,3.25,9.07,7.18,14.3,9.66,1.74,1.98,3.04,4.31,4.82,6.27-3.47-7.58-8.07-14.57-12.38-21.69-4.84-7.21-8.5-15.18-14.07-21.9-4.04-4.83-7.81-10.02-12.83-13.88,1.75,5.34,5.63,9.49,8.33,14.33,2.95,5.1,6.73,9.75,9.1,15.18-.07,4.05-1.55,7.9-2.55,11.78-3.91-1.13-6.59-4.35-9.66-6.8-5.97-5.08-12.98-8.68-19.84-12.38.11-4.28.28-8.6-.64-12.81-2.1,2.82-2.25,7.13-5.61,8.86-6.27,3.96-11.88,8.88-18.11,12.88-7.84.8-15.79.75-23.68.92-6.21-3.45-11.16-9.26-18.08-11.66-1.65.67-3.29,1.37-4.93,2.06-.46-2.87-1.37-5.79-.69-8.68.67-3.84,3.97-6.52,4.56-10.39,4.95-18.82,10.15-37.64,12.92-56.94.92-6.64,2.66-13.25,2.43-19.99-.98-3.47-3.19-6.44-4.33-9.86-2.76-7.62-6.73-14.7-10.53-21.82,2.95-1.83,5.85-4.06,9.44-4.37Z"/>
    <path class="cls-1" d="M406.69,319.12c2.84.31,2.94,3.59,3.29,5.76.57,9.36,2.99,18.5,3.47,27.87,1.98,6.52.92,13.39,1.24,20.1.46,5.97-2.06,11.54-4.41,16.86-3.15,6.74-6.93,13.23-11.59,19.04.35-3.68,1-7.33,1.16-11.02-2.66,2.61-4.29,6.21-7.56,8.2,8.11-10.41,15.41-22.07,17.65-35.28,2.87-17.2-.12-34.61-3.25-51.53Z"/>
    <path class="cls-1" d="M239.89,324.8c3.57-1.23,7.13-2.49,10.57-4.05-2.47,3.16-2.18,7.26-2.46,11.05-2.51-.82-5.01-1.67-7.56-2.34-.19-1.56-.39-3.11-.55-4.66Z"/>
    <path class="cls-1" d="M658.36,320.63c3.54,1.55,7.15,2.94,10.84,4.1-.1,1.47-.2,2.96-.29,4.44-2.54-.25-5.58.81-7.67-1.06-.56-2.66-.94-5.41-2.88-7.48Z"/>
    <path class="cls-1" d="M652.14,329.01c.48-.01,1.45-.02,1.94-.02.87,7.72-.53,15.48-2.32,22.97.06-7.66.39-15.31.38-22.95Z"/>
    <path class="cls-1" d="M231.52,350.77c.51-2.85,1.17-5.72,2.67-8.22.21,8.77.22,17.56.26,26.35.78,24.04,2.94,48.02,5.57,71.95-10.23.56-20.45,1.15-30.68,1.66-.41-3.95-.8-7.9-1.21-11.85,7.36-.15,14.72-.18,22.08-.31-.4-3.15-.89-6.29-1.34-9.43-7.16-.05-14.3.6-21.45.84-1.24-8.07-.97-16.34-2.61-24.34-.29-.14-.88-.41-1.17-.55-1.72,12.8-.92,25.78-.49,38.65,1.5,23.67,5.24,47.16,10.26,70.33,1.03,4.94,2.44,9.78,3.77,14.65-2.18-1.07-2.91-3.49-3.96-5.48-4.77-9.97-10.24-19.6-15.85-29.12-2.46-3.8-4.29-7.99-5.85-12.22.74-20.65,2.59-41.35,6.98-61.57,1.67-5.93,2.45-12.06,3.99-18.01.47-1.34,1.41-3.12,3.03-3.14,7.25-.51,14.51-.89,21.76-1.36.1-13.06,2.07-25.99,4.24-38.83Z"/>
    <path class="cls-1" d="M501.65,348.23c47.59-.46,95.21,4.51,141.68,14.83,1.77.56,4.76.26,4.28,2.98-12.95-2.79-25.93-5.48-39.07-7.22-35.43-5.03-71.13-8.72-106.93-9.32,0-.32.03-.95.04-1.27Z"/>
    <path class="cls-1" d="M675.64,349.23c2.16,2.68,2.2,6.27,2.89,9.49,2.05,13.17,2.07,26.54,3.11,39.8,7.31,1.16,14.6,2.49,21.93,3.62.14,7.16-1.03,14.29-1.6,21.42-7.33-.24-14.66-.44-21.99-.58.1,2.46-.12,4.92-.37,7.37,7.2.51,14.42.81,21.6,1.59-.29,3.47-.75,6.93-.89,10.42-10.25-.17-20.45-1.54-30.69-2.03,2.52-24.08,4.6-48.23,5.45-72.44.21-6.22-.5-12.49.56-18.66Z"/>
    <path class="cls-1" d="M334.57,363.04c24.19-4.58,48.64-7.82,73.19-9.77-.09,1.43-.18,2.87-.27,4.31-23.3,1.65-46.38,5.46-69.44,9.04-24.07,4.04-48.13,8.42-71.72,14.73-.44-.72-1.3-2.16-1.73-2.88,1.09-.52,2.22-.93,3.39-1.23,22.17-4.84,44.27-10.02,66.58-14.2Z"/>
    <path class="cls-1" d="M493.27,370c1.35-2.59,3.27-4.81,4.97-7.16-.06,3.79,2.39,8.19-.34,11.49-.87,1.41-2.02,2.61-3.24,3.72-.61-2.66-1.34-5.32-1.39-8.05Z"/>
    <path class="cls-1" d="M501.88,362.32c20.72,1.43,41.46,2.71,62.12,4.91,26.93,2.46,53.62,6.87,80.42,10.36-.6,2.06-1.37,4.07-2.22,6.05-23.8-4.11-47.67-7.93-71.71-10.36-22.72-2.34-45.45-4.72-68.21-6.65-.15-1.44-.28-2.88-.4-4.31Z"/>
    <path class="cls-1" d="M502.99,371.27c45.94,5.17,91.98,9.51,137.94,14.61-6.35,12.41-15.63,23.78-28.14,30.35-9.35,5.02-19.82,7.69-30.32,8.85-18.4-.92-38-2.76-53.51-13.73-10.31-6.71-17.3-17.36-22.12-28.46,12.65,1.2,25.32,2.99,38.05,2.81-3.94-1.62-8.21-2.07-12.34-2.97-9.2-1.66-18.38-3.5-27.66-4.6-.77-2.25-1.38-4.55-1.9-6.86Z"/>
    <path class="cls-1" d="M287.46,392.02c39.17-8.54,78.91-13.99,118.52-19.89-.52,2.12-1.09,4.24-1.77,6.33-22.49,2.66-44.85,6.24-67.21,9.77-20.15,3.19-40.1,7.53-60.13,11.37-1.01-1.42-2.03-2.83-3.05-4.24,4.4-1.65,9.08-2.28,13.64-3.34Z"/>
    <path class="cls-1" d="M281.12,404.33c40.83-7.52,81.49-15.88,122.25-23.78-2.33,6.06-5.6,11.71-9.23,17.07-5.88,8.83-14.82,15.2-24.34,19.6-13.66,5.88-28.72,7.18-43.42,7.85-11.81-1.49-23.84-4.48-33.8-11.25,10.29-2.66,20.74-4.83,30.76-8.41-11.78.6-23.49,2.59-34.84,5.77-2.64-2.08-5.25-4.24-7.38-6.85Z"/>
    <path class="cls-1" d="M253.96,381.63c.73.47,1.24,1.12,1.52,1.96,3.5,9.45,8.91,18.13,15.24,25.94,3.65,4.68,8.4,8.32,12.25,12.81,4.45,2.99,9.04,5.86,13.92,8.1,8.36,2.26,16.7,5.03,25.45,5.28,7.69.63,15.42,1.1,23.1.15,14.41-1.6,29.16-4.6,41.52-12.54,2.36-1.38,4.42-3.44,7.19-3.94,5.78-1.21,11.54-2.5,17.18-4.24-1.17,3.54-1.25,7.78-4.11,10.5-6.03,6.36-11.97,12.87-16.81,20.2-3.9,6.99-8.7,13.42-12.55,20.43-5.4,10.53-13.5,19.6-17.72,30.74,1.93-1.17,3.69-2.59,5.29-4.17,8.39-8.26,16.93-16.44,23.96-25.93,2.01,4.18,6.46,6.19,9.79,9.17,4.82,3.33,9.37,7.04,13.33,11.4-2.04.96-5.08.98-5.89,3.5-4.11,7.93-6.88,16.73-12.16,23.95-13.87,5.88-28.16,10.78-42.46,15.52-4.86,11.11-9.46,22.46-11.77,34.41-1.38,6.31-3.47,12.49-4.1,18.95-.7,12.32,3.34,24.23,4.37,36.39-7.04-6.44-12.93-14.07-20.15-20.33-1.05-.85-2.29-1.37-3.46-1.98-.95,5-1.15,10.08-1.56,15.15-5.8-11.87-11.55-23.76-17.61-35.5-2.41-5.06-4.1-10.51-7.27-15.17-1.34,7.81-.08,15.69.76,23.47-2.97-10.74-6.71-21.26-9.31-32.1-1.94,4.13-2.61,8.65-2.89,13.18-1.94-8.75-4.09-17.44-6.49-26.06-.31-1.3-1.04-2.42-1.78-3.48-.83,3.1-1.07,6.31-1.27,9.5-5.19-13.18-9.21-26.79-13.56-40.25-.57-7.92-.12-15.87-.57-23.79-.28-33.75-1.76-67.47-1.38-101.22Z"/>
    <path class="cls-1" d="M140.98,558.9c3.87-57.16,19.25-112.6,33.23-167.89-1.56,11.54-3.5,23.04-5.99,34.42-2.37,10.34-3.13,20.94-4.72,31.41-2.74,18.67-4.96,37.4-8.24,55.98-2.49,14.69-5.1,29.36-7.54,44.06-.96,3.93,1.25,7.53,2.49,11.12,7.55,19.64,16.51,38.69,25.27,57.81,1.66,3.25,2.53,7.1,5.38,9.59,7.9,7.45,14.51,16.19,22.9,23.13,5.01,4.3,10.01,8.62,14.82,13.15,13.07,12.58,27.62,23.49,40.81,35.94,6.69-.34,13.36-1.07,20.06-1.37,3.19,1.63,6.04,3.86,8.9,6.01-3.85,2.49-8.47,2.89-12.79,4.1-.19,4.94,1.16,9.76,2,14.59,4.3.49,9.84,1.83,11.35,6.47,4.01,9.32,8.11,18.61,12.04,27.97,1.31,3.06,2.46,6.19,3.19,9.44-5.89-9.67-11.21-19.72-17.78-28.97-3.36-5.08-11.58-5.91-15.55-1.13-1.47-5.53-1.38-11.3-2.43-16.89-.27-2.02-1.92-3.36-3.32-4.64-3.22-2.76-5.87-6.12-9.19-8.77-9.6-7.65-19.39-15.26-27.62-24.4-16.93-12.85-32.05-27.97-46.85-43.17-7.37-12.1-13.1-25.13-19.07-37.95-6.09-13.73-12.89-27.13-19.16-40.78-1.03-2.99-1.9-6.09-2.19-9.23Z"/>
    <path class="cls-1" d="M588.4,425.73c19.59-.79,37.57-12.15,48.86-27.83-1.6,3.23-2.62,6.93-5.36,9.43-4.88,4.87-10.5,8.88-16.11,12.85-3.93,2.78-8.38,4.79-13.09,5.8-13.57,3.02-27.69,4.12-41.49,2.18-1.25,1.47-2.48,2.96-3.7,4.46-11.13-1.83-22.21-4.98-31.88-10.95,1.78-2.19,1.57-4.73.33-7.13,2.24.36,4.33,1.29,6.29,2.43,8.92,5.02,19.09,7.18,29.14,8.6,8.95,1.33,18.04,1.34,27.01.16Z"/>
    <path class="cls-1" d="M706.73,401.92c8.37,9.06,12.69,20.88,17.31,32.11,2.24,4.28.85,9.11.72,13.67-.29,7.53-2.16,14.88-4.24,22.08-1.88,3.82-4.31,7.36-5.7,11.41-4.92,8.77-10.24,17.33-14.76,26.32-2.8,5.1-4.81,10.69-8.59,15.2,6.3-19.23,8.93-39.4,12.34-59.28,2.46-20.39,3.55-40.97,2.92-61.51Z"/>
    <path class="cls-1" d="M272.53,406.82c.94-1.44,1.91-2.87,2.9-4.28,1.98,1.92,3.86,3.94,5.6,6.08-1.16,1.34-2.29,2.7-3.44,4.05-1.75-1.9-3.43-3.85-5.06-5.85Z"/>
    <path class="cls-1" d="M365.43,421.84c8.57-2.53,16.3-7.22,23.3-12.68-3.75,3.95-7.92,7.62-12.76,10.2-7.5,4.27-16.07,6.12-24.49,7.58-11.09,1.78-22.46,2.46-33.63,1.22-1.45-.45-4.79-1-4.17-2.96,6.6.18,13.13,1.61,19.75,1.43,10.81-.15,21.63-1.72,32-4.79Z"/>
    <path class="cls-1" d="M837.88,514.37c8.21-28.5,15.26-57.37,20.23-86.61-.12,15.56-3.28,30.88-4.75,46.32,10.51-11.54,20.12-23.9,30.68-35.4-3.31,16.59-7.26,33.06-11.44,49.45-2.09,6.91-3.18,14.2-6.05,20.83-10.78,13.55-21.87,26.85-32.6,40.44-5.26,6.57-7.25,14.88-10.43,22.49-5.15,15.45-10.08,31.05-17.4,45.65-2.29,4.98-5.34,9.59-7.37,14.69-17.8,45.27-41.58,87.99-68.44,128.47-4.46,6.85-9.37,13.38-14.18,19.98-2.22.2-4.45.29-6.66.2,27.46-37.85,50.94-78.46,71.63-120.36,23.25-46.89,42.04-95.95,56.78-146.15Z"/>
    <path class="cls-1" d="M394.61,449.01c2.56-4.36,5.87-8.26,8.9-12.3-2.48,8.81-2.19,18.07-2.92,27.14-1.82,1.75-3.67,3.45-5.61,5.06-.8-6.59-.41-13.28-.37-19.9Z"/>
    <path class="cls-1" d="M473.9,457.31c1.99-2.43,4.38-6.06,8.06-4.87,6.62,1.73,13.46,3.85,18.95,8.06-7.05-3.06-14.62-5.74-22.37-5.78-3.36,2.79-5.42,6.8-8.01,10.27-1.61,2.04-2.25,5.16-5.06,5.89,1.67-5.1,5.28-9.31,8.43-13.57Z"/>
    <path class="cls-1" d="M417.47,455.9c2.39-1.11,5.35-2.64,7.84-.91,6.31,4.27,11.8,9.59,17.87,14.17.05.43.16,1.29.22,1.73-3.42-.25-5.17-3.46-7.52-5.48-3.46-2.97-7.03-5.87-11.04-8.07-1.53-.74-3.29-1.73-5.01-1.01-4.23,1.49-7.93,4.11-11.97,6.01.17-.53.51-1.58.68-2.11,2.86-1.66,6-2.79,8.93-4.33Z"/>
    <path class="cls-1" d="M408.96,490.58c1.09-.25,2.2-.49,3.31-.73,2.33,12.5,4.39,25.06,6.55,37.6.45,2.59.99,5.2.77,7.86-1.72-2.16-2.33-4.9-3.19-7.46-2.87-9.24-5.43-18.62-6.89-28.2-.47-3-1.02-6.04-.55-9.07Z"/>
    <path class="cls-1" d="M496.56,489.52c1.23.16,2.47.34,3.72.53-.53,12.13-3.72,23.94-7.13,35.53-1.15,3.29-1.77,6.89-3.9,9.74-.11-1.49-.04-2.98.19-4.45,2.31-13.79,4.73-27.57,7.12-41.35Z"/>
    <path class="cls-1" d="M429.56,494.39c2.3,3.5,2.78,7.79,3.72,11.79.65,5.34,1.56,10.74,1.12,16.13-1.61-2-1.98-4.59-2.6-6.99-1.64-6.83-3.16-13.88-2.24-20.93Z"/>
    <path class="cls-1" d="M475.42,507.03c.91-4.29,1.46-8.88,3.86-12.65.96,7.32-.72,14.63-2.42,21.71-.56,2.15-.97,4.44-2.43,6.21-.45-5.1.46-10.21.99-15.27Z"/>
    <path class="cls-1" d="M508.62,508.72c1.24,2.76,3.73,5.54,2.61,8.74-1.65,6.62-2.69,13.66-6.31,19.56-.36-9.57,1.87-18.97,3.7-28.3Z"/>
    <path class="cls-1" d="M397.79,518.27c-1.03-3,1.3-5.63,2.58-8.13,2.01,8.8,3.84,17.81,3.55,26.89-3.48-5.66-4.55-12.4-6.13-18.76Z"/>
    <path class="cls-1" d="M524.56,520.92c1.33.4,2.67.8,4.01,1.21-1.95,7.41-3.79,15.28-8.2,21.62.13-7.79,2.3-15.33,4.19-22.83Z"/>
    <path class="cls-1" d="M380.33,522.87c1.35-.46,2.7-.91,4.07-1.35,1.92,7.29,3.92,14.65,4.07,22.23-4.37-6.11-5.95-13.78-8.14-20.88Z"/>
    <path class="cls-1" d="M361.38,528.95c1.26-.4,2.53-.8,3.81-1.19,2.88,8.15,6.29,16.23,7.72,24.8-5.87-6.61-8.36-15.5-11.53-23.61Z"/>
    <path class="cls-1" d="M543.7,527.49c1.27.43,2.54.87,3.81,1.33-3.19,8.15-5.68,17.09-11.58,23.74,1.43-8.67,4.95-16.8,7.77-25.07Z"/>
    <path class="cls-1" d="M390.38,553.71c14.03-7.83,28.2-15.41,42.13-23.42,6.93,2.36,13.73,5.22,20.89,6.84,8.05-.52,15.42-4.38,23.04-6.78,11.73,6.37,23.35,12.95,35.05,19.37-8.14-3.11-15.62-7.63-23.23-11.82-1.61-.78-3.05-2.14-4.87-2.3-9.44,1.19-18.33,5.31-27.84,6.01-7.83-1.31-15.28-4.43-23.18-5.4-9.69,3.61-19.31,7.45-28.75,11.69-4.4,1.97-8.64,4.32-13.24,5.81Z"/>
    <path class="cls-1" d="M351.9,536.87c2.96,1.42,4.49,4.56,6.52,6.99,2.98,4.42,6.45,8.54,8.92,13.29-6.31-4.76-11.36-11.09-15.96-17.47.13-.7.39-2.11.52-2.81Z"/>
    <path class="cls-1" d="M541.5,557.15c4.39-7.26,9.21-14.42,15.07-20.6,2.3,2.9-.97,5.6-2.56,7.86-3.94,4.44-7.59,9.33-12.51,12.74Z"/>
    <path class="cls-1" d="M637.28,561.76c4.06-6.44,6.21-13.82,9.05-20.83-5.77,23.59-12.44,46.96-18.41,70.51-.56,1.94-.83,4.1-2.24,5.66-24.96,28.71-49.8,57.51-74.67,86.3-4.02,5-9.24,8.82-13.95,13.12-5.24,4.48-10.25,9.23-15.64,13.52,3.56-5.35,8.47-9.62,12.27-14.78.59-4.55.35-9.19,1.35-13.7,1.15,3.31,1.43,6.83,1.96,10.29,4.4-4.83,9.11-9.54,12.62-15.05.45-6.75-.3-13.65,1.24-20.29,1.18,5.4,1.48,10.94,2.17,16.42,5.32-6.26,10.53-12.66,15.47-19.23.17-10.31-1.01-20.64-.65-30.97,2.33,8.61,2.99,17.56,4.25,26.37,5.23-6.31,10.7-12.6,15.21-19.4-.29-9.32-1.97-18.58-1.62-27.92,1.95,7.9,3.25,15.93,4.83,23.91,5.99-6.62,11.45-13.79,16.75-20.96-.5-6.74-1.97-13.43-1.57-20.22,2.22,5.44,2.79,11.34,4.51,16.93,2.6-3.34,4.92-6.9,7.66-10.13.81-1.17,2.1-2.17,2.23-3.67,1.56-12.07,3.14-24.26,6.86-35.89-.11,7.42-1.31,14.76-2,22.14,2.17-5.67,4.05-11.45,6.43-17.05,3.24-7.78,3.05-16.45,5.78-24.38.26,3.09-.03,6.2.11,9.3Z"/>
    <path class="cls-1" d="M382.52,563.78c13.58-4.57,27.09-9.64,41.17-12.49,8.95.46,17.72,2.77,26.66,3.48,3.22.17,6.59,1.04,9.73-.13,6.26-2.08,12.79-3.28,19.35-3.98,10.28.88,20.31,3.53,30.33,5.9,6.02,1.57,12.27,2.42,18.02,4.88,2.86,2.76,4.24,6.6,6.15,10.01,6.36,12.55,13.06,24.95,19.41,37.5-.88,8.26-.78,16.59-1.33,24.87.1,3.11-2.8,4.88-4.51,7.08-8.53,9.86-17.42,19.4-26.34,28.89-.1-3.05-.06-6.09-.32-9.13-1.77,4.1-2.45,8.54-2.95,12.95.04,1.65-1.57,2.46-2.53,3.53-.4-6.16.38-12.48-1.12-18.52-1.56,6.59-1.75,13.39-2.17,20.13-.19.51-.57,1.53-.77,2.05-.3-.45-.91-1.36-1.22-1.81-1.35-6.39-1.28-13.2-3.75-19.28l-1.08-.53c-.7,6.97,1.09,13.86,1.73,20.77.54,1.72-1.36,2.58-2.32,3.61-2.56-4.77-4.49-9.94-7.69-14.33-.36-.05-1.07-.17-1.43-.22-5.66,2.01-10.49,5.75-15.87,8.36-5.75-9.4-12.4-18.24-17.99-27.73-.01-5.08-.18-10.39,1.2-15.29,7.83-10.11,16.98-19.29,23.61-30.3,1.62-6.32,1.02-13,1.53-19.47,4.31-3.57,9.41-6.23,13.24-10.33-10.73,1.47-19.72,9.68-30.86,8.94-12.86-.03-25.84,1.27-38.59-1.02-7.3-1.91-14.02-5.58-21.29-7.59,2.72,4.27,6.71,7.46,10.72,10.44.22,6.23.06,12.55,1.29,18.68,6.62,11.31,16.03,20.63,24.04,30.9.76,4.96,1.16,10.07.89,15.09-5.65,9.47-12.17,18.39-18.08,27.71-5.61-2.9-10.73-6.87-16.84-8.7-3.82,5.36-6.18,11.56-9.19,17.38-.48-.03-1.44-.07-1.92-.09.72-8.35,2.72-16.62,2.65-25.02-.18-.53-.53-1.59-.71-2.12-3.68,8.03-3.23,17.28-5.06,25.81l-.86.76c-.91-8.91-.03-18.2-2.87-26.79-.91,8.09-.64,16.25-.65,24.38-4.73-6.2-1.33-14.82-5.51-21.33-.45,2.77-.33,5.59-.29,8.39-8.7-9.6-17.68-18.94-26.09-28.8-1.8-2.41-4.96-4.32-4.9-7.65-.53-8.21-.36-16.47-1.41-24.63,6.7-12.92,13.56-25.77,20.11-38.77,1.25-2.95,4.2-4.65,6.68-6.44Z"/>
    <path class="cls-1" d="M271.84,553.79c2.69,8.15,4.05,16.69,6.77,24.83,2.64,5.07,3.75,10.7,5.57,16.07-1.34-7.54-2.76-15.1-3.09-22.77,4.29,13.27,6.88,27.04,10.88,40.4,2.08,3.11,4.39,6.09,6.65,9.09,1.76-5.57,2.3-11.48,4.52-16.91.39,6.79-1.08,13.49-1.57,20.23,5.3,7.17,10.75,14.34,16.75,20.96,1.64-7.7,2.55-15.58,4.85-23.12.22,8.78-1.22,17.49-1.65,26.24-.27,1.63,1.18,2.75,2,3.97,4.45,5.41,8.58,11.08,13.22,16.33,1.25-8.81,1.92-17.76,4.25-26.38.36,10.33-.82,20.65-.65,30.97,4.93,6.57,10.14,12.96,15.47,19.23.69-5.48.98-11.02,2.17-16.42,1.54,6.64.78,13.54,1.24,20.29,3.57,5.49,8.21,10.28,12.42,15.31.85-3.49.94-7.14,2.15-10.53,1.09,4.78.77,9.72,1.39,14.55,1.87,2.77,4.44,4.98,6.38,7.71-10.11-8.54-19.14-18.29-28.72-27.42-17.88-19.84-35.03-40.3-52.58-60.44-5.8-6.86-11.47-13.83-17.26-20.7-2.27-2.45-2.28-5.94-3.18-8.97-4.63-16.67-8.36-33.55-12.23-50.41,1.93,3.98,3.41,8.17,5.56,12.05-.52-4.71-1.31-9.41-1.31-14.16Z"/>
    <path class="cls-1" d="M429.59,589.91c1.24.13,2.49.26,3.74.39-.14,4.65-.58,9.31-1.6,13.86-1.69-4.55-1.53-9.5-2.14-14.25Z"/>
    <path class="cls-1" d="M440.75,590.46c1.06.02,3.17.06,4.22.08-.13,7.15-.7,14.34-2.08,21.37-1.3-7.08-1.94-14.27-2.14-21.45Z"/>
    <path class="cls-1" d="M452.09,590.63c1.4.02,2.8.05,4.21.09-.1,11.1-.3,22.33-2.15,33.29-1.41-11.05-2.11-22.23-2.06-33.38Z"/>
    <path class="cls-1" d="M463.62,590.9c1.23-.02,2.47-.04,3.71-.04.15,7.36-.49,14.72-1.72,21.98-1.48-7.21-1.88-14.6-1.99-21.94Z"/>
    <path class="cls-1" d="M473.95,590.98h3.72c-.32,4.69-.67,9.41-1.81,14-1.48-4.51-1.77-9.3-1.91-14Z"/>
    <path class="cls-1" d="M301.72,657.39c2.08,4.4,4.41,8.78,5.69,13.49.95,19.28-1.72,38.81,1.63,57.96-3.54-2.29-6.06-5.8-8.13-9.4.26-20.68.63-41.37.81-62.05Z"/>
    <path class="cls-1" d="M602.74,686.82c1.18-2.11,3.14-3.64,4.97-5.17.27,9.72.1,19.45.47,29.18-.03,3.2.38,6.45-.12,9.63-1.26,2.04-2.86,3.86-4.39,5.7-.66-13.09-.88-26.23-.93-39.34Z"/>
    <path class="cls-1" d="M427.88,692.41c1-3.14,1.53-6.68,3.94-9.1-.87,8.11-2.7,16.07-4.07,24.11-.37,2.22-.83,4.46-1.67,6.58-.52-7.22.08-14.56,1.8-21.59Z"/>
    <path class="cls-1" d="M477.45,683.42c2.52,2.89,3.16,6.8,4.19,10.37,1.4,6.68,1.96,13.59,1.42,20.4-.96-2.56-1.38-5.27-1.85-7.95-1.31-7.6-3.08-15.13-3.76-22.82Z"/>
    <path class="cls-1" d="M412.18,692.77c1.35,8.66.11,17.58,2.22,26.16.02,2.48,2.18,6.26-1,7.59-.28-.32-.85-.96-1.14-1.27-2.24-10.64-2.14-21.82-.08-32.48Z"/>
    <path class="cls-1" d="M496.9,692.66c2.4,10.89,2.02,22.32.01,33.25-1-.31-2-.59-2.99-.85,1.76-10.73,2.24-21.58,2.98-32.4Z"/>
    <path class="cls-1" d="M393.6,709.65c-.26-5.1.97-10.17,2.46-15.01,0,4.89-.48,9.76-.55,14.64-.47.09-1.43.28-1.91.37Z"/>
    <path class="cls-1" d="M513.12,694.72c1.68,5.06,2.36,10.39,3.07,15.66-.5.38-1.49,1.15-1.99,1.53-.78-5.69-1.02-11.45-1.08-17.19Z"/>
    <path class="cls-1" d="M433.72,696.7c.84.46,1.27,1.18,1.31,2.17,1.32,8.33,2.73,16.66,3.97,25.01-4.09-8.38-6.35-17.85-5.28-27.18Z"/>
    <path class="cls-1" d="M473.35,703.78c.59-2.45.31-5.25,1.94-7.34,1.49,9.08-.98,18.42-4.76,26.64.46-6.49,1.9-12.87,2.82-19.3Z"/>
    <path class="cls-1" d="M402.38,718.81c.14-6.03.11-12.14,1.43-18.05.44,6.74,1.19,13.46,1.42,20.22-1.06-.44-3.16-.52-2.85-2.17Z"/>
    <path class="cls-1" d="M503.92,720.75c.4-6.66.74-13.33,1.63-19.94.98,6.97,1.45,14.05,1.07,21.1-.67-.29-2.02-.87-2.7-1.16Z"/>
    <path class="cls-1" d="M461.4,726.72c2.59-6.19,4.77-12.83,8.97-18.14-.45,6.96-4.57,13-8.97,18.14Z"/>
    <path class="cls-1" d="M438.97,708.95c4.02,5,6.12,11.31,8.55,17.19-4.4-4.67-8.23-10.62-8.55-17.19Z"/>
    <path class="cls-1" d="M563.73,779.89c6.04-21.09,11.54-42.33,18.31-63.2,1.01,11.65,1.3,23.37,2.51,34.99-6.72,9.54-13.64,18.99-20.82,28.21Z"/>
    <path class="cls-1" d="M536.51,743.91c8.74-6.47,17.16-13.35,25.51-20.32-9.01,20.81-17.9,41.69-26.05,62.86-.81,3.34-4.45,4.27-6.98,5.98-20.48,12.29-40.29,25.67-60.71,38.06-13.01-10.02-27.39-18.07-40.48-27.98-8.2-6.34-16.56-12.52-24.37-19.34,3.73-2.96,6.85-6.63,10.7-9.42,19.15.28,38.16-2.83,57.28-3.69,5.08-.58,10.21-.67,15.31-1.12,5.36-.71,11.07-.23,15.99-2.87,12.12-5.98,22.97-14.15,33.8-22.16Z"/>
    <path class="cls-1" d="M220.59,729.02c4.14.13,8.27.34,12.41.24,2.55,4.94,5.34,9.77,7.63,14.84-4.28-.25-8.67-1.04-12.89-.02-3.03,2.56-4.9,6.22-6.82,9.63-1.36-1.57-2.62-3.28-4.43-4.34.55,2.21,1.4,4.33,2.21,6.46-8.54,2.55-17.02,5.28-25.45,8.19-3.18-4.45-6.46-8.88-8.98-13.74,8.75-3.55,17.44-7.24,26.24-10.66.97,1.11,1.93,2.22,2.92,3.32-.01-1.87-1.29-4.06.32-5.59,2.14-2.89,4.35-5.74,6.84-8.33Z"/>
    <path class="cls-1" d="M676.62,729.22c4.16.19,8.31-.16,12.47-.12,2.75,3.06,5.28,6.32,7.65,9.69-.32,1.37-.61,2.75-.86,4.14,1.2-.97,1.97-2.71,3.54-3.06,8.56,2.99,16.63,7.23,25.22,10.14-2.92,4.68-5.94,9.32-9.21,13.77-8.12-2.83-16.35-5.3-24.48-8.05.71-2.11,1.45-4.22,1.92-6.39-1.62,1.23-2.9,2.81-4.16,4.39-1.99-3.33-3.87-6.82-6.69-9.52-4.08-1.21-8.41-.4-12.57-.16,1.87-5.18,4.42-10.07,7.17-14.83Z"/>
    <path class="cls-1" d="M222.26,755.92c2.78-2.82,5.06-6.06,7.74-8.96,4.34,9.2,8.61,18.5,14.38,26.91,5.31,10.59,11.35,20.8,17.15,31.11.41,7.33-.54,14.78-.41,22.16-2.55-3.12-4.04-6.86-5.53-10.55-5.06-10.98-10.77-21.65-16.7-32.18-5.42-9.57-10.52-19.34-16.63-28.49Z"/>
    <path class="cls-1" d="M679.41,752.94c.7-1.11.9-3.24,2.66-2.89,1.72,1.96,3.37,4,5.23,5.86-7.45,11.11-13.49,23.06-20.11,34.66-4.51,8.53-9.64,16.79-13.15,25.81-.53-.02-1.58-.06-2.11-.07-.67-4.49-1.29-8.99-1.77-13.49,5.02-11.15,12.11-21.26,18.66-31.57,3.71-5.99,8.16-11.63,10.59-18.31Z"/>
    <path class="cls-1" d="M276.69,751.83c1.19.63,2.95.77,3.48,2.23,2.44,5.54,4.8,11.13,7.38,16.61,1,1.89.75,4.07.79,6.14-.09,12.01-.27,24.03.09,36.04,1.08,20.61.78,41.25.75,61.88-3.65-3.34-7.43-6.55-10.88-10.09-.79-2.15-.26-4.55-.38-6.79-.15-35.34-1.18-70.68-1.23-106.02Z"/>
    <path class="cls-1" d="M625.46,762.77c1.81-3.96,2.47-9.3,7.36-10.68-.21,35.6-.9,71.2-.89,106.81-.03,1.39.05,2.82-.22,4.22-3.38,3.64-7.14,6.93-10.94,10.14-.08-15.13-.39-30.28.43-45.39,1.35-17.99.85-36.05.48-54.06.38-3.91,2.52-7.37,3.78-11.04Z"/>
    <path class="cls-1" d="M696.48,766.08c4.52,1.87,9.08,3.6,13.56,5.56-4.63,6.65-9.32,13.28-14.44,19.55.21-8.38,1.65-16.72.88-25.11Z"/>
    <path class="cls-1" d="M202.99,776.77c1.35-.87,2.25,1.48,1.33,2.35-1.19.66-2.18-1.58-1.33-2.35Z"/>
    <path class="cls-1" d="M298.76,792.56c.73,1.28.93,2.75.88,4.22-.1,28.94.04,57.88-.14,86.81-.96-.71-1.91-1.41-2.85-2.1-.67-23.55,1.05-47.06,1.59-70.59.24-6.11-.35-12.27.52-18.34Z"/>
    <path class="cls-1" d="M609.88,805.85c-.21-2.88.86-5.58,1.97-8.17.03,12.73.92,25.43,1.34,38.16.02,14.86-.06,29.72-.11,44.59-1.03.73-2.05,1.47-3.06,2.22-.13-25.6-.07-51.2-.14-76.8Z"/>
    <path class="cls-1" d="M389.23,799.76c12.78,4.93,25.06,11.09,37.45,16.94,9.8,5.48,19.71,10.76,29.75,15.78-17.73-2.97-35.72-5.16-52.91-10.56-5.27-7.02-9.75-14.66-14.29-22.16Z"/>
    <path class="cls-1" d="M371.23,814.22c10.87,6.55,22.56,11.58,34.23,16.51,2.54,1.39,5.27,2.38,8.16,2.73,12.83,1.94,25.75,3.12,38.69,4.07,11.38,1.42,22.52-2.36,33.87-2.17,4.6-1.26,9.39-1.49,13.98-2.72,12.66-5.32,25.19-10.99,37.32-17.44-5.88,7.69-11.64,15.47-17.69,23.03-2.04,2.83-4.91,5.24-6.12,8.58,1.54,4.12,2.96,8.35,5.28,12.13-3.24,3.88-4.17,10.34-9.6,11.86-2.92-.19-5.65-1.7-8.58-1.58-4.58,1.67-4.95,7.14-7.15,10.83-3.44,3.5-9.04,4.01-12.24,7.74,2.98.57,6.01.63,9.03.66-5.93,16.07-12.29,31.98-18.42,47.98-1.57,4.19-3.78,8.15-4.67,12.59-2.14-2.03-4.74-3.75-7.84-3.31-5.54.46-11.01-1.12-16.53-.45-4.84-12.45-9.76-24.88-14.48-37.38,8.43-2.05,16.42-5.48,24.5-8.54,7.34-2.9,15-5.46,21.34-10.31-10.97-.05-21.91-.87-32.87-.92-3.55-.19-7.17.03-10.66-.68-4.35-2.21-8.79-4.38-12.82-7.14-1.88-3.18-2.41-7.24-5.12-9.84-2.01-2.01-4.82-.89-7.24-.65-3.04-4.97-6.1-9.93-9.33-14.78-1.97-2.64,1.19-6.38-1.1-8.9-7.54-10.96-15.95-21.28-23.94-31.9Z"/>
    <path class="cls-1" d="M313.76,851.94c4.25-.51,7.16,3.04,10.22,5.35,7.48,6.28,15.38,12.02,23.33,17.69-.01,2.05,0,4.11-.01,6.19-12.04-5.85-23-13.66-34.15-21-.26-2.76-.78-5.67.61-8.23Z"/>
    <path class="cls-1" d="M587.87,853.34c1.47-1.39,4.21-2.98,5.79-.87.53,3.02.3,6.12.44,9.2-8.79,5.88-17.71,11.57-26.61,17.29-2.27,1.44-4.6,2.87-7.24,3.51.27-1.77.33-3.76,1.84-4.97,8.27-8.39,16.94-16.38,25.78-24.16Z"/>
    <path class="cls-1" d="M495.72,964.09c18.74-9.85,37.17-20.32,54.88-31.94-4.37,6.19-8.03,13.01-13.69,18.16-10.74,15.29-21.28,30.73-31.76,46.21-1.62,2.33-2.97,5.13-5.73,6.32-11.85,6.11-23.63,12.51-36.2,17.04,8.51-15.05,17.87-29.63,26.64-44.53.38-4.31,2.93-8.25,5.86-11.26Z"/>
    <path class="cls-1" d="M445.73,949.02c4.89-.1,9.79.09,14.68-.09,1.86-.4,2.56,1.5,3.37,2.76-2.13,1.07-4.74,2.71-7.08,1.25-2.42-1.62-5.29-1.77-8.06-1.2-1.14,4.18-3.8,7.67-6,11.33-1.05,1.85-2.62,3.31-4.32,4.57-.66-1.38-2.57-2.72-1.37-4.32,2.62-4.95,5.73-9.62,8.78-14.3Z"/>
    <path class="cls-1" d="M450.59,953.68c.47.1,1.42.29,1.9.39,1.52,4.4,1.04,9.18.99,13.77-.31,3.63.14,7.34-.71,10.92-.45-.34-1.34-1.02-1.78-1.36-.82-7.85-.1-15.82-.4-23.72Z"/>
    <path class="cls-1" d="M455.06,980.95c10.46-2.21,20.1-6.93,29.79-11.28-.82,2.45-.04,6.5-3.12,7.41-6.28,2.68-12.66,5.36-19.45,6.4-2.74.59-4.94-1.41-7.22-2.53Z"/>
    <path class="cls-1" d="M424.13,974.96c.64-1.36,1.3-2.7,1.96-4.03,5.07,3.1,10.95,5.17,15.11,9.55-5.99-.66-11.55-3.26-17.07-5.52Z"/>
  </g>
</svg>