<svg width="10" height="12" viewBox="0 0 10 12" fill="none" xmlns="http://www.w3.org/2000/svg">
<path d="M9.125 4.49622C9.12541 3.80106 8.95014 3.11708 8.61546 2.50779C8.28078 1.8985 7.79754 1.38368 7.21064 1.01114C6.62374 0.638597 5.95221 0.420419 5.25842 0.37687C4.56463 0.333321 3.87108 0.465814 3.2422 0.762043C2.61332 1.05827 2.06951 1.50863 1.66126 2.07128C1.25302 2.63393 0.99359 3.29063 0.907073 3.98038C0.820556 4.67013 0.909757 5.37056 1.16639 6.01661C1.42302 6.66266 1.83877 7.23338 2.375 7.67575V11.2462C2.37495 11.3102 2.39127 11.3731 2.42238 11.4289C2.4535 11.4848 2.49839 11.5318 2.55279 11.5654C2.60718 11.5991 2.66928 11.6182 2.73317 11.6211C2.79706 11.624 2.86062 11.6105 2.91781 11.5818L5 10.5431L7.08266 11.5842C7.13487 11.6092 7.19212 11.6218 7.25 11.6212C7.34946 11.6212 7.44484 11.5817 7.51517 11.5114C7.58549 11.4411 7.625 11.3457 7.625 11.2462V7.67575C8.09419 7.28932 8.47201 6.80382 8.73135 6.2541C8.9907 5.70437 9.12513 5.10405 9.125 4.49622ZM1.625 4.49622C1.625 3.8287 1.82294 3.17618 2.19379 2.62117C2.56464 2.06615 3.09174 1.63357 3.70844 1.37812C4.32514 1.12268 5.00375 1.05584 5.65843 1.18607C6.31312 1.31629 6.91448 1.63773 7.38649 2.10973C7.85849 2.58173 8.17993 3.1831 8.31015 3.83779C8.44038 4.49247 8.37354 5.17107 8.11809 5.78777C7.86265 6.40447 7.43007 6.93158 6.87505 7.30243C6.32003 7.67328 5.66751 7.87122 5 7.87122C4.1052 7.87022 3.24733 7.51433 2.61461 6.88161C1.98189 6.24889 1.62599 5.39102 1.625 4.49622ZM6.875 10.6397L5.16734 9.78606C5.11525 9.75999 5.05779 9.74642 4.99953 9.74642C4.94127 9.74642 4.88382 9.75999 4.83172 9.78606L3.125 10.6397V8.16981C3.70548 8.4665 4.34809 8.62121 5 8.62121C5.65191 8.62121 6.29452 8.4665 6.875 8.16981V10.6397ZM5 7.12122C5.51918 7.12122 6.02669 6.96726 6.45837 6.67882C6.89005 6.39039 7.22651 5.98042 7.42519 5.50076C7.62387 5.0211 7.67585 4.4933 7.57456 3.9841C7.47328 3.4749 7.22327 3.00717 6.85616 2.64006C6.48904 2.27295 6.02131 2.02294 5.51211 1.92165C5.00291 1.82037 4.47511 1.87235 3.99546 2.07103C3.5158 2.26971 3.10583 2.60617 2.81739 3.03784C2.52895 3.46952 2.375 3.97704 2.375 4.49622C2.37575 5.19218 2.65255 5.85943 3.14467 6.35155C3.63679 6.84367 4.30404 7.12047 5 7.12122ZM5 2.62122C5.37084 2.62122 5.73335 2.73118 6.0417 2.93721C6.35004 3.14324 6.59036 3.43607 6.73228 3.77868C6.87419 4.1213 6.91132 4.4983 6.83897 4.86201C6.76663 5.22572 6.58805 5.55982 6.32583 5.82204C6.0636 6.08426 5.72951 6.26284 5.3658 6.33519C5.00208 6.40754 4.62508 6.3704 4.28247 6.22849C3.93986 6.08658 3.64702 5.84625 3.441 5.53791C3.23497 5.22957 3.125 4.86706 3.125 4.49622C3.125 3.99894 3.32254 3.52202 3.67418 3.17039C4.02581 2.81876 4.50272 2.62122 5 2.62122Z" fill="white"/>
</svg>
