<svg width="14" height="14" viewBox="0 0 14 14" fill="none" xmlns="http://www.w3.org/2000/svg">
<path d="M10.9796 2.94711C9.92069 1.89853 8.49024 1.31098 7 1.3125H6.94148C5.44323 1.32792 4.01158 1.93393 2.95759 2.99888C1.9036 4.06383 1.31242 5.50167 1.3125 7C1.3125 9.35157 2.76609 11.3236 5.10562 12.1499C5.3695 12.243 5.65183 12.2714 5.92895 12.2328C6.20606 12.1942 6.46988 12.0897 6.69829 11.9281C6.92669 11.7665 7.11301 11.5524 7.24163 11.304C7.37025 11.0555 7.43742 10.7798 7.4375 10.5C7.4375 10.2679 7.52969 10.0454 7.69378 9.88129C7.85788 9.71719 8.08043 9.625 8.3125 9.625H10.8396C11.2366 9.62693 11.6223 9.49302 11.9326 9.24552C12.243 8.99802 12.4594 8.65181 12.5459 8.26438C12.6436 7.83382 12.6912 7.39338 12.6875 6.95188C12.6819 6.20455 12.5281 5.46576 12.2349 4.77832C11.9418 4.09088 11.5151 3.46845 10.9796 2.94711ZM11.6905 8.07188C11.6471 8.2649 11.5391 8.43731 11.3843 8.56061C11.2296 8.68391 11.0375 8.75073 10.8396 8.75H8.3125C7.84837 8.75 7.40325 8.93438 7.07506 9.26257C6.74687 9.59076 6.5625 10.0359 6.5625 10.5C6.5623 10.6398 6.52862 10.7774 6.46428 10.9015C6.39995 11.0256 6.30683 11.1325 6.19272 11.2131C6.07861 11.2938 5.94682 11.346 5.8084 11.3653C5.66998 11.3847 5.52895 11.3705 5.39711 11.3241C3.41742 10.6258 2.1875 8.96875 2.1875 7C2.18743 5.73222 2.68762 4.51563 3.57941 3.61453C4.47119 2.71342 5.68252 2.20061 6.95023 2.1875H6.99945C8.26721 2.19243 9.48224 2.69543 10.3825 3.58803C11.2828 4.48063 11.7962 5.69132 11.812 6.95899C11.8152 7.33331 11.7752 7.70675 11.6927 8.07188H11.6905ZM7.65625 4.15625C7.65625 4.28605 7.61776 4.41293 7.54565 4.52085C7.47354 4.62877 7.37105 4.71288 7.25113 4.76255C7.13122 4.81222 6.99927 4.82522 6.87197 4.79989C6.74467 4.77457 6.62774 4.71207 6.53596 4.62029C6.44418 4.52851 6.38168 4.41158 6.35636 4.28428C6.33104 4.15698 6.34403 4.02503 6.3937 3.90512C6.44337 3.7852 6.52749 3.68271 6.63541 3.6106C6.74333 3.53849 6.87021 3.5 7 3.5C7.17405 3.5 7.34097 3.56914 7.46404 3.69221C7.58711 3.81529 7.65625 3.9822 7.65625 4.15625ZM5.25 5.46875C5.25 5.59855 5.21151 5.72543 5.1394 5.83335C5.06729 5.94127 4.9648 6.02538 4.84489 6.07505C4.72497 6.12472 4.59302 6.13772 4.46572 6.11239C4.33842 6.08707 4.22149 6.02457 4.12971 5.93279C4.03793 5.84101 3.97543 5.72408 3.95011 5.59678C3.92479 5.46948 3.93778 5.33753 3.98745 5.21762C4.03712 5.0977 4.12124 4.99521 4.22916 4.9231C4.33708 4.85099 4.46396 4.8125 4.59375 4.8125C4.7678 4.8125 4.93472 4.88164 5.05779 5.00471C5.18086 5.12779 5.25 5.29471 5.25 5.46875ZM5.25 8.53125C5.25 8.66105 5.21151 8.78793 5.1394 8.89585C5.06729 9.00377 4.9648 9.08788 4.84489 9.13755C4.72497 9.18722 4.59302 9.20022 4.46572 9.17489C4.33842 9.14957 4.22149 9.08707 4.12971 8.99529C4.03793 8.90351 3.97543 8.78658 3.95011 8.65928C3.92479 8.53198 3.93778 8.40003 3.98745 8.28012C4.03712 8.1602 4.12124 8.05771 4.22916 7.9856C4.33708 7.91349 4.46396 7.875 4.59375 7.875C4.7678 7.875 4.93472 7.94414 5.05779 8.06722C5.18086 8.19029 5.25 8.35721 5.25 8.53125ZM10.0625 5.46875C10.0625 5.59855 10.024 5.72543 9.9519 5.83335C9.87979 5.94127 9.7773 6.02538 9.65738 6.07505C9.53747 6.12472 9.40552 6.13772 9.27822 6.11239C9.15092 6.08707 9.03399 6.02457 8.94221 5.93279C8.85043 5.84101 8.78793 5.72408 8.76261 5.59678C8.73729 5.46948 8.75028 5.33753 8.79995 5.21762C8.84962 5.0977 8.93374 4.99521 9.04166 4.9231C9.14958 4.85099 9.27645 4.8125 9.40625 4.8125C9.5803 4.8125 9.74722 4.88164 9.87029 5.00471C9.99336 5.12779 10.0625 5.29471 10.0625 5.46875Z" fill="#525252"/>
</svg>
