<svg width="14" height="14" viewBox="0 0 14 14" fill="none" xmlns="http://www.w3.org/2000/svg">
<g clip-path="url(#clip0_2652_12571)">
<path d="M12.8691 4.01229L9.98758 1.13135C9.90633 1.05008 9.80986 0.98561 9.70369 0.941625C9.59751 0.897639 9.48372 0.875 9.36879 0.875C9.25387 0.875 9.14007 0.897639 9.0339 0.941625C8.92773 0.98561 8.83126 1.05008 8.75 1.13135L1.13094 8.74987C1.04967 8.83112 0.985198 8.92759 0.941213 9.03376C0.897227 9.13994 0.874588 9.25373 0.874588 9.36866C0.874588 9.48358 0.897227 9.59738 0.941213 9.70355C0.985198 9.80972 1.04967 9.90619 1.13094 9.98745L4.01242 12.8684C4.09368 12.9497 4.19015 13.0141 4.29632 13.0581C4.40249 13.1021 4.51629 13.1247 4.63121 13.1247C4.74614 13.1247 4.85994 13.1021 4.96611 13.0581C5.07228 13.0141 5.16875 12.9497 5.25 12.8684L12.8691 5.24987C12.9503 5.16861 13.0148 5.07215 13.0588 4.96597C13.1028 4.8598 13.1254 4.746 13.1254 4.63108C13.1254 4.51616 13.1028 4.40236 13.0588 4.29618C13.0148 4.19001 12.9503 4.09354 12.8691 4.01229ZM4.63094 12.2499L1.75 9.36838L3.5 7.61838L4.94047 9.0594C4.98112 9.10005 5.02938 9.13229 5.08249 9.15429C5.1356 9.17629 5.19252 9.18761 5.25 9.18761C5.30749 9.18761 5.36441 9.17629 5.41752 9.15429C5.47063 9.13229 5.51889 9.10005 5.55953 9.0594C5.60018 9.01875 5.63243 8.9705 5.65443 8.91739C5.67642 8.86428 5.68775 8.80735 5.68775 8.74987C5.68775 8.69238 5.67642 8.63546 5.65443 8.58235C5.63243 8.52924 5.60018 8.48099 5.55953 8.44034L4.11852 6.99987L5.25 5.86838L6.69047 7.3094C6.77256 7.39149 6.88391 7.43761 7 7.43761C7.1161 7.43761 7.22744 7.39149 7.30953 7.3094C7.39163 7.22731 7.43775 7.11596 7.43775 6.99987C7.43775 6.88377 7.39163 6.77243 7.30953 6.69034L5.86852 5.24987L7 4.11838L8.44047 5.5594C8.48112 5.60005 8.52938 5.63229 8.58249 5.65429C8.6356 5.67629 8.69252 5.68761 8.75 5.68761C8.80749 5.68761 8.86441 5.67629 8.91752 5.65429C8.97063 5.63229 9.01889 5.60005 9.05954 5.5594C9.10018 5.51875 9.13243 5.47049 9.15442 5.41739C9.17642 5.36428 9.18775 5.30735 9.18775 5.24987C9.18775 5.19238 9.17642 5.13546 9.15442 5.08235C9.13243 5.02924 9.10018 4.98098 9.05954 4.94034L7.61852 3.49987L9.36852 1.74987L12.25 4.63135L4.63094 12.2499Z" fill="#525252"/>
</g>
<defs>
<clipPath id="clip0_2652_12571">
<rect width="14" height="14" fill="white"/>
</clipPath>
</defs>
</svg>
