<svg width="37" height="34" viewBox="0 0 37 34" fill="none" xmlns="http://www.w3.org/2000/svg">
<g filter="url(#filter0_d_2321_19405)">
<path d="M32.9638 10.2675L29.7588 21.8025C29.5825 22.4326 29.2056 22.9881 28.6852 23.3846C28.1648 23.7812 27.5293 23.9973 26.875 24H14.52C13.8638 23.9997 13.2257 23.7848 12.703 23.388C12.1803 22.9913 11.8017 22.4345 11.625 21.8025L7.24 6H5C4.73478 6 4.48043 5.89464 4.29289 5.70711C4.10536 5.51957 4 5.26522 4 5C4 4.73478 4.10536 4.48043 4.29289 4.29289C4.48043 4.10536 4.73478 4 5 4H8C8.21863 3.99996 8.43124 4.07156 8.6053 4.20386C8.77936 4.33615 8.90527 4.52184 8.96375 4.7325L10.1487 9H32C32.1542 8.99997 32.3062 9.03558 32.4444 9.10406C32.5825 9.17254 32.7029 9.27202 32.7962 9.39474C32.8895 9.51746 32.9532 9.66009 32.9823 9.81149C33.0113 9.96289 33.005 10.119 32.9638 10.2675ZM14 26C13.6044 26 13.2178 26.1173 12.8889 26.3371C12.56 26.5568 12.3036 26.8692 12.1522 27.2346C12.0009 27.6001 11.9613 28.0022 12.0384 28.3902C12.1156 28.7781 12.3061 29.1345 12.5858 29.4142C12.8655 29.6939 13.2219 29.8844 13.6098 29.9616C13.9978 30.0387 14.3999 29.9991 14.7654 29.8478C15.1308 29.6964 15.4432 29.44 15.6629 29.1111C15.8827 28.7822 16 28.3956 16 28C16 27.4696 15.7893 26.9609 15.4142 26.5858C15.0391 26.2107 14.5304 26 14 26ZM27 26C26.6044 26 26.2178 26.1173 25.8889 26.3371C25.56 26.5568 25.3036 26.8692 25.1522 27.2346C25.0009 27.6001 24.9613 28.0022 25.0384 28.3902C25.1156 28.7781 25.3061 29.1345 25.5858 29.4142C25.8655 29.6939 26.2219 29.8844 26.6098 29.9616C26.9978 30.0387 27.3999 29.9991 27.7654 29.8478C28.1308 29.6964 28.4432 29.44 28.6629 29.1111C28.8827 28.7822 29 28.3956 29 28C29 27.4696 28.7893 26.9609 28.4142 26.5858C28.0391 26.2107 27.5304 26 27 26Z" fill="white"/>
</g>
<defs>
<filter id="filter0_d_2321_19405" x="0" y="0" width="37.0002" height="34" filterUnits="userSpaceOnUse" color-interpolation-filters="sRGB">
<feFlood flood-opacity="0" result="BackgroundImageFix"/>
<feColorMatrix in="SourceAlpha" type="matrix" values="0 0 0 0 0 0 0 0 0 0 0 0 0 0 0 0 0 0 127 0" result="hardAlpha"/>
<feOffset/>
<feGaussianBlur stdDeviation="2"/>
<feComposite in2="hardAlpha" operator="out"/>
<feColorMatrix type="matrix" values="0 0 0 0 0 0 0 0 0 0 0 0 0 0 0 0 0 0 0.15 0"/>
<feBlend mode="normal" in2="BackgroundImageFix" result="effect1_dropShadow_2321_19405"/>
<feBlend mode="normal" in="SourceGraphic" in2="effect1_dropShadow_2321_19405" result="shape"/>
</filter>
</defs>
</svg>
