<svg width="12" height="10" viewBox="0 0 12 10" fill="none" xmlns="http://www.w3.org/2000/svg">
<path d="M8.625 3.19481V2.93372C8.625 1.75809 6.85172 0.871216 4.5 0.871216C2.14828 0.871216 0.375 1.75809 0.375 2.93372V4.80872C0.375 5.78793 1.60547 6.56606 3.375 6.79903V7.05872C3.375 8.23434 5.14828 9.12122 7.5 9.12122C9.85172 9.12122 11.625 8.23434 11.625 7.05872V5.18372C11.625 4.2134 10.4334 3.43434 8.625 3.19481ZM10.875 5.18372C10.875 5.8034 9.43172 6.49622 7.5 6.49622C7.32516 6.49622 7.15172 6.49012 6.98063 6.47887C7.99172 6.11044 8.625 5.51184 8.625 4.80872V3.95278C10.0252 4.16137 10.875 4.72762 10.875 5.18372ZM3.375 6.03918V4.92403C3.74802 4.97263 4.12383 4.99675 4.5 4.99622C4.87617 4.99675 5.25198 4.97263 5.625 4.92403V6.03918C5.25253 6.09421 4.87651 6.12163 4.5 6.12122C4.12349 6.12163 3.74747 6.09421 3.375 6.03918ZM7.875 4.14918V4.80872C7.875 5.202 7.29328 5.62434 6.375 5.88075V4.78528C6.98016 4.63856 7.4925 4.42012 7.875 4.14918ZM4.5 1.62122C6.43172 1.62122 7.875 2.31403 7.875 2.93372C7.875 3.5534 6.43172 4.24622 4.5 4.24622C2.56828 4.24622 1.125 3.5534 1.125 2.93372C1.125 2.31403 2.56828 1.62122 4.5 1.62122ZM1.125 4.80872V4.14918C1.5075 4.42012 2.01984 4.63856 2.625 4.78528V5.88075C1.70672 5.62434 1.125 5.202 1.125 4.80872ZM4.125 7.05872V6.86325C4.24828 6.86793 4.37297 6.87122 4.5 6.87122C4.68188 6.87122 4.85953 6.86512 5.03391 6.85481C5.22762 6.92416 5.42494 6.98299 5.625 7.03106V8.13075C4.70672 7.87434 4.125 7.452 4.125 7.05872ZM6.375 8.28918V7.17122C6.7479 7.22134 7.12374 7.2464 7.5 7.24622C7.87617 7.24675 8.25198 7.22263 8.625 7.17403V8.28918C7.87899 8.39856 7.12101 8.39856 6.375 8.28918ZM9.375 8.13075V7.03528C9.98016 6.88856 10.4925 6.67012 10.875 6.39918V7.05872C10.875 7.452 10.2933 7.87434 9.375 8.13075Z" fill="white"/>
</svg>
