<svg id="_x30_1" enable-background="new 0 0 62.229 62.4" height="512" viewBox="0 0 62.229 62.4" width="512" xmlns="http://www.w3.org/2000/svg"><g><g><g><path d="m11.739 17.6-2.62 1.05c-1.14.45-1.89 1.55-1.89 2.78v1.97h-1c-.46 0-.89.1-1.28.29l-1.72-4.29-2 1v-.39c0-2.26 1.13-4.36 3-5.61l-3-2c.62-1.54 1.63-2.87 2.89-3.86 1.27-1 2.79-1.66 4.44-1.9l1.67-.24-1-3c2.64 0 5.26.5 7.71 1.49l1.29.51-1-4h1c3.15 0 6.11 1.48 8 4l3-4 .7.53c2.14 1.6 3.65 3.88 4.3 6.47h.53c2.74 0 5.24 1.55 6.47 4l-3 2c.94.62 1.68 1.46 2.2 2.43.52.96.8 2.05.8 3.18v.39l-2-1-1.72 4.29c-.39-.19-.82-.29-1.28-.29h-1v-2.02c0-1.2-.72-2.29-1.82-2.76l-5.18-2.22-2 4-7-4-1 4-2.7-.77c-1.41-.4-2.7-1.1-3.79-2.03z" fill="#656d78"/></g><g><path d="m18.569 52.24c4.18 5.75 10.87 9.16 17.99 9.16h-19.33v-4-4-4-1.27c0 1.47.47 2.91 1.34 4.11z" fill="#fcd770"/></g><g><path d="m45.229 54.73v6.32c-1.49-.35-2.89-.96-4.13-1.78.08-.27.13-.57.13-.87 0-1.66-1.34-3-3-3h-1v-.15c0-.67-.36-1.26-.89-1.57-.32-.73-.58-1.49-.76-2.28h6.32.01c.68 1.46 1.86 2.64 3.32 3.32z" fill="#e6e9ed"/></g><g><path d="m54.559 51.4h6.32c-1.12 4.77-4.88 8.53-9.65 9.65v-6.32-.01c1.46-.68 2.64-1.86 3.32-3.32z" fill="#e6e9ed"/></g><g><path d="m60.879 45.4h-6.32-.01c-.68-1.46-1.86-2.64-3.32-3.32v-.01-6.32c4.77 1.12 8.53 4.88 9.65 9.65z" fill="#e6e9ed"/></g><g><path d="m45.229 42.07v.01c-1.46.68-2.64 1.86-3.32 3.32h-.01-6.32c1.12-4.77 4.88-8.53 9.65-9.65z" fill="#e6e9ed"/></g><g><path d="m13.229 53.4h4v4h-4z" fill="#e6e9ed"/></g><g><path d="m17.229 48.13v1.27h-4v-.76c0-1.36.27-2.7.79-3.93l3.63 1.46c-.27.59-.42 1.26-.42 1.96z" fill="#e6e9ed"/></g><g><path d="m30.429 45.3-3.76 1.88c-.11-.23-.2-.47-.29-.71-.35-.93-.96-1.69-1.73-2.23s-1.7-.84-2.69-.84v-.02l5.43-1.4c1.32.8 2.37 1.96 3.04 3.32z" fill="#e6e9ed"/></g><g><path d="m31.229 48.79v4.93c-1.97-1.83-3.52-4.06-4.56-6.54l3.76-1.88c.51 1.06.8 2.25.8 3.49z" fill="#ff826e"/></g><g><path d="m21.229 43.4.73-.02v.02c-1.31 0-2.49.53-3.34 1.39l-.97 1.38-3.63-1.46c.37-.91.88-1.75 1.5-2.52v-.01c1.74.79 3.67 1.22 5.71 1.22z" fill="#ff826e"/></g><g><path d="m13.229 49.4h4v4h-4z" fill="#ff826e"/></g><g><path d="m13.229 57.4h4v4h-4z" fill="#ff826e"/></g><g><path d="m18.619 44.79c.85-.86 2.03-1.39 3.34-1.39.99 0 1.92.3 2.69.84s1.38 1.3 1.73 2.23c.09.24.18.48.29.71 1.04 2.48 2.59 4.71 4.56 6.54v.01c.36.33.73.65 1.11.96l.89.71.49-.98c.31-.62.95-1.02 1.66-1.02.35 0 .68.1.96.28.53.31.89.9.89 1.57v.15h1c1.66 0 3 1.34 3 3 0 .3-.05.6-.13.87-.15.48-.41.91-.75 1.25-.54.54-1.29.88-2.12.88h-1.67c-7.12 0-13.81-3.41-17.99-9.16-.87-1.2-1.34-2.64-1.34-4.11 0-.7.15-1.37.42-1.96z" fill="#f0d0b4"/></g><g><path d="m37.509 23.69c1.02.48 1.72 1.51 1.72 2.71 0 .83-.34 1.58-.88 2.12s-1.29.88-2.12.88h-1v-6h1c.46 0 .89.1 1.28.29z" fill="#f0d0b4"/></g><g><path d="m27.389 41.98-5.43 1.4-.73.02c-2.04 0-3.97-.43-5.71-1.22-4.89-2.18-8.29-7.09-8.29-12.78v-6-1.97c0-1.23.75-2.33 1.89-2.78l2.62-1.05c1.09.93 2.38 1.63 3.79 2.03l2.7.77 1-4 7 4 2-4 5.18 2.22c1.1.47 1.82 1.56 1.82 2.76v2.02 6c0 3.86-1.57 7.36-4.1 9.9z" fill="#f0d0b4"/></g><g><path d="m7.229 23.4v6h-1c-.83 0-1.58-.34-2.12-.88s-.88-1.29-.88-2.12c0-1.2.7-2.23 1.72-2.71.39-.19.82-.29 1.28-.29z" fill="#f0d0b4"/></g><g><path d="m27.229 33.4-.18 1.07c-.47 2.84-2.93 4.93-5.82 4.93s-5.35-2.09-5.82-4.93l-.18-1.07z" fill="#ff826e"/></g><g><path d="m51.229 54.73v6.32c-.96.23-1.97.35-3 .35s-2.04-.12-3-.35v-6.32-.01c.91.44 1.92.68 3 .68s2.09-.24 3-.68z" fill="#ff826e"/></g><g><path d="m60.879 51.4h-6.32-.01c.44-.91.68-1.92.68-3s-.24-2.09-.68-3h.01 6.32c.23.96.35 1.97.35 3s-.12 2.04-.35 3z" fill="#ff826e"/></g><g><path d="m45.229 42.07v-6.32c.96-.23 1.97-.35 3-.35s2.04.12 3 .35v6.32.01c-.91-.44-1.92-.68-3-.68s-2.09.24-3 .68z" fill="#ff826e"/></g><g><path d="m41.229 48.4c0 1.08.24 2.09.68 3h-.01-6.32c-.23-.96-.35-1.97-.35-3s.12-2.04.35-3h6.32.01c-.44.91-.68 1.92-.68 3z" fill="#ff826e"/></g></g><g><path d="m16.229 26.4h2c0-2.206-1.794-4-4-4s-4 1.794-4 4h2c0-1.103.897-2 2-2s2 .898 2 2z"/><path d="m28.229 24.4c1.103 0 2 .897 2 2h2c0-2.206-1.794-4-4-4s-4 1.794-4 4h2c0-1.102.898-2 2-2z"/><path d="m28.038 34.633.371-2.232h-14.359l.371 2.232c.558 3.342 3.421 5.768 6.809 5.768s6.25-2.426 6.808-5.768zm-11.628-.233h9.639c-.435 2.323-2.445 4-4.819 4s-4.385-1.676-4.82-4z"/><path d="m48.229 34.4c-7.72 0-14 6.28-14 14 0 1.396.212 2.758.612 4.071-.818.155-1.534.639-1.951 1.378-.227-.184-.444-.379-.661-.573v-4.492c0-2.574-1.142-5.012-3.038-6.695 3.953-2.489 6.66-6.764 6.987-11.69h.051c2.206 0 4-1.794 4-4 0-1.25-.587-2.353-1.488-3.087l1.013-2.532 2.475 1.237v-2.013c0-2.104-.848-4.084-2.318-5.524l2.607-1.738-.395-.79c-1.37-2.74-4.091-4.468-7.139-4.55-.792-2.494-2.354-4.701-4.454-6.276l-1.501-1.126-2.85 3.8c-2.059-2.148-4.946-3.4-7.95-3.4h-2.281l.839 3.354c-2.424-.899-4.964-1.354-7.558-1.354h-1.387l1.061 3.18-.484.068c-3.642.522-6.752 2.966-8.118 6.381l-.301.753 2.548 1.699c-1.471 1.44-2.318 3.421-2.318 5.524v2.013l2.476-1.237 1.013 2.531c-.902.735-1.49 1.838-1.49 3.088 0 2.206 1.794 4 4 4h.051c.348 5.24 3.383 9.754 7.751 12.154-1.164 1.808-1.802 3.926-1.802 6.088v13.758h24.327 1.673c1.358 0 2.555-.683 3.278-1.719 2.053 1.126 4.354 1.719 6.722 1.719 7.72 0 14-6.28 14-14s-6.28-14-14-14zm11.3 10h-4.382c-.702-1.209-1.709-2.216-2.918-2.918v-4.382c3.4 1.208 6.093 3.9 7.3 7.3zm.7 4c0 .683-.071 1.348-.181 2h-4.083c.166-.641.263-1.308.263-2s-.097-1.359-.263-2h4.083c.111.652.181 1.318.181 2zm-12 6c-3.309 0-6-2.691-6-6s2.691-6 6-6 6 2.691 6 6-2.691 6-6 6zm2-17.819v4.083c-.641-.166-1.308-.263-2-.263s-1.359.097-2 .263v-4.083c.652-.11 1.317-.181 2-.181s1.349.071 2 .181zm-6 .519v4.382c-1.209.702-2.216 1.709-2.918 2.918h-4.381c1.207-3.4 3.9-6.092 7.299-7.3zm-3.736 13.3h-4.082c-.11-.657-.181-1.322-.181-2 0-.683.071-1.348.181-2h4.083c-.166.641-.263 1.308-.263 2s.096 1.36.262 2zm-10.264-1.615v2.402c-.884-1.088-1.636-2.278-2.249-3.544l1.908-.954c.215.672.341 1.376.341 2.096zm-1.215-3.896-1.841.921c-.362-.813-.9-1.513-1.565-2.066.573-.175 1.128-.389 1.669-.628.688.486 1.273 1.087 1.737 1.773zm-12.785 5.511v2h-2v-2zm0 4v2h-2v-2zm0-6h-1.99c.021-.806.149-1.601.376-2.368l1.789.716c-.11.442-.175.902-.175 1.378zm20-20v-4c1.103 0 2 .897 2 2s-.897 2-2 2zm-32-2c0-1.103.897-2 2-2v4c-1.102 0-2-.897-2-2zm2-4.968v.968c-.238 0-.468.03-.694.07l-1.781-4.45-1.377.689c.326-1.408 1.176-2.655 2.407-3.477l1.248-.832-3.54-2.359c1.227-2.367 3.541-4.03 6.21-4.412l2.854-.408-.923-2.771c2.038.145 4.029.602 5.938 1.365l3.102 1.241-1.162-4.65c2.714.086 5.283 1.416 6.918 3.596l.8 1.066 3.199-4.267c1.894 1.455 3.252 3.524 3.831 5.842l.189.757h1.31c2.081 0 3.979 1.013 5.132 2.691l-3.463 2.309 1.248.832c1.231.821 2.081 2.068 2.407 3.477l-1.378-.689-1.78 4.451c-.227-.04-.457-.07-.695-.07v-1.021c0-1.603-.952-3.046-2.425-3.677l-6.048-2.593-1.949 3.898-7.229-4.131-1.069 4.278-1.706-.488c-2.464-.704-4.534-2.422-5.68-4.714l-1.789.895c.435.869.979 1.671 1.612 2.389l-1.203.481c-1.526.61-2.514 2.068-2.514 3.714zm2 7.968v-7.969c0-.822.493-1.552 1.257-1.856l2.081-.833c1.095.832 2.343 1.464 3.688 1.849l3.694 1.055.931-3.722 6.771 3.869 2.051-4.102 4.315 1.849c.736.315 1.212 1.037 1.212 1.839v8.021c0 7.168-5.832 13-13 13s-13-5.832-13-13zm9.732 14.631c-.277.27-.528.566-.746.887l-1.835-.734c.149-.271.312-.535.488-.791.677.26 1.374.477 2.093.638zm-3.732 14.369h2v2h-2zm4 2v-6.964c2.376 3.048 5.455 5.428 8.922 6.964zm20 0h-1.673c-6.773 0-13.196-3.271-17.181-8.748-.75-1.032-1.146-2.252-1.146-3.526 0-2.055 1.671-3.726 3.726-3.726 1.544 0 2.945.972 3.487 2.417v.001c1.274 3.396 3.444 6.389 6.277 8.655l1.852 1.479 1.04-2.08c.146-.292.438-.473.764-.473.471 0 .854.384.854.854v1.147h2c1.103 0 2 .897 2 2s-.897 2-2 2zm0-6h-.131c-.169-.538-.498-1.002-.924-1.351-.09-.214-.172-.431-.249-.649h4.386c.702 1.209 1.709 2.216 2.918 2.918v4.393c-.705-.249-1.386-.564-2.037-.945.011-.122.037-.24.037-.366 0-2.206-1.793-4-4-4zm8 5.828v-4.091c.641.166 1.308.263 2 .263s1.359-.097 2-.263v4.083c-.652.11-1.317.181-2 .181-.675-.001-1.343-.063-2-.173zm6-.528v-4.382c1.209-.702 2.216-1.709 2.918-2.918h4.382c-1.207 3.4-3.9 6.093-7.3 7.3z"/></g></g></svg>